<?xml version="1.0" encoding="utf-8"?>
<!-- Generator: Adobe Illustrator 26.0.0, SVG Export Plug-In . SVG Version: 6.00 Build 0)  -->
<svg version="1.1" id="Layer_1" xmlns="http://www.w3.org/2000/svg" xmlns:xlink="http://www.w3.org/1999/xlink" x="0px" y="0px"
	 viewBox="0 0 429.2 100.8" style="enable-background:new 0 0 429.2 100.8;" xml:space="preserve">
<style type="text/css">
	.st0{fill-rule:evenodd;clip-rule:evenodd;fill:#ED1C24;}
	.st1{fill:#00A750;}
	.st2{fill-rule:evenodd;clip-rule:evenodd;fill:#00A750;}
	.st3{fill-rule:evenodd;clip-rule:evenodd;fill:#FFDD00;}
	.st4{fill:#ED1C24;}
	.st5{fill:#FFFFFF;}
	.st6{fill-rule:evenodd;clip-rule:evenodd;fill:#0968B1;}
	.st7{fill-rule:evenodd;clip-rule:evenodd;fill:#FFFFFF;}
	.st8{fill-rule:evenodd;clip-rule:evenodd;fill:#0061AF;}
</style>
<g>
	<g>
		<g>
			<g>
				<path class="st0" d="M251.7,54c0,11.3-9.3,20.5-20.8,20.5c-11.5,0-20.8-9.2-20.8-20.5s9.3-20.5,20.8-20.5S251.7,42.7,251.7,54
					L251.7,54z"/>
				<path class="st1" d="M261.9,54.2L261.9,54.2L261.9,54.2c0,8.2-3.4,15.7-8.9,21.1c-5.5,5.4-13.1,8.7-21.6,8.7l0,0l0,0l0,0l0,0
					c-8.4,0-16-3.3-21.6-8.7c-5.5-5.4-8.9-12.9-8.9-21.1l0,0l0,0l0,0l0,0c0-8.2,3.4-15.7,8.9-21.1c5.5-5.4,13.1-8.7,21.5-8.7l0,0
					l0,0l0,0l0,0c8.4,0,16,3.3,21.6,8.7C258.5,38.5,261.9,46,261.9,54.2L261.9,54.2L261.9,54.2L261.9,54.2z M261.1,54.2L261.1,54.2
					L261.1,54.2L261.1,54.2L261.1,54.2c0-8-3.3-15.3-8.7-20.5c-5.4-5.3-12.8-8.5-21-8.5l0,0l0,0l0,0l0,0c-8.2,0-15.6,3.2-21,8.5
					c-5.4,5.2-8.7,12.5-8.7,20.5l0,0l0,0l0,0l0,0c0,8,3.3,15.3,8.7,20.5c5.4,5.3,12.8,8.5,21,8.5l0,0l0,0l0,0l0,0
					c8.2,0,15.6-3.2,21-8.5C257.8,69.5,261.1,62.2,261.1,54.2L261.1,54.2z"/>
				<polygon class="st0" points="208.9,65.5 207.4,64.5 205.9,65.4 206.3,63.8 205,62.6 206.7,62.6 207.2,60.9 208,62.7 209.5,62.8 
					208.4,63.8 				"/>
				<polygon class="st0" points="213.7,71.4 212.2,71.1 211.2,72.9 210.7,71 209,70.9 210.6,69.9 210.4,68.1 211.8,69.5 213.3,68.5 
					212.6,70 				"/>
				<polygon class="st0" points="256.2,64.7 254.9,63.2 252.7,64.2 253.7,62.3 252.3,60.8 254.4,61 255.3,59.3 255.6,61.1 
					257.8,61.5 256,62.6 				"/>
				<polygon class="st0" points="252,72 250.5,70.5 248.6,70.9 249.8,69.4 248.7,67.8 250.6,68.4 251.8,66.8 252.1,68.9 253.9,69 
					251.8,70 				"/>
				<g>
					<path class="st2" d="M226.4,80l-0.8-0.5c-0.1-0.1-0.3,0-0.4,0.1c-0.1,0.2,0,0.3,0.1,0.4l0.8,0.5c0.1,0.1,0.3,0,0.4-0.1
						C226.6,80.3,226.6,80.1,226.4,80z"/>
					<path class="st2" d="M244.9,73.6c0.7-0.6,0.1-1,0.1-1c-9.1,6.3-18.8,3.5-18.8,3.5c-2.6,0-8.2-3.6-8.2-3.6
						c-1,0.6,0.8,1.6,0.8,1.6c0.6,0.1,0.3,1.3,0.3,1.3c-1.1,0.8-1.5-0.2-1.5-0.2c0-0.4-0.2-0.2-0.2-0.2c-0.6,1.2,0.6,1.8,0.6,1.8
						c0.1,0.2,2.3-0.2,2.3-0.2c1.6-0.6,1.3,1.4,1.3,1.4c-0.5,0.9,0.4,1,0.4,1c0.1-0.1,1-2.2,1-2.2c0.2-1.1,1.1-0.5,1.1-0.5
						c0.8,0.3,3.1,0.8,3.1,0.8c1.3,0,0.8,0.4,0.8,0.4c0,0.1-3.8,0.1-3.8,0.1c-0.8,0.7,0.1,1,0.1,1c1.6-0.1,3.3,1.3,3.3,1.3
						c0.3,0.6,1,0.5,1,0.5c0.1-0.4,0.4-1.9,0.4-1.9c0-1.3,0.8-1.2,0.8-1.2c0.7,0.3,3.7,0.1,3.7,0.1c1-0.3,0.4,0.4,0.4,0.4l-2.2,0.6
						c-1.3,0.3-1,0.6-1,0.6c-0.2,0.9,0.8,0.7,0.8,0.7c2.6-0.6,3.5,0.7,3.5,0.7c0.2,0.5,0.9-0.1,0.9-0.1c-0.1-0.1-0.2-2-0.2-2l0.8,0
						c1.3-0.2,0.5,0.5,0.5,0.5c-0.5,0-0.5,0.5-0.5,0.5c0.3,0.6,1.4-0.2,1.4-0.2c1.1-1.4-2.1-1.8-2.1-1.8l1.8-0.4c0.5-0.4,1,0,1,0
						l0.7,2.1c0.2,1.1,1.1,0.6,1.1,0.6l-0.6-1.9c-0.4-1.4,0.1-1.4,0.1-1.4l2.9-1.3c1.3-1.1,1.4-0.4,1.4-0.4l-2.2,1.7
						c-1.4,1-0.1,1.5-0.1,1.5c2.3-2.1,4.7-1.2,4.7-1.2C246.6,76.1,244.9,73.6,244.9,73.6z M222.1,76.4c-0.3,0.1-0.7-0.4-0.7-0.4
						c0-0.7-1.7-0.6-1.7-0.6c-0.2-0.6,0.1-0.7,0.1-0.7c0.7-0.5,2.5,1.1,2.5,1.1L222.1,76.4z M228,79.3c0,0-0.7,0-1.3-0.7
						c0,0-0.2-0.6,0.9-0.2C227.6,78.3,228.6,78.4,228,79.3z M234.5,79.3l-0.4-0.2c-1.1-0.1,0-0.7,0-0.7
						C234.8,78.3,234.5,79.3,234.5,79.3z M244.4,75.9c0,0-0.9,0.2-0.2-0.5c0,0,0.2-0.3,0.7-0.2C244.9,75.2,245.3,75.9,244.4,75.9z"
						/>
				</g>
				<path class="st2" d="M244.8,77.6c0,0,0.6-0.8-1-0.3c0,0-1.1,0.9,0.2,0.8C244.1,78.1,244.5,77.6,244.8,77.6L244.8,77.6z"/>
				<g>
					<path class="st2" d="M206.6,47.5c-0.7-0.1-0.7-0.7-0.7-0.7c-0.4-0.2-0.6,0.9-0.6,0.9c0.6,0.2,0.2,0.7,0.2,0.7
						c-0.8,0.5-0.9,2.5-0.9,2.5c0.4,2.4,1.5,1.7,1.5,1.7c0.7-0.1,0.1-1.7,0.1-1.7c0.3-2.5,0.8,0.2,0.8,0.2c0.2,1.1,0.9,0.2,0.9,0.2
						c-0.1-1-0.8-2.1-0.8-2.1c-0.5-0.9-1.3,0.5-1.3,0.5c0.2,1.5-0.4,1-0.4,1c-0.6-1.6,0.7-2.4,0.7-2.4c0.6-0.4,2.1,0.1,2.1,0.1
						c0.9,0.1,0.4-0.5,0.4-0.5L206.6,47.5z"/>
					<path class="st2" d="M209.1,42c-1,0-0.9-1-0.9-1c-0.4-0.3-0.8,1-0.8,1c0.8,0.3,0,0.7,0,0.7c-0.9,0.3-1.2,1.4-1.2,1.4
						c-0.5,2.9,1.8,2.5,1.8,2.5c1.4-0.9,0.7-2.3,0.7-2.3c-0.2-0.7-0.8,0.2-0.8,0.2c0.4,1.4-0.4,1.5-0.4,1.5
						c-1.3-1.1,0.2-2.9,0.2-2.9c0.7-1,2.5,0.2,2.5,0.2c0.7,0.3,0.6-0.5,0.6-0.5L209.1,42z"/>
					<path class="st2" d="M234.4,27.1c-1.6-2-3.6-1.3-3.6-1.3c-1.9,0.2-0.9,0.9-0.9,0.9c1.1-0.4,2.8-0.4,2.8-0.4
						c1.6,0.4,0.6,1,0.6,1c-0.8-0.3-5.4,0.1-5.4,0.1c-5.5,0.7-10.9,3.9-10.9,3.9c-1.6,0.7-5.2,4.3-5.2,4.3l0.4,0.6
						c-0.2,0.3-1.1,0.5-1.1,0.5c-1.4,0.4-1.4,2.3-1.4,2.3c-0.4,1.3,0.7,0.5,0.7,0.5c0.5-0.9,0.7-0.1,0.7-0.1c0.2,0.6,0.8,0,0.8,0
						c0.2,0.1,0.4-1.4,0.4-1.4c0.1-2,0.8-1.2,0.8-1.2c1,0.4,0.6,1.2,0.6,1.2c-0.8,0-1,1.4-1,1.4c0.2,0.8-0.8,1.5-0.8,1.5
						c-1.1,0-0.9,0.3-0.9,0.3c2.2,0.3,2.5-1.6,2.5-1.6c-0.2-1,0.6-1.3,0.6-1.3c0.7,0.1,0.7-0.3,0.7-0.3c0.5-0.1-1-1.5-1-1.5
						c-1.6-1.1-0.7-1.4-0.7-1.4c0.5-0.3,1-0.9,1-0.9c0.7-1,0.7,0,0.7,0c0.1,0.9,1.5,0.7,1.5,0.7c0.5,0,0.9-1,0.9-1
						c-0.1-0.5,0.4-0.3,0.4-0.3c0.2,1.1-1,1.7-1,1.7c-0.7,0.8-2.5,0-2.5,0l0,0.3c1.9,1.1,3,0,3,0c1-0.2,1.4-2,1.4-2
						c-0.4-0.7-1.7-0.5-1.7-0.5c0.1,0.2-0.9,1.4-0.9,1.4c-1-0.8,0.7-2.2,0.7-2.2c0.1,0.4,1.4,0.2,1.4,0.2c1.1-0.6,0.7,0,0.7,0
						c0.2,0.1,0.3,1.1,0.3,1.1c0.4,0.7,0.7,0.3,0.7,0.3c-0.3-0.4,0.2-2.3,0.2-2.3l-0.7-0.4l-0.9,0.7c-1.4,0.1-0.6-0.3-0.6-0.3
						c0.2-0.3,1.8-1.1,1.8-1.1c1-0.9,1.4,1.1,1.4,1.1c0.3,0.6,1,1.4,1,1.4l0.4-0.4l-0.6-1.4c-1.1-1.9,0-1.6,0-1.6
						c0.3-0.4,2.4-0.8,2.4-0.8c0.9-0.2-0.2,0.7-0.2,0.7c0,0.8,0.7,0.6,0.7,0.6c0.2-0.5,1.1-0.8,1.1-0.8c1.7-0.2,0.1,1.2,0.1,1.2
						c-1.8,1.2-3.2-0.2-3.2-0.2c-0.5-0.5-0.6,0-0.6,0c0.2,0.5,2.1,1.3,2.1,1.3c0.9,0.2,2.1-0.3,2.1-0.3c1.9-1.7,0-2.5,0-2.5
						c-1.5-0.3,0-0.5,0-0.5c1.5-0.5,4.9-0.5,4.9-0.5c0.4,1.3-0.5,1-0.5,1c-0.5-0.7-2-0.2-2-0.2c-1.4,0.7,0.1,0.9,0.1,0.9
						c0.4-0.6,0.8-0.5,0.8-0.5c1.5-0.3,0.4,0.5,0.4,0.5c-0.5,0.7,1,0.2,1,0.2c0-0.5,0.8-0.5,0.8-0.5c0.9-0.1,0.3,1.4,0.3,1.4
						c-0.4-0.3-2.6,0.2-2.6,0.2c-1.1-1.1-0.8,0-0.8,0c0.7,1,1.8,0.6,1.8,0.6c1.2-0.9,1.5-0.2,1.5-0.2c0.4,0.3,0.7,0.2,0.7,0.2
						l0.2-1.4c0.3-0.5-0.7-1.3-0.7-1.3c0-1.3,1.1-0.8,1.1-0.8c1.1-0.5,0.5,2.1,0.5,2.1c-0.2,1.3,0.6,1,0.6,1
						c0.2-0.3,0.3-2.3,0.3-2.3c-0.3-0.9,0.6-0.7,0.6-0.7l0-0.6C234.8,27.6,234.4,27.1,234.4,27.1z M211,38.6c0,0-1,0.3-0.4-0.9
						c0,0,0.1-0.7,1-0.6C211.6,37.1,211.9,38.2,211,38.6z"/>
					<path class="st2" d="M243.3,30.3c0,0,0.5-0.3-1.5-1.1c0,0-3.5-1.2-4.8-1.4c0,0-1.1,0.3,0.6,0.8c0,0,2.1,0.3,2.6,0.9h-3.5
						c0,0-0.9,0.8,0.4,1.1c0,0,2.1,0,2.4,1.5c0,0,0.6,0.9,1-0.5c0,0,0.7-1.6,0.9-1.8c0,0,1.3-0.1,0.4,1.5l-0.8,1.3
						c0,0,0.2,0.7,0.6,0.5c0,0,0.8-1.4,0.9-2C242.4,30.9,242.7,30.4,243.3,30.3z M239.5,31.1c-1.2-0.7-0.6-0.8-0.6-0.8h0.9
						C239.9,30.6,239.5,31.1,239.5,31.1z"/>
					<path class="st2" d="M242.5,33.2c0.2-0.1,2,1.9,2,1.9c0.2-0.4-1.1-2-1.1-2C242.9,32.2,242.5,33.2,242.5,33.2z"/>
					<path class="st2" d="M246.3,32.1c0.3-1.5-2.1-1.4-2.1-1.4c-1.5,0.6-0.7,1.7-0.7,1.7C245.7,33.7,246.3,32.1,246.3,32.1z
						 M245.3,32c0,0-1.4,0.5-1.5-0.3c0,0,0.5-0.6,1.2-0.4C245,31.4,246.3,31.6,245.3,32z"/>
					<path class="st2" d="M258.2,51.1c-0.3,0.2-0.8-0.4-0.8-0.4c0.4,0,0.5-0.5,0.5-0.5c0.2-0.5-0.1-1.3-0.1-1.3
						c-0.4,0-0.7-0.7-0.7-0.7c0.4-0.9,0.4-1.2,0.4-1.2c0-1.7-2.2-5.8-2.2-5.8c-0.2-1.4-4-5.7-4-5.7c-0.3-0.6-3.8-3.4-3.8-3.4
						c-1,0.1,0.8,1.4,0.8,1.4c0.5,0.1,2.4,2.1,2.4,2.1c0.3,1-0.5,0.6-0.5,0.6c0.3-1.2-1.5-1.3-1.5-1.3c-0.3-1.6-1.4-1.5-1.4-1.5
						c-2.2-0.5-1.6,1.4-1.6,1.4c0.8,1.2,1.7,1,1.7,1l0.1-0.6c-0.5-0.1-1.2-1-1.2-1c0.8-0.4,1.4,0.2,1.4,0.2c0.9,0,0.6,1.3,0.6,1.3
						l0.6,0.2c1.7-0.2,0.6,1.3,0.6,1.3c-1.3,0.8-0.2,1.2-0.2,1.2l1.2-1c1.2-1.8,1.6-0.1,1.6-0.1c0,0.4-1.5,1.2-1.5,1.2
						c-0.9,0.7-0.5,1.3-0.5,1.3l1.4-1c0.9-1,1.4-0.6,1.4-0.6c1.2,1,0.3,1.1,0.3,1.1c-1-0.1-1.7,0.5-1.7,0.5c-1,1.3,0.5,2.2,0.5,2.2
						c0.3,0,0.3-0.6,0.3-0.6c-0.5,0-0.7-0.9-0.7-0.9c0.7-1.3,2.5-0.2,2.5-0.2c1.3,0.4,0.4,1,0.4,1c-0.1,0-1.4,0.8-1.4,0.8
						c-0.2,0.9,1,1.3,1,1.3c1.1,0.5,1.1,1,1.1,1c-1.6,0.1-1.6,0.6-1.6,0.6c0.6-0.2,1.3,0.1,1.3,0.1c0.1,0.2,0.9,0.3,0.9,0.3l0.3-0.9
						l-1.4-1.5c-1-0.5-0.3-0.8-0.3-0.8c0.6-0.9,1-0.2,1-0.2c0.2,0,1.7,4.4,1.7,4.4c0.2,2.3-1.1,0.7-1.1,0.7
						c-0.2-0.8-0.6-0.6-0.6-0.6c-0.6,0.1,0.1,1.4,0.1,1.4c0.5,0,0.5,0.7,0.5,0.7c-0.5,0.4,0,1.8,0,1.8l0.7-0.3c-0.5-1.2,0-1.3,0-1.3
						c0.7-0.4,0.9,0.8,0.9,0.8c0.4,1.8-2.1,1.7-2.1,1.7c-1,0.1-0.2,0.6-0.2,0.6c0.2,0.1,2.6-0.2,2.6-0.2c0.5,1,0.8,0.6,0.8,0.6
						C258.6,51.5,258.2,51.1,258.2,51.1z"/>
				</g>
				<g>
					<path class="st3" d="M224,40.6c0,0.1,0,0.2,0,0.3c0.1,0.1,0.2,0.2,0.3,0.2c0,0,0,0.1,0,0.1c0,0,0.1,0,0.2,0c0,0,0,0,0,0
						c0.1,0.1,0.1,0.1,0.2,0.1c0,0,0,0,0-0.1c0.1,0,0.1,0,0.2,0c0,0.1,0.1,0.1,0.1,0.3c0,0,0,0,0.1,0c0,0,0,0,0,0.1c0,0,0.1,0,0.1,0
						c0,0,0,0,0,0.1c0,0,0,0,0.1,0c0,0,0,0,0,0.1c0,0,0,0,0,0c0,0,0,0.1,0,0.1c0,0,0.1,0,0.1,0c0,0,0,0,0,0.1
						c0.1,0.1,0.2,0.2,0.4,0.2c0-0.1,0-0.2,0-0.2c0.1,0,0.1,0.1,0.2,0.1c0,0,0,0,0,0c0.1,0,0.1,0,0.2,0c0,0,0,0.1,0.1,0.1
						c0,0,0,0,0.1,0c0-0.1,0-0.1,0-0.2c0,0,0,0,0,0c-0.1-0.1,0,0-0.2-0.1c0,0,0,0,0,0c0,0-0.1,0-0.1,0c-0.1-0.1-0.1-0.2-0.2-0.3
						c0,0,0,0,0-0.1c0,0,0,0-0.1,0c0-0.1,0-0.1,0-0.2c0.1,0,0.1-0.1,0.3-0.1c0,0.1,0,0,0.1,0.1c0,0,0,0,0,0.1
						c0.1,0.1,0.1,0.2,0.3,0.2c0,0,0,0.1,0,0.2c0,0,0,0,0,0c0,0.1,0,0.2,0,0.4c0,0,0,0,0,0c0,0,0,0,0,0.1c0,0,0,0,0.1,0
						c0,0,0,0,0,0.1c0,0,0,0,0,0c0,0,0,0.1,0,0.2c0,0,0,0,0,0c0,0,0,0.1,0,0.1c0.1,0.1,0.2,0.2,0.2,0.3c0,0,0,0,0.1,0c0,0,0,0,0,0.1
						c0,0,0,0,0.1,0c0,0,0,0,0,0c0,0,0.1,0,0.1,0.1c0.1,0.2,0,0.2,0.2,0.2c0.2-0.2,0.3,0.1,0.4,0c0,0,0,0,0-0.1c0,0,0,0,0.1,0
						c0,0,0,0.1,0,0.1c0,0,0,0,0,0c0,0,0,0,0,0.1l0,0c0,0,0.1-0.1,0.1-0.2c0,0,0,0,0,0c0-0.1,0-0.2,0-0.2c0,0,0,0,0,0
						c0,0,0-0.1,0.1-0.1c-0.1-0.1-0.2-0.1-0.2-0.3c0.1-0.1,0-0.2,0.2-0.2c0,0,0,0,0,0c0.1,0,0.1,0,0.2,0c0,0.1,0.1,0.2,0.1,0.4
						c0.1,0.1,0.2,0.2,0.3,0.2c0,0.1,0,0.2,0,0.3c0,0,0,0,0,0c0,0,0,0,0,0.1c0,0,0,0,0,0c0,0,0,0.1,0,0.1c0.1,0,0.1,0,0.2,0
						c0,0,0,0,0,0c0.1,0,0.3,0.1,0.4,0.2c0,0,0,0,0,0.1c0,0,0,0,0,0c0,0,0,0.1,0,0.1c-0.1,0.1-0.2,0.2-0.2,0.3c0,0,0,0-0.1,0
						c0,0,0,0.1,0,0.1c0,0,0,0,0,0c0,0.1,0,0.2,0,0.3c0,0,0,0,0,0c0,0,0,0,0,0.1c0,0-0.1,0-0.1,0.1c0,0,0,0.1,0,0.2c0,0,0,0,0,0
						c0,0,0,0,0,0c0,0,0,0,0,0c0,0,0,0.1,0,0.2c0,0,0,0,0,0c0,0.2,0,0.3,0,0.5c0,0,0,0,0,0c0,0.1,0,0.2,0,0.3c0,0,0,0,0,0
						c0,0.2,0,0.3,0,0.5c0,0,0,0,0,0c0,0,0,0,0,0c0.1,0,0.2-0.2,0.4-0.1c0,0,0,0,0,0.1c0,0,0,0,0.1,0c0,0,0,0,0,0.1c0,0,0,0,0.1,0
						c0,0,0,0,0,0c0,0,0,0,0.1,0c0,0,0,0,0,0c0.2,0,0.4,0.1,0.5,0.1c0,0,0,0,0,0c0,0,0.1,0,0.1,0c0,0,0,0,0,0c0,0,0.1,0,0.1,0
						c0,0,0,0,0,0c0.2,0,0.4,0,0.5,0c0,0,0,0,0,0c0,0,0.1,0,0.2,0c0,0,0,0,0,0c0,0,0.1,0,0.2,0c0,0,0,0,0,0c0,0,0.1,0,0.2,0
						c0,0,0,0,0,0c0,0,0,0,0.1,0c0,0,0,0,0,0c0.1,0,0.2,0,0.2,0c0,0,0,0,0,0c0.1,0,0.4,0,0.5,0c0,0,0,0,0,0c0,0,0.1,0,0.2,0
						c0,0,0,0,0,0c0,0,0.1,0,0.2,0c0,0,0,0,0,0c0.1,0,0.2,0,0.4,0c0.1,0,0.2,0,0.3,0c0.1,0,0.5,0.2,0.7,0.1c0,0,0,0,0,0
						c0,0,0,0,0.1,0c0,0,0,0,0,0c0.1,0,0.4-0.1,0.6-0.1c0,0,0,0,0,0c0.1,0,0.2,0,0.2,0c0,0,0,0,0,0c0.1,0,0.3,0,0.4,0c0,0,0,0,0,0
						c0,0,0,0,0.1,0c0,0,0,0,0,0c0,0,0.1,0,0.1,0c0,0,0,0,0,0c0,0,0,0,0.1,0c0,0,0,0,0,0c0,0,0.1,0,0.2,0c0,0,0,0,0,0
						c0.1,0,0.3,0,0.4,0c0,0,0,0,0,0c0.1,0,0.2,0,0.2,0c0,0,0,0,0,0c0.1,0,0.4,0,0.5,0c0,0,0,0,0,0c0.1,0,0.1,0,0.2,0c0,0,0,0,0,0
						c0,0,0.1,0,0.2,0c0,0,0,0,0,0c0.1,0,0.4,0,0.5,0c0,0,0,0,0,0c0.1,0,0.2,0,0.2,0c0.3,0.1,0.9,0.2,0.9,0.5c0.1,0,0.1,0.1,0.2,0.1
						c0,0,0,0,0,0c0.1,0,0.1,0,0.2,0c0,0,0,0,0,0c0,0,0,0,0.1,0c0,0,0,0,0,0.1c0,0,0,0,0.1,0c0,0,0,0,0,0c0.1,0.1,0,0.2,0.2,0.2
						c0,0.1,0.1,0.2,0.1,0.3c-0.1,0-0.2,0-0.3,0c0,0,0,0,0,0c0,0-0.1,0-0.2,0c-0.2-0.1-0.4-0.1-0.6-0.1c0,0.2,0,0.3,0,0.5
						c0,0,0,0,0,0c0,0.1-0.1,0.5-0.1,0.6c0,0,0,0,0,0c0,0.1,0,0.2,0,0.2c0,0.1,0.1,0.2,0.1,0.4c-0.1,0,0,0-0.1,0.1c0,0-0.1,0-0.1,0
						c0,0,0,0,0,0c-0.1-0.1,0-0.1-0.2-0.2c0,0,0,0,0,0c0,0,0,0,0,0c-0.1,0.1,0,0.3,0,0.4c0,0,0,0,0,0c-0.1,0-0.5,0-0.6,0
						c0,0,0,0.1,0,0.1c-0.1,0-0.1,0-0.2-0.1c0,0.1,0,0.2,0,0.3c0,0-0.1,0-0.1,0c0,0,0,0-0.1,0c0,0,0,0,0,0.1c0,0,0,0,0,0
						c0,0.1,0,0.1,0,0.1c0,0.2,0,0.4,0,0.5c-0.1,0-0.1,0.1-0.2,0.1c0,0,0,0,0,0c-0.1-0.1-0.1-0.1-0.1-0.3c0,0,0-0.2,0-0.2
						c0,0,0,0-0.1,0c-0.1,0.1-0.2,0.1-0.3,0.1c0,0,0,0,0,0c-0.1,0-0.1,0-0.1-0.2c0,0,0,0-0.1,0c0,0.2,0,0.3,0,0.4
						c-0.1,0-0.1,0.1-0.2,0.2c0,0-0.1,0-0.1,0c0-0.1-0.1-0.1-0.1-0.2c-0.1,0,0,0-0.1,0c-0.1,0-0.1,0-0.1,0.1c0,0,0,0,0,0
						c0,0,0,0.1,0,0.2c0,0.1-0.1,0.2-0.1,0.3c-0.2,0-0.4-0.1-0.6-0.2c0,0,0,0,0,0c-0.3,0.1-0.3,0.5-0.5,0.7c-0.1,0-0.3,0-0.4,0.1
						c0,0,0,0,0,0.1c-0.1,0.1,0,0.5,0,0.7c0,0,0,0,0,0c0,0,0,0,0,0.1c0,0,0,0,0,0c-0.1,0.2,0.1,0.5,0.2,0.7c0,0.1,0,0.1,0,0.2
						c0,0,0,0,0,0c0,0,0,0.1,0,0.2c0,0,0,0,0,0c0,0,0,0.1,0,0.1c0,0,0,0,0,0c0,0,0,0.1,0,0.1c0,0,0.1,0,0.1,0.1c0,0.1,0,0.2,0.1,0.2
						c0,0,0,0,0.1,0c0,0,0,0,0,0.1c0,0,0,0,0,0c0,0.4,0.1,0.8,0.2,1.2c0.1,0,0.1,0.1,0.2,0.1c0-0.1,0-0.2-0.1-0.4c0,0,0,0,0,0
						c0,0,0,0,0-0.1c0,0,0,0,0,0c-0.1-0.2,0-0.5,0.1-0.7c0.1,0,0.1,0,0.2,0c0,0.1,0.1,0.1,0.1,0.2c0,0.2,0,0.4,0,0.7c0,0,0,0,0.1,0
						c0,0.1,0,0.2,0.1,0.2c0,0,0.1,0,0.1,0.1c0,0,0,0.1,0,0.1c0,0,0,0,0,0c0,0,0,0.1,0,0.1c0,0,0,0,0,0c0,0,0,0.1,0,0.1
						c0,0,0.1,0,0.2,0c0,0,0,0,0,0c0,0,0.2,0.1,0.4,0.1c0-0.1,0.1-0.2,0.2-0.2c0,0,0-0.1,0-0.2c0,0,0,0,0.1,0
						c0.1-0.1,0.2-0.2,0.2-0.4c-0.1-0.1-0.1-0.1-0.1-0.2c0,0,0,0,0,0c0,0,0-0.1,0-0.2c0,0,0,0,0,0c0,0,0-0.1,0-0.1c0,0,0,0,0,0
						c0-0.2,0-0.4,0-0.6c0,0,0.1-0.1,0.1-0.1c0.1-0.1,0.3,0,0.4,0c0.1-0.1,0.2-0.2,0.3-0.3c0-0.2,0-0.8,0.1-1c0,0,0,0,0,0
						c0,0,0.1,0,0.2,0c0,0,0,0,0,0c0,0.2,0.1,0.2,0.1,0.3c0,0,0,0,0.1,0c0,0,0,0,0,0c0,0,0.1,0,0.1,0c0.1-0.1,0.2-0.2,0.3-0.4
						c0,0,0,0,0,0c0.1,0,0.1,0.1,0.2,0.2c0,0,0,0,0,0c0,0,0-0.1,0-0.1c0,0,0,0,0,0c0,0,0,0,0-0.1c0,0,0.1,0,0.2,0
						c0,0,0.1,0.1,0.1,0.1c0,0,0,0,0,0.1c0,0,0,0,0,0c0,0,0,0.1,0,0.1c0,0,0,0,0,0c0,0,0,0.1,0,0.1c0,0,0,0,0,0c0,0,0,0.1,0,0.2
						c0,0,0,0,0,0c0,0,0,0.1,0,0.2c0,0,0,0,0,0c0,0.2,0,0.3,0,0.5c0,0,0,0,0,0c0,0.1,0,0.2,0,0.2c0,0,0,0,0,0c0,0.1,0,0.2,0,0.3
						c0,0,0,0,0,0c0,0.1,0,0.2,0,0.3c0,0,0,0,0,0c0,0.1,0,0.2,0,0.3c0,0,0,0,0,0c0,0.1,0,0,0,0c0,0.2,0,0.4,0,0.6c0,0,0,0,0,0
						c0,0.1,0,0.2,0,0.2c0,0.1,0.1,0.2,0.1,0.4c0,0,0,0,0.1,0c0,0,0,0.1,0,0.1c0,0,0,0,0,0c0,0.1,0,0.3,0.1,0.4c0,0,0,0,0.1,0
						c0,0.1,0,0.3,0,0.4c0,0,0,0,0,0c0,0.1,0,0.1,0,0.2c0,0,0,0,0.1,0c0,0,0,0,0,0.1c0,0,0,0,0,0c0,0.1,0,0.2,0,0.3c0,0,0,0,0,0
						c0,0.1,0,0.1,0,0.2c0,0,0,0,0,0c0,0.2,0,0.3,0,0.5c0,0,0,0,0,0c0,0,0,0,0,0.1c0,0,0,0,0,0c0,0,0,0.1,0,0.2c0,0,0,0,0,0
						c0,0,0,0.1,0,0.1c0,0,0,0,0,0c0,0,0,0.1,0,0.2c0,0,0,0,0,0c0,0.2,0,0.5,0,0.7c0,0,0,0,0,0c0.1,0.3,0,0.7,0,1c0,0.2,0,0.3,0,0.4
						c0.1,0.2,0,0.7,0,1c0,0.3,0,0.6,0,0.9c0,0,0,0,0,0c0,0,0,0.1,0,0.1c0,0,0,0,0,0c0,0,0,0.1,0,0.1c0,0,0,0,0,0c0,0,0,0.1,0,0.1
						c0,0,0,0,0,0c0,0,0,0.1,0,0.1c0,0,0,0,0,0c0,0,0,0.1,0,0.1c0,0,0,0,0,0c0,0.1,0,0.4-0.1,0.4c0,0.1-0.1,0.2-0.2,0.2
						c-0.1-0.1-0.2-0.1-0.2-0.2c0-0.1,0-0.1,0-0.2c0,0,0,0,0,0c0,0,0,0,0,0c0,0,0,0,0,0c0,0,0-0.1,0-0.1c0,0,0,0,0,0
						c0,0,0-0.1,0-0.1c0,0,0,0,0,0c-0.1-0.1-0.3,0-0.4,0c0-0.2-0.1-0.5-0.3-0.5c-0.1,0.1-0.2,0.1-0.2,0.2c0,0,0,0.1,0,0.1
						c0,0,0,0-0.1,0c0,0,0,0,0,0c-0.1,0.1-0.1,0-0.2,0.2c-0.1,0.2,0,0.4,0,0.7c0,0,0,0,0,0c0,0.1,0.1,0.6,0.2,0.7c0,0,0,0,0,0
						c0,0,0,0.1,0,0.1c0,0,0,0,0,0c0,0,0,0.1,0,0.1c0,0,0,0,0,0c0,0,0,0.1,0,0.1c0,0,0,0,0,0c0,0.2,0,0.3,0.1,0.5c0,0,0,0,0,0
						c0,0.1,0,0.2,0,0.2c0,0,0,0,0,0c0,0.1,0,0.1,0,0.2c0,0,0,0,0,0c0,0.2,0.1,0.3,0.1,0.5c0,0-0.1,0-0.2,0c0-0.1-0.1-0.1-0.2-0.1
						c0-0.2-0.1-0.3-0.2-0.4c0,0,0,0,0,0c0,0,0-0.1,0-0.1c0,0,0,0,0,0c0-0.1,0-0.1,0-0.2c0,0,0,0,0,0c0,0,0-0.1,0-0.1c0,0,0,0-0.1,0
						c0,0,0-0.1,0-0.1c0,0-0.1-0.1-0.1-0.1c0,0,0-0.1,0-0.1c0,0,0,0-0.1,0c0-0.2-0.1-0.3-0.1-0.5c0,0-0.1-0.1-0.2-0.1
						c0-0.1-0.1-0.1-0.1-0.2c0,0,0,0-0.1,0c0-0.1,0-0.2-0.1-0.2c0,0,0,0,0,0c0,0,0-0.1,0-0.1c0,0,0,0,0,0c0-0.2,0-0.4,0-0.6
						c0,0,0,0,0,0c0,0,0-0.1,0-0.1c0,0-0.1-0.1-0.1-0.1c0,0,0-0.1,0-0.1c0,0,0,0-0.1,0c0-0.2,0-0.3,0-0.5c0-0.3-0.1-0.6-0.1-0.9
						c-0.1-0.1-0.2-0.1-0.2-0.2c0,0,0,0,0-0.1c0,0,0,0,0,0c0-0.1,0-0.3,0-0.4c0-0.3,0-0.6,0-0.9c0,0,0,0,0,0c0,0,0-0.1,0-0.1
						c0,0,0,0-0.1,0c0,0,0,0,0-0.1c0,0,0,0,0,0c0,0,0-0.1,0-0.2c0,0,0,0,0,0c0-0.3,0-0.7-0.1-1c0,0,0,0,0,0c0,0,0,0,0-0.1
						c0,0,0,0,0,0c0,0,0,0,0-0.1c0,0,0,0-0.1,0c0,0,0,0,0-0.1c0,0-0.1,0-0.1-0.1c0,0,0,0,0-0.1c0,0-0.1,0-0.1,0c0-0.1,0-0.2,0-0.3
						c0,0,0,0,0,0c0,0,0,0,0-0.1c0,0,0,0-0.1,0c0,0,0,0,0-0.1c0,0-0.1,0-0.1-0.1c0,0,0,0,0-0.1c-0.1-0.1-0.3-0.2-0.4-0.4
						c0,0,0,0,0-0.1c-0.1-0.1-0.1-0.1-0.2-0.2c0,0,0,0-0.1,0c0,0.1,0,0.2,0,0.2c0,0,0,0,0,0c-0.1,0-0.3,0-0.4,0.1c0,0,0,0,0,0
						c0,0-0.1,0-0.1,0c0,0,0,0,0,0c-0.1,0-0.1-0.1-0.2-0.1c0,0,0,0,0,0c-0.1,0.1-0.1,0.2-0.1,0.2c0.1,0.1,0.2,0.2,0.2,0.4
						c-0.1,0.1,0,0.1-0.2,0.1c-0.2,0.2-0.5-0.2-0.7-0.2c0,0,0,0,0,0.1c0,0-0.1,0-0.1,0c0,0,0,0,0,0.1c-0.1,0-0.1,0-0.2,0
						c-0.1-0.1-0.2-0.2-0.2-0.3c0,0-0.1,0-0.2,0c0,0,0,0,0-0.1c0,0,0,0-0.1,0c-0.1-0.1-0.1-0.2-0.2-0.2c0,0,0,0-0.1,0c0,0,0,0,0-0.1
						c0,0,0,0-0.1,0c0,0,0-0.1,0-0.2c0,0,0,0,0,0c0,0,0-0.1,0-0.2c0,0,0,0,0,0c-0.1-0.2,0-0.2-0.2-0.2c0,0,0,0,0,0
						c-0.1,0-0.1,0-0.2,0c0,0.1,0,0.1,0,0.2c-0.1,0-0.2,0-0.3,0.1c0,0,0,0.1,0,0.1c-0.1,0-0.2,0-0.2,0c0,0.1,0,0.1,0,0.2
						c0.1,0,0.1,0.1,0.1,0.2c0,0,0,0,0,0c-0.1,0.1-0.1,0.1-0.1,0.3c0.1,0.1,0.1,0.2,0.2,0.2c0,0,0.1,0,0.1,0.1
						c0.1,0.1,0,0.1,0.1,0.1c0,0.1,0,0.3,0,0.4c0,0,0,0,0,0c0,0.1,0,0.1,0,0.1c0,0.1,0,0.3,0,0.4c0,0,0,0,0,0c0,0,0,0.1,0,0.1
						c0,0,0,0,0,0c0,0.1,0,0.2-0.1,0.2c0,0,0,0,0,0c0,0,0,0.1,0,0.2c-0.1,0.1-0.2,0.1-0.2,0.2c0,0.2,0,0.4-0.1,0.6
						c-0.1,0-0.1,0-0.2,0.1c0-0.1,0-0.1-0.1-0.2c0,0,0,0-0.1,0c-0.1,0.1-0.2,0.2-0.2,0.4c0,0-0.1,0-0.1,0c0,0,0,0,0,0
						c-0.1-0.1,0-0.1-0.1-0.2c0,0,0,0,0,0c0,0,0-0.1,0-0.1c0,0,0,0,0,0c0,0,0,0,0,0c-0.1,0.1,0.1,0.2,0,0.4
						c-0.2,0.5-0.2,0.5-0.9,0.5c0-0.1,0-0.2,0.1-0.4c-0.1,0-0.2,0-0.3,0c0.1-0.2,0.2-0.2,0.2-0.5c0,0,0,0,0,0c-0.1,0-0.2,0-0.3,0.1
						c0,0,0,0,0,0c-0.1,0-0.2,0-0.2,0c0-0.1-0.1-0.1,0-0.2c0,0,0,0,0-0.1c0,0,0,0,0,0c0,0,0-0.1,0-0.1c0,0,0,0,0,0
						c0-0.1,0-0.2,0-0.3c0,0,0,0,0,0c0,0,0,0,0,0c-0.2,0.1-0.3,0.2-0.4,0.4c0,0,0.1,0,0.1,0c0.1,0.1,0.2,0.1,0.2,0.4
						c0,0.1,0.1,0.2,0.1,0.3c0,0,0,0,0,0c-0.1,0.1-0.1,0.1-0.2,0.1c0,0,0,0,0,0c0,0-0.1,0-0.1,0c0,0,0,0,0,0c0,0.1,0,0.2,0,0.2
						c-0.1,0-0.2,0-0.3,0c0-0.1-0.1-0.5-0.2-0.5c0,0,0,0,0,0.1c0,0,0,0,0,0c0,0,0,0.1,0,0.2c0,0,0,0,0,0c0,0.1,0,0.1,0.1,0.2
						c0,0,0,0,0,0c0,0.1,0,0.2,0,0.4c0,0-0.1,0.1-0.1,0.1c-0.1,0.1-0.3,0.1-0.5,0.1c0,0-0.1-0.1-0.1-0.1c0,0,0,0,0-0.1c0,0,0,0,0,0
						c0,0,0-0.1,0-0.1c0,0-0.2-0.1-0.1-0.2c0,0,0.1,0,0.1-0.1c0.1-0.1,0.1-0.2,0.1-0.4c-0.1,0-0.1-0.1-0.2-0.1c0-0.1,0-0.1,0-0.2
						c0,0,0,0,0,0c0-0.1,0-0.2,0-0.4c0,0,0,0,0,0c0-0.1,0-0.1,0-0.2c0,0,0,0-0.1,0c0,0.1,0,0.2,0,0.3c0,0,0,0,0,0c0,0.1,0,0.2,0,0.2
						c0,0,0,0,0,0c0.1,0.1,0.1,0.1,0.1,0.2c-0.1,0-0.2,0-0.2,0c0,0,0,0.1,0,0.2c0,0.3,0.2,0.6-0.2,0.7c0,0,0-0.1-0.1-0.1
						c0-0.1,0.1-0.3,0.1-0.5c0,0,0,0,0,0c0,0,0,0,0-0.1c0,0-0.1,0-0.1-0.1c0-0.2,0-0.4,0-0.6c0,0,0,0,0,0c0,0,0-0.1,0-0.2
						c0,0,0,0,0,0c-0.1,0.1-0.2,0.2-0.2,0.3c0,0.2,0,0.5,0.1,0.7c0,0,0,0,0,0c0,0,0,0,0,0.1c0,0,0,0,0,0c0,0.2,0,0.3,0,0.4
						c-0.1,0-0.2,0-0.2-0.1c0-0.1,0-0.2,0-0.4c0,0,0,0,0,0c0-0.1,0-0.2,0-0.2c-0.1,0-0.1-0.1-0.2-0.2c0,0.3-0.1,0.6-0.2,0.8
						c-0.1,0,0,0-0.1,0c-0.1,0-0.1-0.1-0.2-0.2c0-0.2,0-0.5,0-0.7c0,0,0,0,0,0c0-0.1,0-0.3,0-0.4c0-0.2,0-0.3,0-0.4c0,0,0,0,0,0
						c0,0,0,0,0-0.1c0,0,0,0,0,0c0-0.1,0-0.2-0.1-0.4c0,0,0,0,0,0c0,0,0,0,0-0.1c0,0,0,0,0,0c0-0.1,0-0.2,0-0.2c0,0,0,0,0,0
						c0,0,0,0,0-0.1c0,0,0,0,0,0c0,0,0-0.1,0-0.1c0,0,0,0,0,0c0-0.1,0-0.3,0-0.4c0-0.2,0-0.3-0.1-0.4c0-0.1,0-0.2,0-0.4
						c0-0.1-0.1-0.2-0.2-0.4c0,0,0,0,0,0c0,0,0,0,0-0.1c0,0,0,0,0,0c0.1-0.1,0.1-0.2,0.2-0.4c-0.1-0.1,0-0.1-0.1-0.2
						c-0.1-0.1-0.2-0.1-0.2-0.2c0,0,0,0,0-0.1c-0.1-0.2-0.2-0.2-0.2-0.5c0,0,0,0,0-0.1c0.1,0,0.2,0,0.2-0.1c0-0.2,0-0.2,0-0.4
						c0,0,0.1-0.1,0.1-0.1c0,0,0,0,0.1,0c0,0,0,0,0-0.1c0.1-0.1,0.1,0.1,0.2-0.1c-0.1-0.1-0.1-0.1-0.4-0.1c-0.1,0.1-0.1,0.1-0.2,0.2
						c-0.1,0-0.6-0.2-0.7-0.3c0,0,0-0.1,0-0.1c0.1,0,0.1,0,0.2,0c0-0.1,0-0.1,0-0.2c-0.1-0.1-0.1-0.2,0-0.3c0,0,0,0,0-0.1
						c0,0,0,0,0,0c0,0,0,0,0-0.1c0,0,0,0,0.1,0c0,0,0-0.1,0-0.1c0,0,0,0,0.1,0c0-0.1,0.1-0.1,0.1-0.2c0,0-0.1-0.1-0.1-0.1
						c-0.1,0-0.1,0-0.2,0c0,0,0,0,0,0c0,0,0,0-0.1,0c0,0,0,0,0,0c-0.1,0-0.2,0-0.2,0c-0.1-0.1-0.3-0.5-0.3-0.7
						c0.1-0.1,0.1-0.2,0.2-0.2c0-0.2-0.1-0.2-0.2-0.4c0,0,0,0,0-0.1c0.2,0,0.4-0.1,0.6-0.1c0-0.1,0-0.3,0-0.4c0,0,0,0,0,0
						c0,0,0,0,0-0.1c0,0,0,0,0,0c0-0.1,0-0.2,0-0.3c-0.1-0.1-0.2-0.1-0.2-0.4c0,0,0,0,0,0c0,0,0,0,0,0c0.1,0,0.2,0,0.2,0
						c0,0,0,0,0,0c0,0,0,0,0-0.1c0-0.1-0.1-0.3-0.1-0.4c-0.1-0.1-0.2-0.1-0.2-0.2c-0.2,0-0.4,0-0.6,0c0,0,0,0,0,0
						c-0.1,0-0.2,0-0.3,0c0,0,0,0,0,0c0,0-0.1,0-0.1,0c-0.1-0.1-0.2-0.2-0.4-0.3c0,0,0,0,0-0.1c0,0-0.1,0-0.1-0.1c0,0,0,0,0,0
						c0,0-0.1,0-0.1,0c0,0,0,0,0,0c0,0,0,0-0.1,0c0,0,0,0,0,0c0,0-0.1,0-0.1,0c0,0,0,0,0,0c-0.1,0-0.2,0-0.2-0.1c0,0,0,0,0,0
						c0,0,0,0-0.1,0c0-0.1-0.1-0.1-0.2-0.2c0,0,0,0-0.1,0c0,0,0,0,0-0.1c0,0,0,0,0,0c0,0,0,0,0-0.1c0,0,0,0,0,0c0,0,0-0.1,0-0.1
						c0,0,0,0-0.1,0c0,0,0,0,0-0.1c0,0,0,0,0,0c0-0.1,0-0.5,0-0.5c0,0,0,0,0,0c0.1-0.3,0.5-0.1,0.5-0.6c-0.2-0.1,0-0.4,0.2-0.4
						c0,0.1,0.1,0.3,0.1,0.4c0,0,0,0,0.1,0c0.1-0.2,0.1-0.2,0.2-0.3c0,0,0,0,0-0.1c0,0,0,0,0.1,0c0,0,0,0,0,0
						c0.2-0.1,0.2,0.1,0.3-0.2c0.1-0.1,0,0,0-0.1c0,0,0,0,0,0c0,0,0,0,0-0.1c0,0,0,0,0,0c0.1-0.2-0.1-0.4-0.2-0.6
						c0.2-0.1,0.5-0.1,0.9-0.1c0,0,0,0,0,0c0,0,0,0,0.1,0c0,0,0,0,0,0.1c0,0,0,0,0.1,0c0,0,0,0,0,0c0.2,0,0.4,0,0.5,0
						c0.2,0.1,0.4,0.1,0.6,0c0-0.1,0-0.2,0-0.3c0.1,0,0.2,0,0.2,0c0,0,0-0.1,0-0.1c0,0,0,0,0,0c0,0,0,0,0,0c-0.1,0-0.2,0-0.3,0
						c0,0,0,0,0-0.1c0,0,0,0-0.1,0c0,0-0.1-0.1-0.1-0.2c0,0-0.2,0-0.2-0.1c0,0,0,0,0-0.1c0,0,0,0,0,0c0,0,0-0.1,0-0.1
						c0.1,0,0.1-0.1,0.2-0.1c0-0.1,0-0.2-0.1-0.3c0,0-0.1-0.1-0.2-0.1c0,0,0,0,0,0c0,0-0.1,0-0.2,0c0,0,0,0,0,0c0,0-0.2,0.1-0.2,0.1
						c0,0,0,0,0,0c0,0-0.1,0-0.1-0.1c0,0,0,0,0,0c0,0,0,0-0.1,0c0,0,0,0,0-0.1c0,0,0,0-0.1,0c0,0,0,0,0-0.1c0,0-0.1,0-0.2,0
						c0,0,0,0,0,0c-0.1,0-0.2,0-0.2-0.1c0,0,0,0,0,0c0,0,0,0-0.1,0c0-0.1-0.1-0.1-0.2-0.2c0,0-0.1,0-0.1-0.1c0,0,0,0,0-0.1
						c0,0,0,0,0,0c0-0.1,0-0.1,0-0.2c0,0,0,0,0,0c-0.1-0.1-0.1-0.2-0.2-0.2c0-0.1,0-0.2-0.2-0.2c-0.1-0.1-0.3,0.1-0.4,0c0,0,0,0,0,0
						c-0.1,0-0.1,0-0.2,0c0-0.1,0-0.2,0-0.4c-0.1-0.1,0-0.4,0-0.5c0.1,0,0.2-0.1,0.2-0.2c-0.1,0-0.1,0-0.1-0.2
						c0.1,0,0.2-0.1,0.2-0.2c0-0.1,0-0.1,0-0.2c0,0,0,0,0,0c0,0,0,0,0-0.1c0.1-0.1,0.2,0,0.3-0.1c0.1-0.1,0.2-0.2,0.2-0.3
						c0,0,0-0.1,0-0.1c0,0,0,0,0,0c0,0,0-0.1,0-0.2c0.1-0.1,0.4-0.1,0.6-0.1c0,0,0,0,0,0c0,0,0.1,0,0.2,0c0,0,0-0.1,0-0.2
						c0,0-0.1,0-0.2,0c0-0.1,0-0.2,0-0.3c-0.1,0-0.4-0.1-0.4-0.1c0,0,0,0,0,0c-0.1,0-0.1,0-0.2,0c0-0.1,0-0.2,0-0.3c0,0,0,0,0.1,0
						c0-0.1,0-0.2,0-0.2c0,0,0,0,0,0C223.7,40.7,223.7,40.6,224,40.6z"/>
				</g>
			</g>
			<g>
				<path class="st1" d="M274.2,66.5c1-0.2,2.3-0.2,3.6-0.2c2.2,0,3.7,0.4,4.8,1.3c1.2,0.9,2,2.4,2,4.4c0,2.3-0.8,3.8-2,4.8
					c-1.2,1-3.1,1.5-5.4,1.5c-1.4,0-2.4-0.1-3-0.2L274.2,66.5L274.2,66.5z M276.8,76.2c0.2,0.1,0.6,0.1,0.9,0.1c2.4,0,4-1.3,4-4.1
					c0-2.4-1.4-3.8-3.7-3.8c-0.6,0-1,0.1-1.2,0.1V76.2z"/>
				<path class="st1" d="M288.6,66.4v11.8h-2.7V66.4H288.6z"/>
				<path class="st1" d="M293.2,78.2l-3.8-11.8h2.9l1.4,5c0.4,1.4,0.8,2.8,1,4.2h0c0.3-1.4,0.7-2.8,1.1-4.2l1.5-5h2.8l-4,11.8H293.2
					z"/>
				<path class="st1" d="M303.8,66.4v11.8h-2.7V66.4H303.8z"/>
				<path class="st1" d="M305.7,75.4c0.7,0.4,1.8,0.7,3,0.7c1.2,0,1.9-0.5,1.9-1.3c0-0.7-0.6-1.2-2-1.7c-2-0.7-3.2-1.8-3.2-3.5
					c0-2,1.7-3.6,4.5-3.6c1.3,0,2.3,0.3,3,0.6l-0.6,2.2c-0.5-0.2-1.3-0.6-2.5-0.6s-1.7,0.5-1.7,1.1c0,0.8,0.7,1.1,2.2,1.7
					c2.1,0.8,3.1,1.9,3.1,3.5c0,2-1.5,3.7-4.8,3.7c-1.4,0-2.7-0.3-3.3-0.7L305.7,75.4z"/>
				<path class="st1" d="M317.3,66.4v11.8h-2.7V66.4H317.3z"/>
				<path class="st1" d="M330,72.1c0,3.9-2.4,6.2-5.8,6.2c-3.5,0-5.5-2.6-5.5-6c0-3.5,2.3-6.2,5.7-6.2C328,66.2,330,68.9,330,72.1z
					 M321.4,72.3c0,2.3,1.1,3.9,2.9,3.9c1.8,0,2.8-1.7,2.8-4c0-2.1-1-3.9-2.9-3.9C322.5,68.3,321.4,70,321.4,72.3z"/>
				<path class="st1" d="M331.3,78.2V66.4h3.1l2.5,4.3c0.7,1.2,1.4,2.7,1.9,4h0c-0.2-1.6-0.2-3.2-0.2-4.9v-3.4h2.5v11.8h-2.8
					l-2.5-4.6c-0.7-1.3-1.5-2.8-2-4.2l0,0c0.1,1.6,0.1,3.2,0.1,5.2v3.6L331.3,78.2L331.3,78.2z"/>
			</g>
			<g>
				<rect x="274.2" y="26.2" class="st1" width="7.8" height="34.9"/>
				<polygon class="st1" points="341,26.2 314.3,26.2 314.3,32.8 323.7,32.8 323.7,61 331.5,61 331.5,32.8 341,32.8 				"/>
				<path class="st1" d="M285.1,44.3c0,7.7,4.5,16.8,18.5,16.8c4.2,0,7.4-1,7.4-1v-6.5c0,0-2.5,1.1-6.2,1.1
					c-6.8,0-11.5-3.5-11.5-11.1s5-11.2,11-11.2c4,0,6.7,1.3,6.7,1.3v-6.8c0,0-2.1-0.7-6.9-0.7C295.1,26.2,285.1,31.3,285.1,44.3z"/>
			</g>
		</g>
		<g>
			<g>
				<path class="st4" d="M204.9,93.3h4.3v0.9H206v1.6h2.8v0.9H206v2.8h-1.1V93.3z"/>
				<path class="st4" d="M215.1,93.3h1.1v3.6c0,0.2,0,0.4,0,0.6s0.1,0.4,0.2,0.6c0.1,0.2,0.2,0.3,0.4,0.4s0.5,0.2,0.8,0.2
					s0.6-0.1,0.8-0.2s0.3-0.2,0.4-0.4c0.1-0.2,0.1-0.4,0.2-0.6c0-0.2,0-0.4,0-0.6v-3.6h1.1v4c0,0.4-0.1,0.8-0.2,1s-0.3,0.5-0.5,0.7
					c-0.2,0.2-0.5,0.3-0.8,0.4s-0.7,0.2-1,0.2s-0.7-0.1-1-0.2s-0.6-0.2-0.8-0.4s-0.4-0.4-0.5-0.7c-0.1-0.3-0.2-0.6-0.2-1L215.1,93.3
					L215.1,93.3z"/>
				<path class="st4" d="M225.9,93.3h5v0.9h-2v5.2h-1.1v-5.2h-2L225.9,93.3L225.9,93.3z"/>
				<path class="st4" d="M236.7,93.3h1.1v3.6c0,0.2,0,0.4,0,0.6s0.1,0.4,0.2,0.6c0.1,0.2,0.2,0.3,0.4,0.4s0.5,0.2,0.8,0.2
					s0.6-0.1,0.8-0.2s0.3-0.2,0.4-0.4c0.1-0.2,0.1-0.4,0.2-0.6c0-0.2,0-0.4,0-0.6v-3.6h1.1v4c0,0.4-0.1,0.8-0.2,1s-0.3,0.5-0.5,0.7
					c-0.2,0.2-0.5,0.3-0.8,0.4s-0.7,0.2-1,0.2s-0.7-0.1-1-0.2s-0.6-0.2-0.8-0.4s-0.4-0.4-0.5-0.7c-0.1-0.3-0.2-0.6-0.2-1L236.7,93.3
					L236.7,93.3z"/>
				<path class="st4" d="M248.2,93.3h3c0.7,0,1.2,0.2,1.5,0.4c0.3,0.3,0.5,0.7,0.5,1.2c0,0.3,0,0.5-0.1,0.7s-0.2,0.3-0.3,0.5
					c-0.1,0.1-0.2,0.2-0.3,0.3c-0.1,0.1-0.2,0.1-0.2,0.1v0c0.1,0,0.2,0,0.3,0.1c0.1,0.1,0.2,0.1,0.3,0.2s0.2,0.2,0.2,0.4
					c0.1,0.2,0.1,0.4,0.1,0.6c0,0.4,0,0.7,0.1,1c0,0.3,0.1,0.5,0.3,0.6h-1.2c-0.1-0.1-0.1-0.3-0.1-0.4c0-0.2,0-0.3,0-0.5
					c0-0.3,0-0.5,0-0.7c0-0.2-0.1-0.4-0.2-0.5c-0.1-0.1-0.2-0.2-0.4-0.3c-0.2-0.1-0.4-0.1-0.6-0.1h-1.6v2.6h-1.1L248.2,93.3
					L248.2,93.3z M249.2,96.2h1.8c0.4,0,0.6-0.1,0.8-0.2c0.2-0.2,0.3-0.4,0.3-0.7c0-0.2,0-0.4-0.1-0.5s-0.1-0.2-0.2-0.3
					c-0.1-0.1-0.2-0.1-0.4-0.1s-0.3,0-0.4,0h-1.8V96.2z"/>
				<path class="st4" d="M259.4,93.3h4.5v0.9h-3.4v1.6h3.1v0.9h-3.1v1.8h3.4v0.9h-4.5V93.3z"/>
				<path class="st4" d="M277.5,93.3h1.1v6.2h-1.1V93.3z"/>
				<path class="st4" d="M285.7,97.5c0,0.2,0,0.4,0.1,0.6s0.2,0.3,0.3,0.4c0.1,0.1,0.3,0.2,0.5,0.2s0.4,0.1,0.6,0.1
					c0.2,0,0.4,0,0.6-0.1c0.2-0.1,0.3-0.1,0.4-0.2c0.1-0.1,0.2-0.2,0.2-0.3c0-0.1,0.1-0.2,0.1-0.3c0-0.2,0-0.4-0.2-0.5
					c-0.1-0.1-0.2-0.2-0.4-0.2c-0.2-0.1-0.5-0.2-0.8-0.2c-0.3-0.1-0.6-0.2-1.1-0.3c-0.3-0.1-0.5-0.2-0.7-0.3
					c-0.2-0.1-0.3-0.2-0.4-0.4s-0.2-0.3-0.2-0.4c0-0.2-0.1-0.3-0.1-0.5c0-0.3,0.1-0.6,0.2-0.8c0.1-0.2,0.3-0.4,0.5-0.6
					c0.2-0.2,0.5-0.3,0.7-0.3c0.3-0.1,0.5-0.1,0.8-0.1c0.3,0,0.6,0,0.9,0.1c0.3,0.1,0.5,0.2,0.8,0.4c0.2,0.2,0.4,0.4,0.5,0.6
					c0.1,0.2,0.2,0.5,0.2,0.8h-1.1c0-0.4-0.2-0.7-0.4-0.8c-0.2-0.2-0.5-0.2-0.9-0.2c-0.1,0-0.3,0-0.4,0s-0.2,0.1-0.4,0.1
					s-0.2,0.1-0.3,0.2c-0.1,0.1-0.1,0.2-0.1,0.4c0,0.2,0.1,0.4,0.2,0.5c0.1,0.1,0.3,0.2,0.5,0.3c0,0,0.1,0,0.3,0.1s0.3,0.1,0.5,0.1
					c0.2,0.1,0.4,0.1,0.6,0.2c0.2,0.1,0.3,0.1,0.4,0.1c0.2,0.1,0.4,0.2,0.5,0.3s0.3,0.2,0.4,0.4s0.2,0.3,0.2,0.5
					c0,0.2,0.1,0.3,0.1,0.5c0,0.3-0.1,0.6-0.2,0.9c-0.1,0.2-0.3,0.4-0.6,0.6c-0.2,0.2-0.5,0.3-0.8,0.3c-0.3,0.1-0.6,0.1-0.9,0.1
					c-0.4,0-0.7,0-1-0.1s-0.6-0.2-0.8-0.4c-0.2-0.2-0.4-0.4-0.5-0.7c-0.1-0.3-0.2-0.6-0.2-1L285.7,97.5L285.7,97.5z"/>
				<path class="st4" d="M303.2,93.3h1.1v2.5h2.8v-2.5h1.1v6.2h-1.1v-2.8h-2.8v2.8h-1.1V93.3z"/>
				<path class="st4" d="M314.6,93.3h4.5v0.9h-3.4v1.6h3.1v0.9h-3.1v1.8h3.4v0.9h-4.5V93.3z"/>
				<path class="st4" d="M325.2,93.3h3c0.7,0,1.2,0.2,1.5,0.4c0.3,0.3,0.5,0.7,0.5,1.2c0,0.3,0,0.5-0.1,0.7s-0.2,0.3-0.3,0.5
					c-0.1,0.1-0.2,0.2-0.3,0.3c-0.1,0.1-0.2,0.1-0.2,0.1v0c0.1,0,0.2,0,0.3,0.1c0.1,0.1,0.2,0.1,0.3,0.2s0.2,0.2,0.2,0.4
					c0.1,0.2,0.1,0.4,0.1,0.6c0,0.4,0,0.7,0.1,1c0,0.3,0.1,0.5,0.3,0.6h-1.2c-0.1-0.1-0.1-0.3-0.1-0.4c0-0.2,0-0.3,0-0.5
					c0-0.3,0-0.5,0-0.7c0-0.2-0.1-0.4-0.2-0.5c-0.1-0.1-0.2-0.2-0.4-0.3c-0.2-0.1-0.4-0.1-0.6-0.1h-1.6v2.6h-1.1L325.2,93.3
					L325.2,93.3z M326.3,96.2h1.8c0.4,0,0.6-0.1,0.8-0.2c0.2-0.2,0.3-0.4,0.3-0.7c0-0.2,0-0.4-0.1-0.5s-0.1-0.2-0.2-0.3
					c-0.1-0.1-0.2-0.1-0.4-0.1s-0.3,0-0.4,0h-1.8V96.2z"/>
				<path class="st4" d="M336.4,93.3h4.5v0.9h-3.4v1.6h3.1v0.9h-3.1v1.8h3.4v0.9h-4.5V93.3z"/>
			</g>
		</g>
	</g>
	<g>
		<path class="st0" d="M55.7,64.3c0,12.3-10.1,22.2-22.6,22.2c-12.5,0-22.6-9.9-22.6-22.2s10.1-22.2,22.6-22.2
			C45.6,42.1,55.7,52.1,55.7,64.3L55.7,64.3z"/>
		<path class="st1" d="M66.7,64.6L66.7,64.6L66.7,64.6c0,8.9-3.7,17-9.7,22.9c-6,5.8-14.2,9.5-23.4,9.5l0,0l0,0l0,0l0,0
			c-9.1,0-17.4-3.6-23.4-9.5c-6-5.8-9.7-13.9-9.7-22.8l0,0l0,0l0,0l0,0c0-8.9,3.7-17,9.7-22.8s14.2-9.5,23.4-9.5l0,0l0,0l0,0l0,0
			c9.1,0,17.4,3.6,23.4,9.5C63,47.6,66.7,55.7,66.7,64.6L66.7,64.6L66.7,64.6L66.7,64.6z M65.8,64.6L65.8,64.6L65.8,64.6L65.8,64.6
			L65.8,64.6c0-8.7-3.6-16.5-9.4-22.2c-5.8-5.7-13.9-9.2-22.8-9.2l0,0l0,0l0,0l0,0c-8.9,0-16.9,3.5-22.8,9.2
			c-5.8,5.7-9.4,13.5-9.4,22.2l0,0l0,0l0,0l0,0c0,8.7,3.6,16.5,9.4,22.2c5.8,5.7,13.9,9.2,22.8,9.2l0,0l0,0l0,0l0,0
			c8.9,0,16.9-3.5,22.8-9.2C62.2,81.2,65.8,73.3,65.8,64.6L65.8,64.6z"/>
		<polygon class="st0" points="9.3,76.8 7.7,75.8 6,76.7 6.5,75 5,73.7 6.9,73.7 7.4,71.8 8.3,73.8 10,73.9 8.8,74.9 		"/>
		<polygon class="st0" points="14.5,83.2 12.9,82.9 11.8,84.8 11.3,82.8 9.5,82.6 11.2,81.6 10.9,79.7 12.5,81.1 14,80.1 13.3,81.7 
					"/>
		<polygon class="st0" points="60.5,75.9 59.1,74.4 56.7,75.4 57.8,73.4 56.3,71.7 58.6,71.9 59.6,70.1 59.9,72.1 62.3,72.5 
			60.3,73.7 		"/>
		<polygon class="st0" points="56,83.9 54.4,82.2 52.3,82.7 53.6,81.1 52.4,79.4 54.5,80 55.7,78.2 56.1,80.5 58.1,80.6 55.8,81.7 
					"/>
		<g>
			<path class="st2" d="M28.3,92.6l-0.9-0.5C27.2,92,27,92,26.9,92.2s0,0.4,0.1,0.5l0.9,0.5c0.2,0.1,0.4,0.1,0.5-0.1
				C28.5,92.9,28.4,92.7,28.3,92.6z"/>
			<path class="st2" d="M48.3,85.6c0.8-0.7,0.1-1.1,0.1-1.1C38.5,91.3,28,88.3,28,88.3c-2.8,0-8.9-3.8-8.9-3.8
				C18,85.1,20,86.2,20,86.2c0.6,0.1,0.4,1.4,0.4,1.4c-1.2,0.9-1.6-0.3-1.6-0.3c0.1-0.4-0.2-0.3-0.2-0.3c-0.6,1.3,0.6,1.9,0.6,1.9
				c0.1,0.2,2.5-0.2,2.5-0.2c1.7-0.7,1.4,1.6,1.4,1.6c-0.6,1,0.4,1.1,0.4,1.1c0.1-0.1,1.1-2.4,1.1-2.4c0.2-1.2,1.2-0.6,1.2-0.6
				c0.9,0.4,3.3,0.9,3.3,0.9c1.4,0,0.9,0.5,0.9,0.5c0,0.1-4.1,0.1-4.1,0.1C25,90.7,25.9,91,25.9,91c1.7-0.1,3.6,1.4,3.6,1.4
				c0.4,0.6,1.1,0.6,1.1,0.6c0.1-0.4,0.4-2,0.4-2c0-1.4,0.9-1.3,0.9-1.3c0.8,0.3,4.1,0.1,4.1,0.1c1.1-0.3,0.4,0.4,0.4,0.4l-2.4,0.6
				c-1.4,0.3-1.1,0.6-1.1,0.6c-0.3,0.9,0.9,0.8,0.9,0.8c2.8-0.7,3.8,0.7,3.8,0.7c0.3,0.5,0.9-0.1,0.9-0.1c-0.1-0.1-0.2-2.2-0.2-2.2
				l0.9,0c1.4-0.2,0.6,0.5,0.6,0.5c-0.6,0-0.6,0.6-0.6,0.6c0.3,0.7,1.5-0.3,1.5-0.3c1.2-1.5-2.2-1.9-2.2-1.9l2-0.5c0.5-0.4,1,0,1,0
				l0.8,2.3c0.2,1.2,1.2,0.6,1.2,0.6l-0.7-2c-0.4-1.6,0.1-1.5,0.1-1.5l3.1-1.4c1.4-1.2,1.5-0.4,1.5-0.4l-2.4,1.9
				c-1.6,1.1-0.1,1.6-0.1,1.6c2.5-2.3,5.1-1.3,5.1-1.3C50.1,88.3,48.3,85.6,48.3,85.6z M23.6,88.7c-0.4,0.1-0.7-0.4-0.7-0.4
				c0-0.8-1.9-0.7-1.9-0.7c-0.2-0.7,0.1-0.8,0.1-0.8c0.7-0.5,2.7,1.2,2.7,1.2L23.6,88.7z M30,91.8c0,0-0.7,0-1.4-0.8
				c0,0-0.3-0.7,1-0.3C29.6,90.7,30.6,90.8,30,91.8z M37,91.8l-0.4-0.2c-1.2-0.1,0-0.8,0-0.8C37.3,90.7,37,91.8,37,91.8z M47.8,88.1
				c0,0-1,0.2-0.3-0.6c0,0,0.2-0.4,0.8-0.2C48.3,87.3,48.7,88.1,47.8,88.1z"/>
		</g>
		<path class="st2" d="M48.2,89.9c0,0,0.6-0.9-1.1-0.4c0,0-1.2,1,0.3,0.9C47.4,90.4,47.9,89.9,48.2,89.9L48.2,89.9z"/>
		<g>
			<path class="st2" d="M6.8,57.3c-0.8-0.1-0.7-0.7-0.7-0.7c-0.4-0.2-0.6,1-0.6,1c0.6,0.2,0.2,0.8,0.2,0.8c-0.8,0.6-0.9,2.7-0.9,2.7
				C5.1,63.7,6.3,63,6.3,63c0.7-0.1,0.1-1.8,0.1-1.8c0.3-2.7,0.8,0.2,0.8,0.2c0.2,1.2,1,0.2,1,0.2c-0.1-1.1-0.9-2.3-0.9-2.3
				c-0.5-1-1.4,0.5-1.4,0.5c0.2,1.7-0.4,1.1-0.4,1.1c-0.6-1.7,0.7-2.6,0.7-2.6c0.7-0.5,2.3,0.1,2.3,0.1c0.9,0.1,0.5-0.6,0.5-0.6
				L6.8,57.3z"/>
			<path class="st2" d="M9.5,51.4c-1.1-0.1-0.9-1.1-0.9-1.1c-0.5-0.4-0.9,1.1-0.9,1.1c0.8,0.3,0.1,0.8,0.1,0.8
				c-0.9,0.3-1.3,1.5-1.3,1.5c-0.5,3.1,1.9,2.7,1.9,2.7c1.5-1,0.8-2.5,0.8-2.5c-0.2-0.8-0.9,0.2-0.9,0.2c0.5,1.5-0.4,1.7-0.4,1.7
				C6.4,54.7,8,52.7,8,52.7c0.8-1.1,2.7,0.2,2.7,0.2c0.7,0.4,0.7-0.5,0.7-0.5L9.5,51.4z"/>
			<path class="st2" d="M36.9,35.2C35.2,33,33,33.8,33,33.8c-2,0.2-1,1-1,1c1.2-0.4,3-0.4,3-0.4c1.7,0.5,0.6,1.1,0.6,1.1
				c-0.9-0.3-5.9,0.1-5.9,0.1C23.9,36.3,18,39.8,18,39.8c-1.7,0.7-5.6,4.7-5.6,4.7l0.4,0.7c-0.2,0.4-1.2,0.5-1.2,0.5
				C10.1,46,10,48.1,10,48.1c-0.4,1.4,0.8,0.5,0.8,0.5c0.5-1,0.7-0.1,0.7-0.1c0.2,0.6,0.9,0,0.9,0c0.2,0.1,0.4-1.5,0.4-1.5
				c0.1-2.1,0.8-1.3,0.8-1.3c1.1,0.5,0.7,1.2,0.7,1.2c-0.9-0.1-1.1,1.5-1.1,1.5c0.2,0.9-0.8,1.6-0.8,1.6c-1.2-0.1-0.9,0.3-0.9,0.3
				c2.4,0.4,2.7-1.7,2.7-1.7c-0.2-1.1,0.6-1.5,0.6-1.5c0.7,0.1,0.8-0.4,0.8-0.4c0.5-0.1-1.1-1.6-1.1-1.6c-1.7-1.2-0.7-1.5-0.7-1.5
				c0.6-0.3,1.1-1,1.1-1c0.7-1,0.8,0,0.8,0c0.1,1,1.6,0.8,1.6,0.8c0.5,0,0.9-1,0.9-1c-0.1-0.6,0.4-0.4,0.4-0.4
				c0.3,1.2-1.1,1.8-1.1,1.8c-0.7,0.8-2.7,0-2.7,0l0,0.4c2,1.2,3.3,0,3.3,0c1.1-0.2,1.5-2.1,1.5-2.1c-0.4-0.8-1.9-0.5-1.9-0.5
				c0.1,0.2-0.9,1.5-0.9,1.5c-1-0.8,0.8-2.4,0.8-2.4c0.1,0.4,1.5,0.3,1.5,0.3c1.2-0.7,0.8,0,0.8,0c0.2,0.1,0.3,1.2,0.3,1.2
				c0.4,0.8,0.7,0.3,0.7,0.3c-0.4-0.5,0.2-2.5,0.2-2.5l-0.8-0.4l-1,0.8c-1.5,0.1-0.7-0.4-0.7-0.4c0.2-0.3,2-1.2,2-1.2
				c1-0.9,1.5,1.2,1.5,1.2c0.3,0.7,1,1.5,1,1.5l0.4-0.5L23,39.7c-1.2-2,0-1.7,0-1.7c0.3-0.5,2.6-0.9,2.6-0.9c1-0.3-0.3,0.7-0.3,0.7
				c0,0.8,0.8,0.7,0.8,0.7c0.3-0.5,1.2-0.8,1.2-0.8c1.9-0.2,0.1,1.3,0.1,1.3c-2,1.3-3.4-0.2-3.4-0.2c-0.6-0.5-0.7,0-0.7,0
				c0.3,0.5,2.3,1.4,2.3,1.4c1,0.3,2.3-0.4,2.3-0.4c2.1-1.8,0-2.7,0-2.7c-1.6-0.3,0-0.6,0-0.6c1.6-0.6,5.3-0.5,5.3-0.5
				c0.4,1.4-0.6,1-0.6,1c-0.6-0.8-2.2-0.3-2.2-0.3c-1.6,0.8,0.1,1,0.1,1c0.4-0.6,0.9-0.5,0.9-0.5c1.6-0.4,0.4,0.6,0.4,0.6
				c-0.6,0.8,1.1,0.3,1.1,0.3c0-0.6,0.9-0.5,0.9-0.5c1-0.1,0.3,1.5,0.3,1.5c-0.4-0.4-2.8,0.2-2.8,0.2c-1.2-1.2-0.9,0-0.9,0
				c0.7,1.1,2,0.7,2,0.7c1.3-0.9,1.6-0.2,1.6-0.2c0.4,0.4,0.7,0.2,0.7,0.2l0.2-1.5c0.3-0.5-0.8-1.4-0.8-1.4c0-1.4,1.2-0.9,1.2-0.9
				c1.2-0.5,0.5,2.3,0.5,2.3c-0.2,1.4,0.6,1.1,0.6,1.1c0.2-0.4,0.3-2.5,0.3-2.5c-0.4-1,0.6-0.8,0.6-0.8l0-0.6
				C37.3,35.8,36.9,35.2,36.9,35.2z M11.6,47.7c0,0-1.1,0.4-0.4-1c0,0,0.1-0.8,1-0.6C12.2,46,12.5,47.2,11.6,47.7z"/>
			<path class="st2" d="M46.5,38.7c0,0,0.5-0.4-1.6-1.2c0,0-3.8-1.3-5.2-1.6c0,0-1.2,0.4,0.6,0.8c0,0,2.2,0.4,2.8,1h-3.8
				c0,0-1,0.8,0.4,1.2c0,0,2.2,0,2.6,1.6c0,0,0.7,1,1-0.5c0,0,0.7-1.8,1-2c0,0,1.4-0.1,0.4,1.7L44,41c0,0,0.2,0.8,0.7,0.5
				c0,0,0.9-1.6,1-2.2C45.6,39.3,46,38.8,46.5,38.7z M42.4,39.6c-1.3-0.7-0.6-0.9-0.6-0.9h0.9C42.9,39,42.4,39.6,42.4,39.6z"/>
			<path class="st2" d="M45.7,41.8c0.3-0.1,2.2,2,2.2,2c0.2-0.4-1.2-2.2-1.2-2.2C46.1,40.8,45.7,41.8,45.7,41.8z"/>
			<path class="st2" d="M49.8,40.6c0.4-1.6-2.2-1.5-2.2-1.5C46,39.8,46.9,41,46.9,41C49.1,42.4,49.8,40.6,49.8,40.6z M48.7,40.6
				c0,0-1.5,0.6-1.6-0.4c0,0,0.6-0.7,1.3-0.4C48.5,39.8,49.8,40.2,48.7,40.6z"/>
			<path class="st2" d="M62.7,61.2c-0.3,0.2-0.9-0.4-0.9-0.4c0.4,0,0.6-0.5,0.6-0.5c0.3-0.6-0.1-1.4-0.1-1.4c-0.4,0-0.8-0.8-0.8-0.8
				c0.4-0.9,0.4-1.3,0.4-1.3c0-1.8-2.4-6.2-2.4-6.2c-0.3-1.5-4.4-6.1-4.4-6.1c-0.3-0.6-4.1-3.7-4.1-3.7c-1,0.1,0.9,1.6,0.9,1.6
				c0.5,0.1,2.6,2.3,2.6,2.3c0.4,1.1-0.5,0.7-0.5,0.7c0.3-1.3-1.6-1.4-1.6-1.4c-0.4-1.7-1.5-1.6-1.5-1.6c-2.4-0.5-1.7,1.5-1.7,1.5
				c0.9,1.2,1.8,1.1,1.8,1.1l0.1-0.7c-0.6-0.1-1.3-1.1-1.3-1.1c0.9-0.5,1.5,0.3,1.5,0.3c0.9,0,0.7,1.4,0.7,1.4l0.6,0.2
				c1.9-0.2,0.6,1.4,0.6,1.4c-1.4,0.9-0.3,1.2-0.3,1.2l1.3-1.1c1.3-1.9,1.7-0.1,1.7-0.1c0,0.4-1.6,1.2-1.6,1.2
				c-0.9,0.8-0.5,1.4-0.5,1.4l1.5-1.1c0.9-1,1.6-0.7,1.6-0.7c1.3,1,0.3,1.2,0.3,1.2c-1.1-0.1-1.9,0.6-1.9,0.6
				c-1,1.4,0.6,2.4,0.6,2.4c0.3,0,0.4-0.6,0.4-0.6c-0.5,0-0.8-1-0.8-1c0.7-1.4,2.7-0.3,2.7-0.3c1.4,0.4,0.4,1.1,0.4,1.1
				c-0.1,0-1.6,0.9-1.6,0.9c-0.3,0.9,1.1,1.4,1.1,1.4c1.2,0.6,1.2,1,1.2,1c-1.7,0.1-1.7,0.6-1.7,0.6c0.7-0.3,1.4,0.1,1.4,0.1
				c0.1,0.2,0.9,0.3,0.9,0.3l0.4-0.9l-1.5-1.6c-1-0.6-0.3-0.8-0.3-0.8c0.7-0.9,1.1-0.2,1.1-0.2c0.2,0,1.9,4.7,1.9,4.7
				c0.2,2.5-1.2,0.8-1.2,0.8c-0.2-0.8-0.6-0.7-0.6-0.7c-0.6,0.1,0.1,1.5,0.1,1.5c0.5,0,0.5,0.8,0.5,0.8c-0.6,0.5,0,1.9,0,1.9
				l0.8-0.3c-0.5-1.2,0-1.4,0-1.4c0.7-0.5,0.9,0.8,0.9,0.8c0.4,1.9-2.3,1.8-2.3,1.8c-1.1,0.1-0.3,0.6-0.3,0.6
				c0.3,0.1,2.8-0.3,2.8-0.3c0.6,1,0.9,0.7,0.9,0.7C63.1,61.7,62.7,61.2,62.7,61.2z"/>
		</g>
		<g>
			<path class="st3" d="M25.7,49.9c0,0.1,0,0.2,0,0.3c0.1,0.1,0.2,0.2,0.3,0.3c0,0,0,0.1,0,0.1c0.1,0,0.1,0,0.2,0c0,0,0,0,0,0
				c0.1,0.1,0.1,0.1,0.2,0.1c0,0,0-0.1,0-0.1c0.1,0,0.1,0,0.2,0c0,0.1,0.1,0.2,0.1,0.3c0,0,0.1,0,0.1,0c0,0,0,0.1,0,0.1
				c0,0,0.1,0,0.1,0c0,0,0,0.1,0,0.1c0,0,0.1,0,0.1,0c0,0,0,0.1,0,0.1c0,0,0,0,0,0c0,0,0,0.1,0,0.1c0,0,0.1,0,0.1,0c0,0,0,0.1,0,0.1
				c0.1,0.1,0.2,0.2,0.4,0.3c0-0.1,0-0.2,0-0.3c0.1,0,0.1,0.1,0.2,0.1c0,0,0,0,0,0c0.1,0,0.1,0,0.2,0c0,0,0.1,0.1,0.1,0.1
				c0,0,0,0,0.1,0c0-0.1,0-0.1,0-0.2c0,0,0,0,0,0c-0.1-0.1,0,0-0.2-0.1c0,0,0,0,0,0c0,0-0.1,0-0.1,0c-0.1-0.1-0.1-0.2-0.2-0.3
				c0,0,0-0.1,0-0.1c0,0-0.1,0-0.1,0c0-0.1,0-0.2,0-0.2c0.1-0.1,0.1-0.1,0.4-0.1c0.1,0.1,0,0.1,0.1,0.1c0,0,0,0.1,0,0.1
				c0.1,0.1,0.2,0.2,0.4,0.2c0,0.1,0,0.1,0,0.2c0,0,0,0,0,0c0,0.1,0,0.3,0,0.4c0,0,0,0,0,0c0,0,0,0.1,0,0.1c0,0,0.1,0,0.1,0
				c0,0,0,0.1,0,0.1c0,0,0,0,0,0c0,0.1,0,0.1,0,0.2c0,0,0,0,0,0c0,0,0,0.1,0,0.1c0.1,0.1,0.2,0.2,0.3,0.3c0,0,0.1,0,0.1,0
				c0,0,0,0.1,0,0.1c0,0,0.1,0,0.1,0c0,0,0,0,0,0c0,0,0.1,0.1,0.1,0.1c0.1,0.2,0,0.2,0.3,0.3c0.2-0.3,0.3,0.1,0.5,0c0,0,0-0.1,0-0.1
				c0,0,0.1,0,0.1,0c0,0,0,0.1,0,0.1c0,0,0,0,0,0c0,0,0,0.1,0,0.1l0,0c0.1,0,0.1-0.1,0.1-0.2c0,0,0,0,0,0c0-0.1,0-0.2,0-0.3
				c0,0,0,0,0,0c0,0,0.1-0.1,0.1-0.1c-0.1-0.1-0.2-0.2-0.2-0.3c0.1-0.1,0-0.2,0.2-0.2c0,0,0,0,0,0c0.1,0,0.1,0,0.2,0
				c0,0.1,0.1,0.3,0.1,0.4c0.1,0.1,0.2,0.2,0.4,0.3c0,0.1,0,0.2,0,0.3c0,0,0,0,0,0c0,0,0,0.1,0,0.1c0,0,0,0,0,0c0,0,0,0.1,0,0.1
				c0.1,0,0.1,0,0.2,0c0,0,0,0,0,0c0.1,0,0.4,0.1,0.4,0.2c0,0,0,0.1,0,0.1c0,0,0,0,0,0c0,0,0,0.1,0,0.1c-0.1,0.1-0.2,0.2-0.3,0.3
				c0,0-0.1,0-0.1,0c0,0,0,0.1,0,0.1c0,0,0,0,0,0c0,0.1,0,0.2,0,0.3c0,0,0,0,0,0c0,0,0,0.1,0,0.1c0,0-0.1,0.1-0.1,0.1
				c0,0.1,0,0.1,0,0.2c0,0,0,0,0,0c0,0,0,0,0,0c0,0,0,0,0,0c0,0.1,0,0.1,0,0.2c0,0,0,0,0,0c0,0.2,0,0.4,0,0.6c0,0,0,0,0,0
				c0,0.1,0,0.2,0,0.3c0,0,0,0,0,0c0,0.2,0,0.4,0,0.6c0,0,0,0,0,0c0,0,0,0,0,0c0.1,0,0.3-0.2,0.4-0.1c0,0,0,0.1,0,0.1
				c0,0,0.1,0,0.1,0c0,0,0,0.1,0,0.1c0,0,0.1,0,0.1,0c0,0,0,0,0,0c0,0,0.1,0,0.1,0c0,0,0,0,0,0c0.2,0,0.4,0.1,0.6,0.1c0,0,0,0,0,0
				c0,0,0.1,0,0.1,0c0,0,0,0,0,0c0,0,0.1,0,0.1,0c0,0,0,0,0,0c0.2,0,0.4,0,0.6,0c0,0,0,0,0,0c0.1,0,0.1,0,0.2,0c0,0,0,0,0,0
				c0.1,0,0.1,0,0.2,0c0,0,0,0,0,0c0.1,0,0.1,0,0.2,0c0,0,0,0,0,0c0,0,0.1,0,0.1,0c0,0,0,0,0,0c0.1,0,0.2,0,0.3,0c0,0,0,0,0,0
				c0.1,0,0.4,0,0.5,0c0,0,0,0,0,0c0.1,0,0.1,0,0.2,0c0,0,0,0,0,0c0.1,0,0.1,0,0.2,0c0,0,0,0,0,0c0.1,0,0.3,0,0.4,0
				c0.1,0,0.2,0,0.3,0c0.1,0,0.5,0.2,0.7,0.1c0,0,0,0,0,0c0,0,0.1,0,0.1,0c0,0,0,0,0,0c0.1,0,0.4-0.1,0.6-0.1c0,0,0,0,0,0
				c0.1,0,0.2,0,0.3,0c0,0,0,0,0,0c0.2,0,0.3,0,0.5,0c0,0,0,0,0,0c0,0,0.1,0,0.1,0c0,0,0,0,0,0c0,0,0.1,0,0.1,0c0,0,0,0,0,0
				c0,0,0.1,0,0.1,0c0,0,0,0,0,0c0.1,0,0.1,0,0.2,0c0,0,0,0,0,0c0.1,0,0.3,0,0.4,0c0,0,0,0,0,0c0.1,0,0.2,0,0.3,0c0,0,0,0,0,0
				c0.2,0,0.5,0.1,0.5,0c0,0,0,0,0,0c0.1,0,0.1,0,0.2,0c0,0,0,0,0,0c0.1,0,0.1,0,0.2,0c0,0,0,0,0,0c0.1,0,0.4,0,0.5,0c0,0,0,0,0,0
				c0.1,0,0.2,0,0.3,0c0.3,0.1,0.9,0.2,1,0.6c0.1,0,0.1,0.1,0.2,0.1c0,0,0,0,0,0c0.1,0,0.1,0,0.2,0c0,0,0,0,0,0c0,0,0.1,0,0.1,0
				c0,0,0,0.1,0,0.1c0,0,0.1,0,0.1,0c0,0,0,0,0,0c0.1,0.1,0.1,0.2,0.3,0.3c0,0.1,0.1,0.2,0.1,0.3c-0.1,0-0.2,0-0.4,0c0,0,0,0,0,0
				c-0.1,0-0.1,0-0.2,0c-0.3-0.1-0.4-0.2-0.7-0.1c0,0.2,0,0.3,0,0.5c0,0,0,0,0,0c0,0.1-0.1,0.5-0.1,0.7c0,0,0,0,0,0
				c0,0.1,0,0.2,0,0.3c0,0.1,0.1,0.2,0.1,0.4c-0.1,0-0.1,0-0.1,0.1c0,0-0.1,0-0.1,0c0,0,0,0,0,0c-0.1-0.1,0-0.1-0.2-0.2c0,0,0,0,0,0
				c0,0,0,0,0,0c-0.1,0.1,0.1,0.4,0,0.5c0,0,0,0,0,0c-0.1,0-0.5,0-0.7,0c0,0,0,0.1,0,0.1c-0.1,0-0.1,0-0.3-0.1c0,0.1,0,0.2,0,0.3
				c0,0-0.1,0-0.1,0c-0.1,0,0,0-0.1,0c0,0,0,0.1,0,0.1c0,0,0,0,0,0c0,0.1,0,0.1,0,0.1c0,0.2,0,0.4,0,0.6c-0.1,0-0.1,0.1-0.2,0.1
				c0,0,0,0,0,0c-0.1-0.1-0.1-0.1-0.1-0.3c0,0,0-0.2,0-0.2c0,0-0.1,0-0.1,0c-0.1,0.1-0.2,0.1-0.3,0.1c0,0,0,0,0,0
				c-0.1,0-0.1,0-0.1-0.2c0,0-0.1,0-0.1,0c0,0.2,0,0.3,0,0.5c-0.1,0-0.1,0.1-0.2,0.2c0,0-0.1,0-0.1,0c0-0.2-0.1-0.1-0.1-0.3
				c-0.1,0,0,0-0.1,0c-0.1,0-0.1,0-0.1,0.1c0,0,0,0,0,0c0,0.1,0,0.1,0,0.2c0,0.1-0.1,0.2-0.1,0.3c-0.2-0.1-0.4-0.1-0.6-0.2
				c0,0,0,0,0,0c-0.3,0.1-0.3,0.5-0.5,0.7c-0.2,0-0.3,0.1-0.5,0.1c0,0,0,0.1,0,0.1c-0.1,0.2,0,0.6,0,0.8c0,0,0,0,0,0
				c0,0,0,0.1,0,0.1c0,0,0,0,0,0c-0.1,0.3,0.1,0.6,0.2,0.7c0,0.1,0,0.2,0,0.2c0,0,0,0,0,0c0,0.1,0,0.1,0,0.2c0,0,0,0,0,0
				c0,0,0,0.1,0,0.1c0,0,0,0,0,0c0,0,0,0.1,0,0.1c0,0,0.1,0.1,0.1,0.1c0,0.1,0.1,0.2,0.1,0.3c0,0,0.1,0,0.1,0c0,0,0,0.1,0,0.1
				c0,0,0,0,0,0c0.1,0.4,0.1,0.9,0.2,1.3c0.1,0.1,0.1,0.1,0.2,0.1c0-0.1-0.1-0.3-0.1-0.4c0,0,0,0,0,0c0,0,0-0.1,0-0.1c0,0,0,0,0,0
				c-0.1-0.3,0.1-0.6,0.1-0.7c0.1,0,0.1,0,0.2,0c0,0.1,0.1,0.1,0.1,0.2c0,0.2,0,0.5,0,0.7c0,0,0.1,0,0.1,0c0,0.1,0.1,0.2,0.1,0.3
				c0,0,0.1,0.1,0.1,0.1c0,0,0,0.1,0,0.1c0,0,0,0,0,0c0,0,0,0.1,0,0.1c0,0,0,0,0,0c0,0,0,0.1,0,0.1c0.1,0,0.1,0,0.2,0c0,0,0,0,0,0
				c0.1,0,0.2,0.1,0.4,0.1c0.1-0.1,0.1-0.2,0.2-0.2c0-0.1,0-0.1,0-0.2c0,0,0.1,0,0.1,0c0.1-0.1,0.2-0.2,0.2-0.4
				c-0.1-0.1-0.1-0.1-0.1-0.3c0,0,0,0,0,0c0-0.1,0-0.1,0-0.2c0,0,0,0,0,0c0,0,0-0.1,0-0.1c0,0,0,0,0,0c0-0.2,0-0.4,0-0.6
				c0,0,0.1-0.1,0.1-0.1c0.2-0.1,0.4,0,0.5,0c0.1-0.1,0.2-0.2,0.3-0.3c-0.1-0.2-0.1-0.9,0.1-1.1c0,0,0,0,0,0c0.1,0,0.1,0,0.2,0
				c0,0.1,0,0,0,0c0,0.2,0.1,0.2,0.1,0.3c0,0,0.1,0,0.1,0c0,0,0,0,0,0c0,0,0.1,0,0.1,0c0.1-0.1,0.2-0.3,0.3-0.4c0.1,0,0,0,0,0
				c0.1,0,0.1,0.1,0.2,0.2c0,0,0,0,0,0c0,0,0-0.1,0-0.1c0,0,0,0,0,0c0,0,0-0.1,0-0.1c0-0.1,0.1,0,0.2,0c0,0.1,0.1,0.1,0.1,0.1
				c0,0,0,0.1,0,0.1c0,0,0,0,0,0c0,0,0,0.1,0,0.1c0,0,0,0,0,0c0,0,0,0.1,0,0.1c0,0,0,0,0,0c0,0.1,0,0.1,0,0.2c0,0,0,0,0,0
				c0,0.1,0,0.1,0,0.2c0,0,0,0,0,0c0,0.2,0,0.3,0,0.5c0,0,0,0,0,0c0,0.1,0,0.2,0,0.3c0,0,0,0,0,0c0,0.1,0,0.2,0,0.3c0,0,0,0,0,0
				c0,0.1,0,0.2,0,0.3c0,0,0,0,0,0c0,0.1,0,0.2,0,0.3c0,0,0,0,0,0c0,0.1,0,0,0,0c0,0.2,0,0.4,0,0.6c0,0,0,0,0,0c0,0.1,0,0.2,0,0.3
				c0,0.1,0.1,0.3,0.1,0.4c0,0,0.1,0,0.1,0c0,0,0,0.1,0,0.1c0,0,0,0,0,0c0.1,0.1,0,0.3,0.1,0.4c0.1,0.1,0,0,0.1,0c0,0.2,0,0.3,0,0.4
				c0,0,0,0,0,0c0,0.1,0,0.2,0,0.2c0,0,0.1,0,0.1,0c0,0,0,0.1,0,0.1c0,0,0,0,0,0c0,0.1,0,0.2,0,0.3c0,0,0,0,0,0c0,0.1,0,0.2,0,0.2
				c0,0,0,0,0,0c0,0.2,0,0.3,0,0.5c0,0,0,0,0,0c0,0,0,0.1,0,0.1c0,0,0,0,0,0c0,0.1,0,0.1,0,0.2c0,0,0,0,0,0c0,0,0,0.1,0,0.1
				c0,0,0,0,0,0c0,0.1,0,0.1,0,0.2c0,0,0,0,0,0c0,0.3,0,0.5,0,0.8c0,0,0,0,0,0c0.1,0.3,0,0.7,0,1.1c0,0.2,0,0.3,0,0.5
				c0.1,0.3,0,0.7,0,1.1c0,0.3,0,0.6,0,1c0,0,0,0,0,0c0,0,0,0.1,0,0.1c0,0,0,0,0,0c0,0,0,0.1,0,0.1c0,0,0,0,0,0c0,0,0,0.1,0,0.1
				c0,0,0,0,0,0c0,0,0,0.1,0,0.1c0,0,0,0,0,0c0,0,0,0.1,0,0.1c0,0,0,0,0,0c0,0.1-0.1,0.4-0.1,0.4c0,0.2-0.1,0.2-0.3,0.2
				c-0.1-0.1-0.2-0.1-0.2-0.2c0-0.1,0-0.2,0-0.2c0,0,0,0,0,0c0,0,0,0,0,0c0,0,0,0,0,0c0,0,0-0.1,0-0.1c0,0,0,0,0,0c0,0,0-0.1,0-0.1
				c0,0,0,0,0,0c-0.1-0.1-0.3-0.1-0.5,0c0-0.2-0.1-0.5-0.4-0.5c-0.1,0.1-0.2,0.2-0.3,0.2c0,0,0,0.1,0,0.1c0,0-0.1,0-0.1,0
				c0,0,0,0,0,0c-0.1,0.1-0.2,0-0.2,0.2c-0.2,0.2,0,0.4,0,0.7c0,0,0,0,0,0c0,0.2,0.1,0.7,0.2,0.8c0,0,0,0,0,0c0,0,0,0.1,0,0.1
				c0,0,0,0,0,0c0,0,0,0.1,0,0.1c0,0,0,0,0,0c0,0,0,0.1,0,0.1c0,0,0,0,0,0c0,0.2,0.1,0.3,0.1,0.5c0,0,0,0,0,0c0,0.1,0,0.2,0,0.3
				c0,0,0,0,0,0c0,0.1,0,0.1,0,0.2c0,0,0,0,0,0c0,0.2,0.1,0.4,0.1,0.6c-0.1,0-0.1,0-0.2,0c-0.1-0.1-0.1-0.1-0.2-0.1
				c-0.1-0.2-0.1-0.3-0.2-0.5c0,0,0,0,0,0c0,0,0-0.1,0-0.1c0,0,0,0,0,0c0-0.1,0-0.1,0-0.2c0,0,0,0,0,0c0,0,0-0.1,0-0.1
				c0,0-0.1,0-0.1,0c0,0,0-0.1,0-0.1c0,0-0.1-0.1-0.1-0.1c0,0,0-0.1,0-0.1c0,0-0.1,0-0.1,0c0-0.2-0.1-0.4-0.1-0.6
				c-0.1,0-0.1-0.1-0.2-0.1c0-0.1-0.1-0.1-0.1-0.2c0,0-0.1,0-0.1,0c0-0.1-0.1-0.2-0.1-0.3c0,0,0,0,0,0c0,0,0-0.1,0-0.1c0,0,0,0,0,0
				c0-0.2,0-0.4,0-0.6c0,0,0,0,0,0c0,0,0-0.1,0-0.1c0,0-0.1-0.1-0.1-0.1c0,0,0-0.1,0-0.1c0,0-0.1,0-0.1,0c0-0.2,0-0.3,0-0.5
				c0-0.3-0.1-0.6-0.1-1c-0.1-0.1-0.2-0.2-0.3-0.2c0,0,0-0.1,0-0.1c0,0,0,0,0,0c-0.1-0.1,0-0.4,0-0.4c0-0.3,0-0.7,0-1c0,0,0,0,0,0
				c0,0,0-0.1,0-0.1c0,0-0.1,0-0.1,0c0,0,0-0.1,0-0.1c0,0,0,0,0,0c0-0.1,0-0.1,0-0.2c0,0,0,0,0,0c0-0.4-0.1-0.8-0.1-1.1c0,0,0,0,0,0
				c0,0,0-0.1,0-0.1c0,0,0,0,0,0c0,0,0-0.1,0-0.1c0,0-0.1,0-0.1,0c0,0,0-0.1,0-0.1c0,0-0.1-0.1-0.1-0.1c0,0,0-0.1,0-0.1
				c0,0-0.1,0-0.1,0c0-0.1,0-0.2,0-0.3c0,0,0,0,0,0c0,0,0-0.1,0-0.1c0,0-0.1,0-0.1,0c0,0,0-0.1,0-0.1c0,0-0.1-0.1-0.1-0.1
				c0,0,0-0.1,0-0.1c-0.1-0.1-0.3-0.3-0.4-0.4c0,0,0-0.1,0-0.1c-0.1-0.1-0.2-0.1-0.2-0.3c0,0-0.1,0-0.1,0c0,0.1,0,0.2,0,0.3
				c-0.1,0,0,0,0,0c-0.1,0-0.3,0.1-0.4,0.1c0,0,0,0,0,0c0,0-0.1,0-0.1,0c0,0,0,0,0,0c-0.1,0-0.1-0.1-0.2-0.1c0,0,0,0,0,0
				c-0.1,0.1-0.1,0.2-0.1,0.3c0.1,0.2,0.2,0.2,0.3,0.4c-0.1,0.1,0,0.1-0.2,0.1c-0.2,0.2-0.6-0.2-0.8-0.2c0,0,0,0.1,0,0.1
				c0,0-0.1,0-0.1,0c0,0,0,0.1,0,0.1c-0.1,0-0.1,0-0.2,0c-0.1-0.1-0.2-0.2-0.3-0.3c-0.1,0-0.1,0-0.2,0c0,0,0-0.1,0-0.1
				c0,0-0.1,0-0.1,0c-0.1-0.1-0.1-0.2-0.2-0.3c0,0-0.1,0-0.1,0c0,0,0-0.1,0-0.1c0,0-0.1,0-0.1,0c0-0.1,0-0.1,0-0.2c0,0,0,0,0,0
				c0-0.1,0-0.1,0-0.2c0,0,0,0,0,0c-0.1-0.2,0-0.2-0.2-0.3c0,0,0,0,0,0c-0.1,0-0.1,0-0.2,0c0,0.1,0,0.1,0,0.3
				c-0.1,0-0.2,0.1-0.4,0.1c0,0,0,0.1,0,0.1c-0.1,0-0.2,0-0.3,0c0,0.1,0,0.1,0,0.2c0.1,0.1,0.1,0.1,0.1,0.2c0,0,0,0,0,0
				c-0.1,0.1-0.1,0.2-0.1,0.3c0.1,0.1,0.1,0.2,0.2,0.3c0,0,0.1,0.1,0.1,0.1c0.1,0.1,0,0.1,0.1,0.1c-0.1,0.2-0.1,0.3,0,0.5
				c0,0,0,0,0,0c0,0.1,0,0.1,0,0.1c0,0.2,0,0.3,0,0.4c0,0,0,0,0,0c0,0,0,0.1,0,0.1c0,0,0,0,0,0c0,0.1-0.1,0.2-0.1,0.3c0,0,0,0,0,0
				c0,0.1,0,0.1,0,0.2c-0.1,0.1-0.2,0.2-0.3,0.2c0,0.2-0.1,0.4-0.1,0.6c-0.1,0-0.1,0.1-0.2,0.1c0-0.1-0.1-0.1-0.1-0.2
				c0,0-0.1,0-0.1,0c-0.1,0.1-0.2,0.2-0.2,0.4c0,0-0.1,0-0.1,0c0,0,0,0,0,0c-0.1-0.1,0-0.1-0.1-0.2c0,0,0,0,0,0c0,0,0-0.1,0-0.1
				c0,0,0,0,0,0c0,0,0,0,0,0c-0.1,0.1,0.1,0.3,0,0.5c-0.2,0.6-0.3,0.5-0.9,0.5c0-0.1,0.1-0.3,0.1-0.4c-0.2,0-0.3,0-0.4,0
				C32,73.1,32,73,32,72.7c-0.1,0,0,0,0,0c-0.1,0-0.2,0-0.4,0.1c0,0,0,0,0,0c-0.1,0-0.2,0-0.3,0c0-0.1-0.1-0.1,0-0.2
				c0,0,0.1,0,0-0.1c0,0,0,0,0,0c0,0,0-0.1,0-0.1c0,0,0,0,0,0c0-0.1,0-0.2,0-0.3c0,0,0,0,0,0c0,0,0,0,0,0c-0.2,0.1-0.3,0.2-0.4,0.5
				c0,0,0.1,0,0.1,0c0.1,0.2,0.2,0.1,0.2,0.4c0,0.1,0.1,0.2,0.1,0.3c0,0,0,0,0,0c-0.1,0.1-0.1,0.1-0.3,0.1c0,0,0,0,0,0
				c0,0-0.1,0-0.1,0c0,0.1,0,0,0,0c0,0.1,0,0.2,0,0.3c-0.2,0-0.2,0-0.4,0c0-0.1-0.1-0.5-0.2-0.6c0,0,0,0.1,0,0.1c0,0,0,0,0,0
				c0,0,0,0.1,0,0.2c0,0,0,0,0,0c0,0.1,0,0.1,0.1,0.2c0,0,0,0,0,0c0.1,0.1,0,0.2,0,0.4c-0.1,0-0.1,0.1-0.1,0.1
				c-0.1,0.1-0.4,0.1-0.5,0.1c0-0.1-0.1-0.1-0.1-0.1c0,0,0-0.1,0-0.1c0,0,0,0,0,0c0,0,0-0.1,0-0.1c0,0-0.2-0.1-0.1-0.2
				c0,0,0.1-0.1,0.1-0.1c0.1-0.1,0.1-0.2,0.1-0.4c-0.1,0-0.1-0.1-0.2-0.1c0-0.1,0-0.2,0-0.2c0,0,0,0,0,0c0-0.1,0-0.3,0-0.4
				c0,0,0,0,0,0c0-0.1,0-0.2,0-0.2c0,0-0.1,0-0.1,0c0,0.1,0,0.2,0,0.3c0,0,0,0,0,0c0,0.1,0,0.2,0,0.3c0,0,0,0,0,0
				c0.1,0.1,0.1,0.1,0.1,0.3c-0.1,0-0.2,0-0.3,0c0,0.1,0,0.1,0,0.2c0,0.3,0.2,0.7-0.2,0.7c0-0.1,0-0.1-0.1-0.1
				c0-0.1,0.2-0.4,0.1-0.6c0,0,0,0,0,0c0,0,0-0.1,0-0.1c0,0-0.1-0.1-0.1-0.1c0-0.2,0-0.4,0-0.6c0,0,0,0,0,0c0-0.1,0-0.1,0-0.2
				c0,0,0,0,0,0c-0.1,0.1-0.2,0.2-0.2,0.3c0,0.2,0.1,0.5,0.1,0.7c0,0,0,0,0,0c0,0,0,0.1,0,0.1c0,0,0,0,0,0c0,0.2,0,0.3,0,0.5
				c-0.1,0-0.2-0.1-0.3-0.1c0-0.1,0-0.3,0-0.4c0,0,0,0,0,0c0-0.1,0-0.2,0-0.3c-0.1-0.1-0.1-0.1-0.3-0.2c0,0.4-0.1,0.6-0.3,0.9
				c-0.1,0,0,0-0.1,0c-0.2,0-0.2-0.1-0.3-0.2c0-0.2,0-0.5,0-0.7c0,0,0,0,0,0c0-0.2,0-0.3,0-0.4c0-0.2,0-0.3,0-0.5c0,0,0,0,0,0
				c0,0,0-0.1,0-0.1c0,0,0,0,0,0c0-0.1-0.1-0.3-0.1-0.4c0,0,0,0,0,0c0,0,0-0.1,0-0.1c0,0,0,0,0,0c0-0.1,0-0.2,0-0.3c0,0,0,0,0,0
				c0,0,0-0.1,0-0.1c0,0,0,0,0,0c0,0,0-0.1,0-0.1c0,0,0,0,0,0c0-0.1,0-0.4,0-0.4c0.1-0.2-0.1-0.3-0.1-0.4c0-0.1,0-0.3,0-0.4
				C27.1,69.3,27,69.2,27,69c0,0,0,0,0,0c0,0,0-0.1,0-0.1c0,0,0,0,0,0c0.1-0.1,0.2-0.2,0.2-0.4c-0.1-0.1,0-0.1-0.1-0.2
				c-0.1-0.1-0.2-0.2-0.3-0.2c0,0,0-0.1,0-0.1c-0.1-0.2-0.2-0.2-0.2-0.6c0.1-0.1,0,0,0-0.1c0.1,0,0.2-0.1,0.3-0.1c0-0.2,0-0.2,0-0.4
				c0.1,0,0.1-0.1,0.1-0.1c0,0,0.1,0,0.1,0c0,0,0-0.1,0-0.1c0.1-0.1,0.1,0.1,0.2-0.1c-0.1-0.1-0.1-0.1-0.4-0.1
				c-0.1,0.1-0.2,0.1-0.2,0.2c-0.2-0.1-0.7-0.2-0.7-0.3c0,0,0-0.1,0-0.1c0.1,0,0.1,0,0.2,0c0-0.1,0-0.1,0-0.2
				c-0.1-0.1-0.1-0.2,0-0.3c0,0,0-0.1,0-0.1c0,0,0,0,0,0c0,0,0-0.1,0-0.1c0,0,0.1,0,0.1,0c0,0,0-0.1,0-0.1c0,0,0.1,0,0.1,0
				c0.1-0.1,0.1-0.1,0.1-0.2c-0.1,0-0.1-0.1-0.1-0.1c-0.1,0-0.1,0-0.2,0c0,0,0,0,0,0c0,0-0.1,0-0.1,0c0,0,0,0,0,0
				c-0.1,0-0.2,0-0.3,0c-0.1-0.1-0.3-0.6-0.4-0.7c0.1-0.1,0.1-0.2,0.2-0.3c0-0.2-0.1-0.2-0.2-0.4c0.1,0,0,0,0-0.1
				c0.2,0,0.4-0.1,0.7-0.1c0-0.1,0-0.3,0-0.4c0,0,0,0,0,0c0,0,0-0.1,0-0.1c0,0,0,0,0,0c0.1-0.1,0-0.2,0-0.3
				c-0.1-0.1-0.2-0.2-0.2-0.4c0,0,0,0,0,0c0,0,0,0,0,0c0.1,0,0.2,0,0.3,0c0,0,0,0,0,0c0.1,0,0,0,0-0.1c0-0.2-0.1-0.3-0.1-0.4
				c-0.1-0.1-0.2-0.2-0.3-0.2c-0.2,0-0.4,0-0.6,0c0,0,0,0,0,0c-0.1,0-0.2,0-0.3,0c0,0,0,0,0,0c0,0-0.1,0-0.1,0
				c-0.1-0.1-0.3-0.2-0.4-0.3c0,0,0-0.1,0-0.1c0,0-0.1-0.1-0.1-0.1c0,0,0,0,0,0c0,0-0.1,0-0.1,0c0,0,0,0,0,0c0,0-0.1,0-0.1,0
				c0,0,0,0,0,0c0,0-0.1,0-0.1,0c0,0,0,0,0,0c-0.1,0-0.2-0.1-0.3-0.1c0,0,0,0,0,0c0,0-0.1,0-0.1,0c-0.1-0.1-0.1-0.2-0.2-0.2
				c0,0-0.1,0-0.1,0c0,0,0-0.1,0-0.1c0,0,0,0,0,0c0,0,0-0.1,0-0.1c0,0,0,0,0,0c0,0,0-0.1,0-0.1c0,0-0.1,0-0.1,0c0,0,0-0.1,0-0.1
				c0,0,0,0,0,0c0-0.1-0.1-0.5,0-0.6c0,0,0,0,0,0c0.1-0.4,0.6-0.2,0.6-0.7c-0.2-0.1,0-0.5,0.2-0.5c0,0.2,0.1,0.3,0.1,0.4
				c0,0,0.1,0,0.1,0c0.1-0.2,0.1-0.2,0.3-0.3c0,0,0-0.1,0-0.1c0,0,0.1,0,0.1,0c0,0,0,0,0,0c0.2-0.1,0.3,0.1,0.4-0.2
				c0.1-0.1,0,0,0-0.1c0,0,0,0,0,0c0,0,0-0.1,0-0.1c0,0,0,0,0,0c0.1-0.2-0.1-0.5-0.2-0.6c0.2-0.1,0.6-0.1,0.9-0.1c0,0,0,0,0,0
				c0,0,0.1,0,0.1,0c0,0,0,0.1,0,0.1c0,0,0.1,0,0.1,0c0,0,0,0,0,0c0.2,0,0.4,0,0.6,0c0.3,0.1,0.4,0.1,0.7,0c0-0.1,0-0.2,0-0.3
				c0.1,0,0.2,0,0.3,0c0,0,0-0.1,0-0.1c0,0,0,0,0,0c0,0,0,0,0,0c-0.1-0.1-0.2,0-0.3,0c0,0,0-0.1,0-0.1c0,0-0.1,0-0.1,0
				c0-0.1-0.1-0.1-0.1-0.2c-0.1,0-0.2,0-0.2-0.1c0,0,0-0.1,0-0.1c0,0,0,0,0,0c0,0,0-0.1,0-0.1c0.1,0,0.1-0.1,0.2-0.1
				c0-0.2-0.1-0.2-0.1-0.3c-0.1,0-0.1-0.1-0.2-0.1c0,0,0,0,0,0c-0.1,0-0.1,0-0.2,0c0,0,0,0,0,0c0,0-0.2,0.1-0.3,0.1c0,0,0,0,0,0
				c0,0-0.1-0.1-0.1-0.1c0,0,0,0,0,0c0,0-0.1,0-0.1,0c0,0,0-0.1,0-0.1c0,0-0.1,0-0.1,0c0,0,0-0.1,0-0.1c-0.1,0-0.1,0-0.2,0
				c0,0,0,0,0,0c-0.1,0-0.2-0.1-0.3-0.1c0,0,0,0,0,0c0,0-0.1,0-0.1,0c-0.1-0.1-0.1-0.2-0.2-0.2c0,0-0.1-0.1-0.1-0.1c0,0,0-0.1,0-0.1
				c0,0,0,0,0,0c0-0.1,0-0.2,0-0.2c0,0,0,0,0,0c-0.1-0.1-0.1-0.2-0.3-0.3c0-0.1,0-0.2-0.2-0.2c-0.1-0.1-0.3,0.1-0.5,0c0,0,0,0,0,0
				c-0.1,0-0.1,0-0.2,0c0-0.1-0.1-0.2,0-0.4c-0.1-0.1,0-0.4,0-0.6c0.1,0,0.2-0.1,0.3-0.2c-0.1-0.1-0.1,0-0.1-0.2
				c0.1,0,0.2-0.1,0.2-0.2c0-0.1,0-0.2,0-0.2c0,0,0,0,0,0c0,0,0-0.1,0-0.1c0.1-0.2,0.2,0,0.4-0.1c0.1-0.1,0.2-0.2,0.3-0.3
				c0,0,0-0.1,0-0.1c0,0,0,0,0,0c0-0.1,0-0.1,0-0.2c0.1-0.1,0.4-0.1,0.7-0.1c0,0,0,0,0,0c0.1,0,0.1,0,0.2,0c0-0.1,0-0.1,0-0.2
				c-0.1,0-0.1,0-0.2,0c0-0.1,0-0.2,0-0.3c-0.2,0-0.4-0.1-0.4-0.1c0,0,0,0,0,0c-0.1,0-0.1,0-0.2,0c0-0.1,0-0.3,0-0.3
				c0,0,0.1,0,0.1,0c0-0.1,0-0.2,0-0.3c0,0,0,0,0,0C25.4,49.9,25.4,49.9,25.7,49.9z"/>
		</g>
	</g>
	<g>
		<path class="st5" d="M79.9,45.5c0-1,0.2-1.9,0.5-2.9s0.9-1.8,1.5-2.5s1.5-1.4,2.5-1.8c1-0.5,2.1-0.7,3.3-0.7c1.5,0,2.7,0.3,3.8,1
			c1.1,0.6,1.9,1.5,2.4,2.5l-2.4,1.6c-0.2-0.5-0.5-0.8-0.8-1.1c-0.3-0.3-0.6-0.5-1-0.7c-0.3-0.2-0.7-0.3-1.1-0.4
			c-0.4-0.1-0.7-0.1-1.1-0.1c-0.8,0-1.5,0.2-2,0.5c-0.6,0.3-1.1,0.7-1.4,1.2s-0.7,1.1-0.9,1.7s-0.3,1.3-0.3,1.9c0,0.7,0.1,1.4,0.3,2
			c0.2,0.7,0.5,1.2,1,1.7c0.4,0.5,0.9,0.9,1.5,1.2c0.6,0.3,1.2,0.5,1.9,0.5c0.4,0,0.7,0,1.1-0.1c0.4-0.1,0.8-0.2,1.1-0.4
			s0.7-0.5,1-0.8c0.3-0.3,0.5-0.7,0.7-1.1l2.5,1.5c-0.2,0.6-0.6,1.1-1.1,1.6c-0.5,0.5-1,0.8-1.6,1.2c-0.6,0.3-1.2,0.6-1.9,0.7
			c-0.7,0.2-1.3,0.2-2,0.2c-1.1,0-2.2-0.2-3.1-0.7c-0.9-0.5-1.8-1.1-2.4-1.9c-0.7-0.8-1.2-1.6-1.6-2.6
			C80.1,47.5,79.9,46.5,79.9,45.5z"/>
		<path class="st5" d="M99.3,53.8c-0.6,0-1.1-0.1-1.6-0.3c-0.5-0.2-0.9-0.5-1.3-0.8s-0.6-0.7-0.8-1.2s-0.3-0.9-0.3-1.5
			c0-0.5,0.1-1.1,0.4-1.5c0.2-0.5,0.6-0.9,1-1.2c0.4-0.3,1-0.6,1.6-0.8c0.6-0.2,1.3-0.3,2-0.3c0.5,0,1,0,1.5,0.1
			c0.5,0.1,0.9,0.2,1.3,0.4v-0.7c0-0.8-0.2-1.4-0.7-1.8s-1.1-0.6-2-0.6c-0.6,0-1.2,0.1-1.8,0.3c-0.6,0.2-1.2,0.6-1.9,1l-0.9-1.9
			c1.5-1,3.1-1.5,4.9-1.5c1.7,0,3,0.4,3.9,1.2c0.9,0.8,1.4,2,1.4,3.6v3.7c0,0.3,0.1,0.5,0.2,0.7c0.1,0.1,0.3,0.2,0.6,0.2v2.6
			c-0.5,0.1-0.9,0.2-1.3,0.2c-0.6,0-1-0.1-1.3-0.4s-0.5-0.6-0.6-1l-0.1-0.7c-0.5,0.7-1.2,1.2-1.9,1.6
			C100.9,53.7,100.1,53.8,99.3,53.8z M100.1,51.7c0.5,0,1-0.1,1.4-0.3c0.5-0.2,0.8-0.4,1.1-0.7c0.3-0.2,0.5-0.5,0.5-0.9v-1.3
			c-0.4-0.1-0.8-0.2-1.2-0.3c-0.4-0.1-0.8-0.1-1.2-0.1c-0.8,0-1.4,0.2-1.9,0.5c-0.5,0.4-0.7,0.8-0.7,1.3c0,0.5,0.2,0.9,0.6,1.3
			C99.1,51.5,99.5,51.7,100.1,51.7z"/>
		<path class="st5" d="M115.6,53.8c-0.9,0-1.7-0.2-2.4-0.6c-0.7-0.4-1.3-1-1.7-1.7v2h-2.6V37.2h3v6.7c0.4-0.7,1-1.3,1.6-1.7
			c0.7-0.4,1.5-0.6,2.4-0.6c0.8,0,1.5,0.2,2.1,0.5c0.6,0.3,1.2,0.8,1.6,1.3c0.5,0.5,0.8,1.2,1.1,2c0.2,0.8,0.4,1.5,0.4,2.4
			c0,0.9-0.1,1.7-0.4,2.4c-0.3,0.7-0.7,1.4-1.2,1.9c-0.5,0.5-1.1,1-1.8,1.3C117.1,53.7,116.4,53.8,115.6,53.8z M114.8,51.3
			c0.5,0,0.9-0.1,1.3-0.3c0.4-0.2,0.8-0.4,1-0.8s0.5-0.7,0.7-1.1c0.2-0.4,0.2-0.9,0.2-1.3s-0.1-0.9-0.2-1.4
			c-0.1-0.4-0.4-0.8-0.6-1.1c-0.3-0.3-0.6-0.6-1-0.8c-0.4-0.2-0.8-0.3-1.2-0.3c-0.7,0-1.3,0.2-1.8,0.7c-0.5,0.5-0.9,1-1.2,1.6v2.8
			c0.1,0.3,0.3,0.6,0.5,0.8c0.2,0.2,0.4,0.5,0.7,0.6c0.3,0.2,0.5,0.3,0.8,0.4C114.2,51.2,114.5,51.3,114.8,51.3z"/>
		<path class="st5" d="M123.2,40.2v-3h3v3H123.2z M123.2,53.6V41.8h3v11.8C126.2,53.6,123.2,53.6,123.2,53.6z"/>
		<path class="st5" d="M139.9,53.6h-3V47c0-0.9-0.2-1.6-0.5-2.1c-0.3-0.4-0.8-0.7-1.4-0.7c-0.3,0-0.6,0.1-0.9,0.2
			c-0.3,0.1-0.6,0.3-0.9,0.5c-0.3,0.2-0.5,0.5-0.8,0.8s-0.4,0.6-0.5,1v6.9h-3V41.8h2.7V44c0.4-0.8,1.1-1.3,1.9-1.8
			c0.8-0.4,1.8-0.6,2.8-0.6c0.7,0,1.3,0.1,1.8,0.4s0.8,0.6,1.1,1.1c0.2,0.4,0.4,0.9,0.5,1.5c0.1,0.5,0.1,1.1,0.1,1.7V53.6z"/>
		<path class="st5" d="M148,53.8c-0.9,0-1.8-0.2-2.6-0.5c-0.8-0.3-1.4-0.8-2-1.3c-0.5-0.5-1-1.2-1.2-1.9c-0.3-0.7-0.4-1.5-0.4-2.3
			c0-0.8,0.1-1.6,0.4-2.4c0.3-0.7,0.7-1.4,1.2-2c0.5-0.6,1.2-1,2-1.3s1.6-0.5,2.6-0.5s1.8,0.2,2.6,0.5s1.4,0.8,1.9,1.3
			c0.5,0.5,0.9,1.2,1.2,1.9c0.3,0.7,0.4,1.5,0.4,2.3c0,0.2,0,0.4,0,0.6s0,0.3-0.1,0.5h-9.1c0,0.5,0.2,0.9,0.3,1.2s0.4,0.7,0.7,0.9
			c0.3,0.3,0.6,0.5,1,0.6c0.4,0.1,0.7,0.2,1.1,0.2c0.6,0,1.2-0.2,1.7-0.4c0.5-0.3,0.9-0.7,1.1-1.2l2.6,0.7c-0.4,0.9-1.1,1.6-2.1,2.2
			C150.4,53.6,149.3,53.8,148,53.8z M151,46.8c-0.1-0.9-0.4-1.6-1-2.1c-0.6-0.5-1.3-0.8-2.1-0.8c-0.4,0-0.8,0.1-1.1,0.2
			c-0.4,0.1-0.7,0.3-0.9,0.6c-0.3,0.2-0.5,0.6-0.7,0.9c-0.2,0.4-0.3,0.8-0.3,1.2L151,46.8L151,46.8z"/>
		<path class="st5" d="M162.9,53c-0.4,0.2-0.9,0.4-1.5,0.5c-0.6,0.2-1.2,0.3-1.9,0.3c-0.4,0-0.8,0-1.2-0.2c-0.4-0.1-0.7-0.3-1-0.5
			c-0.3-0.2-0.5-0.5-0.7-0.9c-0.2-0.4-0.2-0.8-0.2-1.3v-6.8H155v-2.3h1.5V38h3v3.8h2.5v2.3h-2.5v5.8c0,0.4,0.1,0.7,0.3,0.9
			c0.2,0.2,0.5,0.3,0.8,0.3c0.3,0,0.6-0.1,0.9-0.2c0.3-0.1,0.5-0.2,0.7-0.3L162.9,53z"/>
		<path class="st5" d="M80.9,74.1v-16h5.8c1.3,0,2.4,0.2,3.4,0.6c1,0.4,1.8,1,2.5,1.7c0.7,0.7,1.1,1.6,1.5,2.5c0.3,1,0.5,2,0.5,3.1
			c0,1.2-0.2,2.3-0.6,3.3c-0.4,1-0.9,1.8-1.6,2.5c-0.7,0.7-1.5,1.2-2.5,1.6c-1,0.4-2.1,0.6-3.2,0.6C86.7,74.1,80.9,74.1,80.9,74.1z
			 M91.5,66.1c0-0.8-0.1-1.5-0.3-2.1s-0.5-1.2-0.9-1.7c-0.4-0.5-0.9-0.8-1.5-1.1c-0.6-0.2-1.3-0.4-2-0.4H84v10.5h2.7
			c0.8,0,1.4-0.1,2-0.4c0.6-0.3,1.1-0.6,1.5-1.1c0.4-0.5,0.7-1,0.9-1.7C91.3,67.5,91.5,66.8,91.5,66.1z"/>
		<path class="st5" d="M96.7,60.7v-3h3v3H96.7z M96.7,74.1V62.3h3v11.8H96.7z"/>
		<path class="st5" d="M105.6,74.1l-4.3-11.8h3.1l3,9.3l3-9.3h2.8l-4.3,11.8H105.6z"/>
		<path class="st5" d="M114.8,60.7v-3h3v3H114.8z M114.8,74.1V62.3h3v11.8H114.8z"/>
		<path class="st5" d="M125,74.3c-1,0-2-0.2-2.9-0.5c-0.9-0.3-1.8-0.8-2.4-1.3l1.1-1.9c0.7,0.5,1.4,0.9,2.1,1.2s1.4,0.4,2,0.4
			c0.6,0,1.1-0.1,1.4-0.3c0.3-0.2,0.5-0.6,0.5-1s-0.2-0.7-0.6-0.9c-0.4-0.2-1.1-0.4-2-0.7c-0.8-0.2-1.4-0.4-2-0.6
			c-0.5-0.2-1-0.4-1.3-0.7s-0.6-0.5-0.7-0.8c-0.1-0.3-0.2-0.7-0.2-1.2c0-0.6,0.1-1.1,0.4-1.6c0.2-0.5,0.6-0.9,1-1.2
			c0.4-0.3,0.9-0.6,1.5-0.8c0.6-0.2,1.2-0.3,1.8-0.3c0.9,0,1.7,0.1,2.5,0.4c0.8,0.2,1.5,0.7,2.1,1.2l-1.2,1.8
			c-0.6-0.4-1.2-0.8-1.7-1s-1.1-0.3-1.7-0.3c-0.5,0-0.9,0.1-1.3,0.3s-0.5,0.6-0.5,1c0,0.2,0,0.4,0.1,0.5c0.1,0.1,0.2,0.3,0.4,0.4
			c0.2,0.1,0.4,0.2,0.7,0.3c0.3,0.1,0.6,0.2,1.1,0.3c0.8,0.2,1.5,0.4,2.1,0.6s1,0.4,1.4,0.7c0.4,0.3,0.6,0.6,0.8,0.9
			c0.2,0.3,0.3,0.8,0.3,1.3c0,1.2-0.4,2.1-1.3,2.7C127.6,74,126.4,74.3,125,74.3z"/>
		<path class="st5" d="M131.7,60.7v-3h3v3H131.7z M131.7,74.1V62.3h3v11.8H131.7z"/>
		<path class="st5" d="M142.9,74.3c-1,0-1.8-0.2-2.6-0.5s-1.4-0.8-1.9-1.3c-0.5-0.6-0.9-1.2-1.2-1.9c-0.3-0.7-0.4-1.5-0.4-2.3
			c0-0.8,0.1-1.6,0.4-2.3c0.3-0.7,0.7-1.4,1.2-1.9c0.5-0.6,1.2-1,1.9-1.3c0.8-0.3,1.6-0.5,2.6-0.5s1.8,0.2,2.6,0.5
			c0.8,0.3,1.4,0.8,1.9,1.3c0.5,0.6,0.9,1.2,1.2,1.9c0.3,0.7,0.4,1.5,0.4,2.3c0,0.8-0.1,1.6-0.4,2.3c-0.3,0.7-0.7,1.4-1.2,1.9
			c-0.5,0.6-1.2,1-1.9,1.3C144.7,74.1,143.8,74.3,142.9,74.3z M139.8,68.2c0,0.5,0.1,1,0.2,1.4c0.1,0.4,0.4,0.8,0.6,1.1
			c0.3,0.3,0.6,0.6,1,0.7c0.4,0.2,0.8,0.3,1.2,0.3c0.4,0,0.8-0.1,1.2-0.3c0.4-0.2,0.7-0.4,1-0.7c0.3-0.3,0.5-0.7,0.7-1.1
			c0.1-0.4,0.2-0.9,0.2-1.4c0-0.5-0.1-1-0.2-1.4c-0.2-0.4-0.4-0.8-0.7-1.1c-0.3-0.3-0.6-0.6-1-0.7c-0.4-0.2-0.8-0.3-1.2-0.3
			c-0.4,0-0.8,0.1-1.2,0.3s-0.7,0.4-1,0.7c-0.3,0.3-0.5,0.7-0.6,1.1C139.9,67.2,139.8,67.7,139.8,68.2z"/>
		<path class="st5" d="M162,74.1h-3v-6.6c0-0.9-0.2-1.6-0.5-2.1s-0.8-0.7-1.4-0.7c-0.3,0-0.6,0.1-0.9,0.2c-0.3,0.1-0.6,0.3-0.9,0.5
			c-0.3,0.2-0.5,0.5-0.8,0.8c-0.2,0.3-0.4,0.6-0.5,1v6.9h-3V62.3h2.7v2.2c0.4-0.8,1.1-1.3,1.9-1.8c0.8-0.4,1.8-0.6,2.8-0.6
			c0.7,0,1.3,0.1,1.8,0.4c0.5,0.3,0.8,0.6,1.1,1.1c0.2,0.4,0.4,0.9,0.5,1.5c0.1,0.6,0.1,1.1,0.1,1.7L162,74.1L162,74.1z"/>
	</g>
	<g>
		<path class="st5" d="M83.5,87c-0.4,0.4-0.8,0.6-1.3,0.6c-0.3,0-0.6-0.1-0.8-0.2s-0.5-0.3-0.7-0.5c-0.2-0.2-0.4-0.5-0.5-0.7
			s-0.2-0.6-0.2-0.9c0-0.3,0.1-0.6,0.2-0.9c0.1-0.3,0.3-0.5,0.5-0.7c0.2-0.2,0.4-0.4,0.7-0.5c0.3-0.1,0.6-0.2,0.9-0.2
			c0.4,0,0.8,0.1,1.1,0.3c0.3,0.2,0.5,0.4,0.7,0.7l-0.7,0.5c-0.1-0.2-0.3-0.4-0.5-0.5c-0.2-0.1-0.4-0.2-0.7-0.2
			c-0.2,0-0.4,0-0.5,0.1s-0.3,0.2-0.4,0.3s-0.2,0.3-0.3,0.5C81,84.8,81,85,81,85.2c0,0.2,0,0.4,0.1,0.6c0.1,0.2,0.2,0.3,0.3,0.5
			c0.1,0.1,0.3,0.2,0.4,0.3c0.2,0.1,0.3,0.1,0.5,0.1c0.4,0,0.8-0.2,1.2-0.6v-0.3h-0.9v-0.7h1.6v2.3h-0.7L83.5,87L83.5,87z"/>
		<path class="st5" d="M86.3,87.5c-0.3,0-0.5-0.1-0.7-0.1S85.2,87.2,85,87c-0.1-0.2-0.3-0.3-0.4-0.6s-0.1-0.4-0.1-0.7s0-0.5,0.1-0.7
			s0.2-0.4,0.4-0.6c0.1-0.2,0.3-0.3,0.6-0.4s0.5-0.1,0.7-0.1c0.3,0,0.5,0.1,0.7,0.1s0.4,0.2,0.6,0.4c0.1,0.2,0.3,0.3,0.4,0.6
			s0.1,0.4,0.1,0.7c0,0.2,0,0.4-0.1,0.7c-0.1,0.2-0.2,0.4-0.4,0.6c-0.1,0.2-0.3,0.3-0.6,0.4S86.6,87.5,86.3,87.5z M85.4,85.8
			c0,0.2,0,0.3,0.1,0.4c0,0.1,0.1,0.2,0.2,0.3s0.2,0.2,0.3,0.2c0.1,0.1,0.2,0.1,0.4,0.1c0.1,0,0.2,0,0.4-0.1s0.2-0.1,0.3-0.2
			s0.1-0.2,0.2-0.3c0.1-0.1,0.1-0.3,0.1-0.4s0-0.3-0.1-0.4c0-0.1-0.1-0.2-0.2-0.3s-0.2-0.2-0.3-0.2c-0.1-0.1-0.2-0.1-0.4-0.1
			c-0.1,0-0.2,0-0.4,0.1s-0.2,0.1-0.3,0.2s-0.1,0.2-0.2,0.3C85.5,85.5,85.4,85.7,85.4,85.8z"/>
		<path class="st5" d="M89.3,87.5l-1.2-3.4H89l0.9,2.7l0.9-2.7h0.8l-1.2,3.4H89.3z"/>
		<path class="st5" d="M93.2,87.5c-0.3,0-0.5-0.1-0.7-0.1S92.1,87.2,92,87c-0.1-0.2-0.3-0.3-0.4-0.6c-0.1-0.2-0.1-0.4-0.1-0.7
			c0-0.2,0-0.5,0.1-0.7s0.2-0.4,0.4-0.6c0.2-0.2,0.3-0.3,0.6-0.4s0.5-0.1,0.7-0.1s0.5,0.1,0.7,0.1s0.4,0.2,0.6,0.4
			c0.1,0.2,0.3,0.3,0.4,0.6c0.1,0.2,0.1,0.4,0.1,0.7c0,0.1,0,0.1,0,0.2s0,0.1,0,0.1h-2.6c0,0.1,0.1,0.2,0.1,0.3s0.1,0.2,0.2,0.3
			s0.2,0.1,0.3,0.2c0.1,0,0.2,0.1,0.3,0.1c0.2,0,0.3,0,0.5-0.1c0.1-0.1,0.2-0.2,0.3-0.3l0.7,0.2c-0.1,0.2-0.3,0.5-0.6,0.6
			C93.9,87.5,93.6,87.5,93.2,87.5z M94.1,85.5c0-0.2-0.1-0.4-0.3-0.6c-0.2-0.2-0.4-0.2-0.6-0.2c-0.1,0-0.2,0-0.3,0.1
			s-0.2,0.1-0.3,0.2c-0.1,0.1-0.1,0.2-0.2,0.3s-0.1,0.2-0.1,0.3L94.1,85.5L94.1,85.5z"/>
		<path class="st5" d="M97.4,84.8c-0.3,0-0.5,0.1-0.7,0.2c-0.2,0.1-0.4,0.2-0.4,0.4v2h-0.9v-3.4h0.8v0.7c0.1-0.1,0.1-0.2,0.2-0.3
			s0.2-0.2,0.3-0.2s0.2-0.1,0.3-0.2c0.1,0,0.2-0.1,0.3-0.1c0.1,0,0.1,0,0.1,0c0,0,0.1,0,0.1,0V84.8z"/>
		<path class="st5" d="M100.9,87.5H100v-1.9c0-0.3-0.1-0.5-0.1-0.6c-0.1-0.1-0.2-0.2-0.4-0.2c-0.1,0-0.2,0-0.3,0.1
			c-0.1,0-0.2,0.1-0.2,0.2c-0.1,0.1-0.1,0.1-0.2,0.2c-0.1,0.1-0.1,0.2-0.1,0.3v2h-0.9v-3.4h0.8v0.6c0.1-0.2,0.3-0.4,0.5-0.5
			c0.2-0.1,0.5-0.2,0.8-0.2c0.2,0,0.4,0,0.5,0.1c0.1,0.1,0.2,0.2,0.3,0.3c0.1,0.1,0.1,0.3,0.1,0.4c0,0.2,0,0.3,0,0.5L100.9,87.5
			L100.9,87.5z"/>
		<path class="st5" d="M106.7,87.5h-0.9v-1.9c0-0.3,0-0.5-0.1-0.6c-0.1-0.1-0.2-0.2-0.4-0.2c-0.2,0-0.3,0.1-0.5,0.2
			c-0.1,0.1-0.3,0.3-0.3,0.5v2h-0.9v-1.9c0-0.3-0.1-0.5-0.1-0.6c-0.1-0.1-0.2-0.2-0.4-0.2c-0.2,0-0.3,0.1-0.5,0.2
			c-0.1,0.1-0.3,0.3-0.3,0.5v2h-0.9v-3.4h0.8v0.6c0.1-0.2,0.3-0.4,0.5-0.5c0.2-0.1,0.5-0.2,0.7-0.2s0.5,0.1,0.7,0.2
			c0.1,0.1,0.2,0.3,0.3,0.5c0.1-0.2,0.3-0.4,0.5-0.5c0.2-0.1,0.4-0.2,0.7-0.2c0.2,0,0.4,0,0.5,0.1c0.1,0.1,0.2,0.2,0.3,0.3
			c0.1,0.1,0.1,0.3,0.1,0.4c0,0.2,0,0.3,0,0.5L106.7,87.5L106.7,87.5z"/>
		<path class="st5" d="M108.9,87.5c-0.3,0-0.5-0.1-0.7-0.1c-0.2-0.1-0.4-0.2-0.6-0.4c-0.1-0.2-0.3-0.3-0.4-0.6
			c-0.1-0.2-0.1-0.4-0.1-0.7c0-0.2,0-0.5,0.1-0.7s0.2-0.4,0.4-0.6c0.1-0.2,0.3-0.3,0.6-0.4s0.5-0.1,0.7-0.1s0.5,0.1,0.7,0.1
			c0.2,0.1,0.4,0.2,0.6,0.4c0.1,0.2,0.3,0.3,0.4,0.6c0.1,0.2,0.1,0.4,0.1,0.7c0,0.1,0,0.1,0,0.2s0,0.1,0,0.1H108
			c0,0.1,0.1,0.2,0.1,0.3s0.1,0.2,0.2,0.3s0.2,0.1,0.3,0.2c0.1,0,0.2,0.1,0.3,0.1c0.2,0,0.3,0,0.5-0.1c0.1-0.1,0.3-0.2,0.3-0.3
			l0.7,0.2c-0.1,0.2-0.3,0.5-0.6,0.6C109.6,87.5,109.3,87.5,108.9,87.5z M109.8,85.5c0-0.2-0.1-0.4-0.3-0.6
			c-0.2-0.2-0.4-0.2-0.6-0.2c-0.1,0-0.2,0-0.3,0.1s-0.2,0.1-0.3,0.2s-0.1,0.2-0.2,0.3s-0.1,0.2-0.1,0.3L109.8,85.5L109.8,85.5z"/>
		<path class="st5" d="M114.2,87.5h-0.9v-1.9c0-0.3-0.1-0.5-0.1-0.6c-0.1-0.1-0.2-0.2-0.4-0.2c-0.1,0-0.2,0-0.3,0.1
			c-0.1,0-0.2,0.1-0.2,0.2c-0.1,0.1-0.1,0.1-0.2,0.2c-0.1,0.1-0.1,0.2-0.1,0.3v2h-0.9v-3.4h0.8v0.6c0.1-0.2,0.3-0.4,0.5-0.5
			c0.2-0.1,0.5-0.2,0.8-0.2c0.2,0,0.4,0,0.5,0.1c0.1,0.1,0.2,0.2,0.3,0.3c0.1,0.1,0.1,0.3,0.1,0.4c0,0.2,0,0.3,0,0.5L114.2,87.5
			L114.2,87.5z"/>
		<path class="st5" d="M116.8,87.3c-0.1,0.1-0.3,0.1-0.4,0.2c-0.2,0.1-0.3,0.1-0.5,0.1c-0.1,0-0.2,0-0.3-0.1c-0.1,0-0.2-0.1-0.3-0.1
			c-0.1-0.1-0.1-0.2-0.2-0.3s-0.1-0.2-0.1-0.4v-1.9h-0.4v-0.7h0.4V83h0.9v1.1h0.7v0.7h-0.7v1.6c0,0.1,0,0.2,0.1,0.2s0.1,0.1,0.2,0.1
			s0.2,0,0.3,0s0.1-0.1,0.2-0.1L116.8,87.3z"/>
		<path class="st5" d="M120.1,87.5c-0.3,0-0.5-0.1-0.7-0.1s-0.4-0.2-0.6-0.4c-0.1-0.2-0.3-0.3-0.4-0.6s-0.1-0.4-0.1-0.7
			s0-0.5,0.1-0.7s0.2-0.4,0.4-0.6c0.1-0.2,0.3-0.3,0.6-0.4s0.5-0.1,0.7-0.1c0.3,0,0.5,0.1,0.7,0.1s0.4,0.2,0.6,0.4
			c0.1,0.2,0.3,0.3,0.4,0.6s0.1,0.4,0.1,0.7c0,0.2,0,0.4-0.1,0.7c-0.1,0.2-0.2,0.4-0.4,0.6c-0.1,0.2-0.3,0.3-0.6,0.4
			S120.4,87.5,120.1,87.5z M119.2,85.8c0,0.2,0,0.3,0.1,0.4c0.1,0.1,0.1,0.2,0.2,0.3s0.2,0.2,0.3,0.2c0.1,0.1,0.2,0.1,0.4,0.1
			c0.1,0,0.2,0,0.4-0.1s0.2-0.1,0.3-0.2s0.1-0.2,0.2-0.3c0-0.1,0.1-0.3,0.1-0.4s0-0.3-0.1-0.4c-0.1-0.1-0.1-0.2-0.2-0.3
			s-0.2-0.2-0.3-0.2c-0.1-0.1-0.2-0.1-0.4-0.1c-0.1,0-0.2,0-0.4,0.1s-0.2,0.1-0.3,0.2s-0.1,0.2-0.2,0.3
			C119.2,85.5,119.2,85.7,119.2,85.8z"/>
		<path class="st5" d="M122.5,87.5v-2.5H122v-0.7h0.4v-0.2c0-0.4,0.1-0.8,0.3-1c0.2-0.2,0.5-0.4,0.8-0.4c0.3,0,0.5,0.1,0.8,0.2
			l-0.2,0.7c-0.1,0-0.1-0.1-0.2-0.1c-0.1,0-0.2,0-0.2,0c-0.3,0-0.5,0.2-0.5,0.6v0.2h0.8v0.7h-0.8v2.5
			C123.3,87.5,122.5,87.5,122.5,87.5z"/>
		<path class="st5" d="M127.8,87.3c-0.1,0.1-0.3,0.1-0.4,0.2c-0.2,0.1-0.3,0.1-0.5,0.1c-0.1,0-0.2,0-0.3-0.1c-0.1,0-0.2-0.1-0.3-0.1
			c-0.1-0.1-0.1-0.2-0.2-0.3s-0.1-0.2-0.1-0.4v-1.9h-0.4v-0.7h0.4V83h0.9v1.1h0.7v0.7h-0.7v1.6c0,0.1,0,0.2,0.1,0.2
			c0.1,0.1,0.1,0.1,0.2,0.1s0.2,0,0.3,0c0.1,0,0.2-0.1,0.2-0.1L127.8,87.3z"/>
		<path class="st5" d="M131.2,87.5h-0.9v-1.9c0-0.3,0-0.5-0.1-0.6s-0.2-0.2-0.4-0.2c-0.1,0-0.2,0-0.2,0.1c-0.1,0-0.2,0.1-0.2,0.2
			c-0.1,0.1-0.1,0.1-0.2,0.2c-0.1,0.1-0.1,0.2-0.1,0.3v2h-0.9v-4.7h0.9v1.9c0.1-0.2,0.3-0.4,0.5-0.5c0.2-0.1,0.5-0.2,0.7-0.2
			c0.2,0,0.4,0,0.5,0.1c0.1,0.1,0.2,0.2,0.3,0.3c0.1,0.1,0.1,0.3,0.2,0.4c0,0.2,0,0.3,0,0.5L131.2,87.5L131.2,87.5z"/>
		<path class="st5" d="M133.4,87.5c-0.3,0-0.5-0.1-0.7-0.1s-0.4-0.2-0.6-0.4c-0.1-0.2-0.3-0.3-0.4-0.6c-0.1-0.2-0.1-0.4-0.1-0.7
			c0-0.2,0-0.5,0.1-0.7s0.2-0.4,0.4-0.6c0.1-0.2,0.3-0.3,0.6-0.4s0.5-0.1,0.7-0.1s0.5,0.1,0.7,0.1c0.2,0.1,0.4,0.2,0.5,0.4
			c0.1,0.2,0.3,0.3,0.4,0.6c0.1,0.2,0.1,0.4,0.1,0.7c0,0.1,0,0.1,0,0.2s0,0.1,0,0.1h-2.6c0,0.1,0,0.2,0.1,0.3c0,0.1,0.1,0.2,0.2,0.3
			c0.1,0.1,0.2,0.1,0.3,0.2c0.1,0,0.2,0.1,0.3,0.1c0.2,0,0.3,0,0.5-0.1c0.1-0.1,0.3-0.2,0.3-0.3l0.7,0.2c-0.1,0.2-0.3,0.5-0.6,0.6
			C134.1,87.5,133.8,87.5,133.4,87.5z M134.3,85.5c0-0.2-0.1-0.4-0.3-0.6c-0.2-0.2-0.4-0.2-0.6-0.2c-0.1,0-0.2,0-0.3,0.1
			s-0.2,0.1-0.3,0.2c-0.1,0.1-0.1,0.2-0.2,0.3s-0.1,0.2-0.1,0.3L134.3,85.5L134.3,85.5z"/>
		<path class="st5" d="M137.1,87.5v-4.6h1.9c0.2,0,0.4,0,0.6,0.1s0.3,0.2,0.5,0.3c0.1,0.1,0.2,0.3,0.3,0.5c0.1,0.2,0.1,0.4,0.1,0.6
			c0,0.2,0,0.4-0.1,0.6c-0.1,0.2-0.2,0.3-0.3,0.5c-0.1,0.1-0.3,0.2-0.5,0.3c-0.2,0.1-0.4,0.1-0.6,0.1H138v1.5
			C138,87.5,137.1,87.5,137.1,87.5z M138,85.2h1c0.2,0,0.3-0.1,0.4-0.2c0.1-0.1,0.2-0.3,0.2-0.5c0-0.1,0-0.2,0-0.3s-0.1-0.2-0.1-0.2
			c-0.1-0.1-0.1-0.1-0.2-0.2c-0.1,0-0.1-0.1-0.2-0.1h-1L138,85.2L138,85.2z"/>
		<path class="st5" d="M142.4,87.5c-0.3,0-0.5-0.1-0.7-0.1s-0.4-0.2-0.6-0.4c-0.1-0.2-0.3-0.3-0.4-0.6c-0.1-0.2-0.1-0.4-0.1-0.7
			c0-0.2,0-0.5,0.1-0.7s0.2-0.4,0.4-0.6c0.2-0.2,0.3-0.3,0.6-0.4s0.5-0.1,0.7-0.1s0.5,0.1,0.7,0.1c0.2,0.1,0.4,0.2,0.5,0.4
			c0.1,0.2,0.3,0.3,0.4,0.6c0.1,0.2,0.1,0.4,0.1,0.7c0,0.1,0,0.1,0,0.2s0,0.1,0,0.1h-2.6c0,0.1,0,0.2,0.1,0.3c0,0.1,0.1,0.2,0.2,0.3
			c0.1,0.1,0.2,0.1,0.3,0.2c0.1,0,0.2,0.1,0.3,0.1c0.2,0,0.3,0,0.5-0.1c0.1-0.1,0.3-0.2,0.3-0.3l0.7,0.2c-0.1,0.2-0.3,0.5-0.6,0.6
			C143.1,87.5,142.7,87.5,142.4,87.5z M143.2,85.5c0-0.2-0.1-0.4-0.3-0.6c-0.2-0.2-0.4-0.2-0.6-0.2c-0.1,0-0.2,0-0.3,0.1
			c-0.1,0-0.2,0.1-0.3,0.2s-0.1,0.2-0.2,0.3s-0.1,0.2-0.1,0.3L143.2,85.5L143.2,85.5z"/>
		<path class="st5" d="M146.1,87.5c-0.3,0-0.5-0.1-0.7-0.1s-0.4-0.2-0.5-0.4c-0.1-0.2-0.3-0.3-0.4-0.6c-0.1-0.2-0.1-0.4-0.1-0.7
			s0-0.5,0.1-0.7s0.2-0.4,0.4-0.6c0.1-0.2,0.3-0.3,0.5-0.4s0.5-0.1,0.7-0.1c0.3,0,0.5,0.1,0.7,0.1c0.2,0.1,0.4,0.2,0.5,0.4
			c0.1,0.2,0.3,0.3,0.4,0.6c0.1,0.2,0.1,0.4,0.1,0.7c0,0.2,0,0.4-0.1,0.7c-0.1,0.2-0.2,0.4-0.3,0.6c-0.1,0.2-0.3,0.3-0.5,0.4
			C146.6,87.5,146.4,87.5,146.1,87.5z M145.2,85.8c0,0.2,0,0.3,0.1,0.4c0,0.1,0.1,0.2,0.2,0.3c0.1,0.1,0.2,0.2,0.3,0.2
			c0.1,0.1,0.2,0.1,0.4,0.1s0.2,0,0.4-0.1c0.1-0.1,0.2-0.1,0.3-0.2s0.1-0.2,0.2-0.3c0-0.1,0.1-0.3,0.1-0.4s0-0.3-0.1-0.4
			c0-0.1-0.1-0.2-0.2-0.3c-0.1-0.1-0.2-0.2-0.3-0.2c-0.1-0.1-0.2-0.1-0.4-0.1c-0.1,0-0.2,0-0.4,0.1c-0.1,0.1-0.2,0.1-0.3,0.2
			s-0.1,0.2-0.2,0.3C145.2,85.5,145.2,85.7,145.2,85.8z"/>
		<path class="st5" d="M150.3,87.5c-0.3,0-0.5-0.1-0.7-0.2c-0.2-0.1-0.4-0.3-0.5-0.5v2h-0.9v-4.7h0.8v0.6c0.1-0.2,0.3-0.3,0.5-0.5
			c0.2-0.1,0.4-0.2,0.7-0.2c0.2,0,0.4,0.1,0.6,0.1s0.4,0.2,0.5,0.4c0.1,0.2,0.2,0.3,0.3,0.6c0.1,0.2,0.1,0.4,0.1,0.7
			c0,0.2,0,0.5-0.1,0.7c-0.1,0.2-0.2,0.4-0.3,0.6c-0.1,0.2-0.3,0.3-0.5,0.4C150.7,87.5,150.5,87.5,150.3,87.5z M150,86.8
			c0.1,0,0.2,0,0.4-0.1s0.2-0.1,0.3-0.2c0.1-0.1,0.1-0.2,0.2-0.3c0-0.1,0.1-0.2,0.1-0.4s0-0.3-0.1-0.4s-0.1-0.2-0.2-0.3
			c-0.1-0.1-0.2-0.2-0.3-0.2c-0.1-0.1-0.2-0.1-0.4-0.1c-0.1,0-0.2,0-0.2,0c-0.1,0-0.2,0.1-0.2,0.1c-0.1,0.1-0.1,0.1-0.2,0.2
			c-0.1,0.1-0.1,0.1-0.1,0.2v0.8c0.1,0.2,0.2,0.3,0.4,0.5C149.7,86.8,149.8,86.8,150,86.8z"/>
		<path class="st5" d="M152.2,82.8h0.9v3.6c0,0.1,0,0.2,0.1,0.3s0.1,0.1,0.2,0.1c0,0,0.1,0,0.2,0c0.1,0,0.1,0,0.2-0.1l0.1,0.7
			c-0.1,0.1-0.2,0.1-0.4,0.1c-0.1,0-0.3,0-0.4,0c-0.3,0-0.5-0.1-0.6-0.2s-0.2-0.3-0.2-0.6L152.2,82.8L152.2,82.8z"/>
		<path class="st5" d="M155.7,87.5c-0.3,0-0.5-0.1-0.7-0.1c-0.2-0.1-0.4-0.2-0.6-0.4c-0.1-0.2-0.3-0.3-0.4-0.6
			c-0.1-0.2-0.1-0.4-0.1-0.7c0-0.2,0-0.5,0.1-0.7s0.2-0.4,0.4-0.6c0.1-0.2,0.3-0.3,0.6-0.4s0.5-0.1,0.7-0.1s0.5,0.1,0.7,0.1
			c0.2,0.1,0.4,0.2,0.5,0.4c0.1,0.2,0.3,0.3,0.4,0.6c0.1,0.2,0.1,0.4,0.1,0.7c0,0.1,0,0.1,0,0.2s0,0.1,0,0.1h-2.6
			c0,0.1,0,0.2,0.1,0.3c0,0.1,0.1,0.2,0.2,0.3c0.1,0.1,0.2,0.1,0.3,0.2c0.1,0,0.2,0.1,0.3,0.1c0.2,0,0.3,0,0.5-0.1
			c0.1-0.1,0.2-0.2,0.3-0.3l0.7,0.2c-0.1,0.2-0.3,0.5-0.6,0.6C156.4,87.5,156.1,87.5,155.7,87.5z M156.6,85.5c0-0.2-0.1-0.4-0.3-0.6
			c-0.2-0.2-0.4-0.2-0.6-0.2c-0.1,0-0.2,0-0.3,0.1c-0.1,0-0.2,0.1-0.3,0.2s-0.1,0.2-0.2,0.3s-0.1,0.2-0.1,0.3L156.6,85.5L156.6,85.5
			z"/>
		<path class="st5" d="M157.8,84.4l0.1-0.8h-0.3v-0.9h0.9v0.9l-0.2,0.8L157.8,84.4L157.8,84.4z"/>
		<path class="st5" d="M160.4,87.5c-0.3,0-0.6-0.1-0.8-0.1s-0.5-0.2-0.7-0.4l0.3-0.5c0.2,0.2,0.4,0.2,0.6,0.3
			c0.2,0.1,0.4,0.1,0.6,0.1c0.2,0,0.3,0,0.4-0.1c0.1-0.1,0.1-0.2,0.1-0.3c0-0.1-0.1-0.2-0.2-0.3c-0.1-0.1-0.3-0.1-0.6-0.2
			c-0.2-0.1-0.4-0.1-0.6-0.2c-0.2-0.1-0.3-0.1-0.4-0.2s-0.2-0.2-0.2-0.2s-0.1-0.2-0.1-0.3c0-0.2,0-0.3,0.1-0.5
			c0.1-0.1,0.2-0.2,0.3-0.3s0.3-0.2,0.4-0.2s0.3-0.1,0.5-0.1c0.2,0,0.5,0,0.7,0.1s0.4,0.2,0.6,0.3l-0.4,0.5
			c-0.2-0.1-0.3-0.2-0.5-0.3s-0.3-0.1-0.5-0.1c-0.1,0-0.3,0-0.4,0.1c-0.1,0.1-0.1,0.2-0.1,0.3c0,0.1,0,0.1,0,0.2
			c0,0,0.1,0.1,0.1,0.1c0,0,0.1,0.1,0.2,0.1c0.1,0,0.2,0.1,0.3,0.1c0.2,0.1,0.4,0.1,0.6,0.2c0.2,0.1,0.3,0.1,0.4,0.2
			c0.1,0.1,0.2,0.2,0.2,0.3c0,0.1,0.1,0.2,0.1,0.4c0,0.3-0.1,0.6-0.4,0.8C161.1,87.4,160.8,87.5,160.4,87.5z"/>
		<path class="st5" d="M80.3,95.2v-4.6h2.1c0.2,0,0.4,0,0.6,0.1c0.2,0.1,0.4,0.2,0.5,0.3c0.1,0.2,0.2,0.3,0.3,0.5s0.1,0.4,0.1,0.6
			c0,0.3-0.1,0.6-0.2,0.8c-0.2,0.2-0.4,0.4-0.6,0.5l1.1,1.7h-1l-1-1.5h-0.9v1.5L80.3,95.2L80.3,95.2z M81.2,92.9h1.2
			c0.1,0,0.2,0,0.2-0.1c0.1,0,0.1-0.1,0.2-0.2c0.1-0.1,0.1-0.2,0.1-0.2c0-0.1,0.1-0.2,0.1-0.3s0-0.2-0.1-0.3c0-0.1-0.1-0.2-0.1-0.2
			c-0.1-0.1-0.1-0.1-0.2-0.2c-0.1,0-0.2-0.1-0.2-0.1h-1.1L81.2,92.9L81.2,92.9z"/>
		<path class="st5" d="M86.5,95.2c-0.3,0-0.5-0.1-0.8-0.1c-0.2-0.1-0.4-0.2-0.6-0.4c-0.2-0.2-0.3-0.3-0.4-0.6
			c-0.1-0.2-0.1-0.4-0.1-0.7c0-0.2,0-0.5,0.1-0.7c0.1-0.2,0.2-0.4,0.4-0.6c0.2-0.2,0.4-0.3,0.6-0.4s0.5-0.1,0.8-0.1s0.5,0.1,0.8,0.1
			c0.2,0.1,0.4,0.2,0.6,0.4c0.2,0.2,0.3,0.3,0.4,0.6c0.1,0.2,0.1,0.4,0.1,0.7c0,0.1,0,0.1,0,0.2s0,0.1,0,0.1h-2.7
			c0,0.1,0.1,0.2,0.1,0.3c0.1,0.1,0.1,0.2,0.2,0.3c0.1,0.1,0.2,0.1,0.3,0.2s0.2,0.1,0.3,0.1c0.2,0,0.4,0,0.5-0.1
			c0.2-0.1,0.3-0.2,0.3-0.3l0.8,0.2c-0.1,0.2-0.3,0.5-0.6,0.6C87.2,95.2,86.9,95.2,86.5,95.2z M87.4,93.2c0-0.2-0.1-0.4-0.3-0.6
			c-0.2-0.2-0.4-0.2-0.6-0.2c-0.1,0-0.2,0-0.3,0.1c-0.1,0-0.2,0.1-0.3,0.2s-0.1,0.2-0.2,0.3s-0.1,0.2-0.1,0.3L87.4,93.2L87.4,93.2z"
			/>
		<path class="st5" d="M91.2,95.2c-0.3,0-0.5-0.1-0.7-0.2c-0.2-0.1-0.4-0.3-0.5-0.5v2h-0.9v-4.7h0.8v0.6c0.1-0.2,0.3-0.3,0.5-0.5
			c0.2-0.1,0.4-0.2,0.7-0.2c0.2,0,0.5,0,0.7,0.1c0.2,0.1,0.4,0.2,0.5,0.4c0.1,0.2,0.3,0.3,0.3,0.6c0.1,0.2,0.1,0.4,0.1,0.7
			s0,0.5-0.1,0.7c-0.1,0.2-0.2,0.4-0.3,0.6c-0.1,0.2-0.3,0.3-0.5,0.4C91.7,95.2,91.5,95.2,91.2,95.2z M90.9,94.5
			c0.1,0,0.3,0,0.4-0.1s0.2-0.1,0.3-0.2c0.1-0.1,0.1-0.2,0.2-0.3c0-0.1,0.1-0.2,0.1-0.4s0-0.3-0.1-0.4s-0.1-0.2-0.2-0.3
			c-0.1-0.1-0.2-0.2-0.3-0.2c-0.1-0.1-0.2-0.1-0.4-0.1c-0.1,0-0.2,0-0.3,0s-0.2,0.1-0.2,0.1c-0.1,0.1-0.1,0.1-0.2,0.2
			C90.1,92.9,90.1,93,90,93v0.8c0.1,0.2,0.2,0.3,0.4,0.5C90.6,94.4,90.8,94.5,90.9,94.5z"/>
		<path class="st5" d="M94.7,95.2c-0.4,0-0.6-0.1-0.8-0.3c-0.2-0.2-0.3-0.6-0.3-1v-2.1h0.9v1.9c0,0.5,0.2,0.8,0.6,0.8
			c0.2,0,0.3-0.1,0.5-0.2c0.2-0.1,0.3-0.2,0.4-0.5v-2.1h0.9v2.4c0,0.1,0,0.2,0.1,0.2c0,0,0.1,0.1,0.2,0.1v0.7c-0.1,0-0.2,0-0.2,0
			s-0.1,0-0.2,0c-0.2,0-0.3,0-0.4-0.1s-0.2-0.2-0.2-0.3l0-0.3c-0.2,0.2-0.4,0.4-0.6,0.5C95.3,95.2,95,95.2,94.7,95.2z"/>
		<path class="st5" d="M100.1,95.2c-0.3,0-0.5-0.1-0.7-0.2s-0.4-0.3-0.5-0.5v0.6h-0.8v-4.7H99v1.9c0.1-0.2,0.3-0.4,0.5-0.5
			c0.2-0.1,0.4-0.2,0.7-0.2c0.2,0,0.4,0.1,0.6,0.1s0.4,0.2,0.5,0.4c0.1,0.2,0.2,0.3,0.3,0.6c0.1,0.2,0.1,0.4,0.1,0.7
			c0,0.2,0,0.5-0.1,0.7c-0.1,0.2-0.2,0.4-0.3,0.6s-0.3,0.3-0.5,0.4C100.5,95.2,100.3,95.2,100.1,95.2z M99.8,94.5
			c0.1,0,0.3,0,0.4-0.1c0.1-0.1,0.2-0.1,0.3-0.2c0.1-0.1,0.1-0.2,0.2-0.3c0-0.1,0.1-0.2,0.1-0.4c0-0.1,0-0.3-0.1-0.4
			c-0.1-0.1-0.1-0.2-0.2-0.3s-0.2-0.2-0.3-0.2c-0.1-0.1-0.2-0.1-0.4-0.1c-0.2,0-0.4,0.1-0.5,0.2c-0.2,0.1-0.3,0.3-0.4,0.5v0.8
			c0,0.1,0.1,0.2,0.1,0.2c0.1,0.1,0.1,0.1,0.2,0.2c0.1,0.1,0.2,0.1,0.2,0.1C99.7,94.5,99.7,94.5,99.8,94.5z"/>
		<path class="st5" d="M102.6,90.5h0.9v3.6c0,0.1,0,0.2,0.1,0.3s0.1,0.1,0.3,0.1c0.1,0,0.1,0,0.2,0c0.1,0,0.1,0,0.2-0.1l0.1,0.7
			c-0.1,0.1-0.3,0.1-0.4,0.1c-0.2,0-0.3,0.1-0.4,0.1c-0.3,0-0.5-0.1-0.7-0.2c-0.1-0.2-0.2-0.3-0.2-0.6V90.5z"/>
		<path class="st5" d="M105,91.3v-0.8h0.9v0.8H105z M105,95.2v-3.4h0.9v3.4H105z"/>
		<path class="st5" d="M106.7,93.5c0-0.2,0-0.5,0.1-0.7c0.1-0.2,0.2-0.4,0.4-0.6c0.2-0.2,0.4-0.3,0.6-0.4c0.2-0.1,0.5-0.1,0.8-0.1
			c0.4,0,0.7,0.1,1,0.2c0.3,0.2,0.5,0.4,0.6,0.6l-0.9,0.2c-0.1-0.1-0.2-0.2-0.3-0.3c-0.1-0.1-0.3-0.1-0.4-0.1c-0.1,0-0.2,0-0.4,0.1
			s-0.2,0.1-0.3,0.2c-0.1,0.1-0.1,0.2-0.2,0.3s-0.1,0.3-0.1,0.4s0,0.3,0.1,0.4c0.1,0.1,0.1,0.2,0.2,0.3c0.1,0.1,0.2,0.2,0.3,0.2
			c0.1,0.1,0.2,0.1,0.4,0.1c0.2,0,0.3,0,0.4-0.1s0.2-0.2,0.3-0.3l0.9,0.3c-0.1,0.2-0.3,0.5-0.6,0.6c-0.3,0.2-0.6,0.2-1,0.2
			c-0.3,0-0.5-0.1-0.8-0.1c-0.2-0.1-0.4-0.2-0.6-0.4c-0.2-0.2-0.3-0.3-0.4-0.6C106.8,93.9,106.7,93.7,106.7,93.5z"/>
		<path class="st5" d="M114.5,95.2c-0.3,0-0.5-0.1-0.8-0.1c-0.2-0.1-0.4-0.2-0.6-0.4c-0.2-0.2-0.3-0.3-0.4-0.6
			c-0.1-0.2-0.1-0.4-0.1-0.7c0-0.2,0-0.5,0.1-0.7c0.1-0.2,0.2-0.4,0.4-0.6c0.2-0.2,0.4-0.3,0.6-0.4s0.5-0.1,0.8-0.1s0.5,0.1,0.8,0.1
			c0.2,0.1,0.4,0.2,0.6,0.4c0.2,0.2,0.3,0.3,0.4,0.6c0.1,0.2,0.1,0.4,0.1,0.7c0,0.2,0,0.4-0.1,0.7c-0.1,0.2-0.2,0.4-0.4,0.6
			c-0.2,0.2-0.4,0.3-0.6,0.4C115.1,95.2,114.8,95.2,114.5,95.2z M113.6,93.5c0,0.2,0,0.3,0.1,0.4c0.1,0.1,0.1,0.2,0.2,0.3
			c0.1,0.1,0.2,0.2,0.3,0.2c0.1,0.1,0.2,0.1,0.4,0.1s0.2,0,0.4-0.1s0.2-0.1,0.3-0.2c0.1-0.1,0.1-0.2,0.2-0.3s0.1-0.3,0.1-0.4
			s0-0.3-0.1-0.4c-0.1-0.1-0.1-0.2-0.2-0.3c-0.1-0.1-0.2-0.2-0.3-0.2c-0.1-0.1-0.2-0.1-0.4-0.1s-0.2,0-0.4,0.1
			c-0.1,0.1-0.2,0.1-0.3,0.2c-0.1,0.1-0.1,0.2-0.2,0.3C113.6,93.2,113.6,93.4,113.6,93.5z"/>
		<path class="st5" d="M117.4,95.2v-2.5h-0.5V92h0.5v-0.2c0-0.4,0.1-0.8,0.3-1c0.2-0.2,0.5-0.4,0.9-0.4c0.3,0,0.6,0.1,0.9,0.2
			l-0.2,0.7c-0.1,0-0.1-0.1-0.2-0.1c-0.1,0-0.2,0-0.2,0c-0.3,0-0.5,0.2-0.5,0.6V92h0.9v0.7h-0.9v2.5L117.4,95.2L117.4,95.2z"/>
		<path class="st5" d="M125.6,94c0,0.2,0,0.4-0.1,0.5c-0.1,0.1-0.2,0.3-0.3,0.4c-0.1,0.1-0.3,0.2-0.5,0.2c-0.2,0.1-0.4,0.1-0.6,0.1
			h-2.3v-4.6h2.6c0.2,0,0.3,0,0.5,0.1s0.2,0.2,0.3,0.3c0.1,0.1,0.2,0.2,0.2,0.4c0,0.1,0.1,0.3,0.1,0.4c0,0.2-0.1,0.4-0.2,0.6
			c-0.1,0.2-0.3,0.3-0.5,0.4c0.3,0.1,0.5,0.2,0.6,0.4C125.5,93.4,125.6,93.7,125.6,94z M122.7,91.4v1.2h1.2c0.2,0,0.3-0.1,0.4-0.2
			s0.2-0.2,0.2-0.4c0-0.2,0-0.3-0.1-0.4c-0.1-0.1-0.2-0.2-0.4-0.2H122.7z M124.7,93.8c0-0.1,0-0.2,0-0.2s-0.1-0.1-0.1-0.2
			c0-0.1-0.1-0.1-0.2-0.1s-0.1-0.1-0.2-0.1h-1.4v1.2h1.4c0.1,0,0.2,0,0.2,0c0.1,0,0.1-0.1,0.2-0.1c0-0.1,0.1-0.1,0.1-0.2
			C124.6,94,124.7,93.9,124.7,93.8z"/>
		<path class="st5" d="M127.5,95.2c-0.2,0-0.3,0-0.5-0.1c-0.1-0.1-0.3-0.1-0.4-0.2c-0.1-0.1-0.2-0.2-0.2-0.3s-0.1-0.3-0.1-0.4
			c0-0.2,0-0.3,0.1-0.4c0.1-0.1,0.2-0.2,0.3-0.3s0.3-0.2,0.5-0.2c0.2-0.1,0.4-0.1,0.6-0.1c0.2,0,0.3,0,0.5,0c0.1,0,0.3,0.1,0.4,0.1
			V93c0-0.2-0.1-0.4-0.2-0.5s-0.3-0.2-0.6-0.2c-0.2,0-0.4,0-0.5,0.1c-0.2,0.1-0.4,0.2-0.5,0.3l-0.3-0.6c0.5-0.3,0.9-0.4,1.5-0.4
			c0.5,0,0.9,0.1,1.2,0.3c0.3,0.2,0.4,0.6,0.4,1v1.1c0,0.1,0,0.2,0,0.2c0,0,0.1,0.1,0.2,0.1v0.7c-0.1,0-0.3,0.1-0.4,0.1
			c-0.2,0-0.3,0-0.4-0.1c-0.1-0.1-0.1-0.2-0.2-0.3l0-0.2c-0.2,0.2-0.4,0.3-0.6,0.4C127.9,95.2,127.7,95.2,127.5,95.2z M127.7,94.6
			c0.1,0,0.3,0,0.4-0.1c0.1-0.1,0.2-0.1,0.3-0.2c0.1-0.1,0.1-0.2,0.1-0.2v-0.4c-0.1,0-0.2-0.1-0.4-0.1c-0.1,0-0.2,0-0.4,0
			c-0.2,0-0.4,0.1-0.6,0.2s-0.2,0.2-0.2,0.4c0,0.2,0.1,0.3,0.2,0.4C127.4,94.6,127.5,94.6,127.7,94.6z"/>
		<path class="st5" d="M133.9,95.2H133v-1.9c0-0.3,0-0.5-0.1-0.6c-0.1-0.1-0.2-0.2-0.4-0.2c-0.1,0-0.2,0-0.3,0.1
			c-0.1,0-0.2,0.1-0.3,0.2c-0.1,0.1-0.2,0.1-0.2,0.2s-0.1,0.2-0.1,0.3v2h-0.9v-3.4h0.8v0.6c0.1-0.2,0.3-0.4,0.6-0.5
			c0.2-0.1,0.5-0.2,0.8-0.2c0.2,0,0.4,0,0.5,0.1c0.1,0.1,0.2,0.2,0.3,0.3c0.1,0.1,0.1,0.3,0.2,0.4s0,0.3,0,0.5L133.9,95.2
			L133.9,95.2z"/>
		<path class="st5" d="M136.3,95.2c-0.2,0-0.5-0.1-0.6-0.1s-0.4-0.2-0.5-0.4s-0.2-0.3-0.3-0.6c-0.1-0.2-0.1-0.4-0.1-0.7
			c0-0.2,0-0.5,0.1-0.7s0.2-0.4,0.3-0.6c0.1-0.2,0.3-0.3,0.5-0.4c0.2-0.1,0.4-0.1,0.7-0.1c0.3,0,0.5,0.1,0.7,0.2
			c0.2,0.1,0.4,0.3,0.5,0.5v-0.6h0.8V95c0,0.2,0,0.5-0.1,0.7s-0.2,0.4-0.4,0.5c-0.2,0.1-0.4,0.2-0.6,0.3c-0.2,0.1-0.5,0.1-0.8,0.1
			c-0.4,0-0.7-0.1-1-0.2s-0.5-0.3-0.7-0.5l0.5-0.5c0.1,0.2,0.3,0.3,0.5,0.4c0.2,0.1,0.4,0.1,0.6,0.1c0.1,0,0.3,0,0.4-0.1
			c0.1,0,0.2-0.1,0.3-0.2s0.2-0.2,0.2-0.3s0.1-0.3,0.1-0.4v-0.4c-0.1,0.2-0.3,0.3-0.5,0.4C136.8,95.2,136.5,95.2,136.3,95.2z
			 M136.6,94.5c0.1,0,0.2,0,0.3-0.1c0.1,0,0.2-0.1,0.2-0.1s0.1-0.1,0.2-0.2c0.1-0.1,0.1-0.1,0.1-0.2v-0.8c-0.1-0.2-0.2-0.3-0.4-0.5
			s-0.4-0.2-0.5-0.2c-0.1,0-0.3,0-0.4,0.1s-0.2,0.1-0.3,0.2c-0.1,0.1-0.1,0.2-0.2,0.3c0,0.1-0.1,0.2-0.1,0.4c0,0.1,0,0.3,0.1,0.4
			c0,0.1,0.1,0.2,0.2,0.3c0.1,0.1,0.2,0.2,0.3,0.2C136.3,94.5,136.5,94.5,136.6,94.5z"/>
		<path class="st5" d="M139.4,90.5h0.9v3.6c0,0.1,0,0.2,0.1,0.3s0.1,0.1,0.3,0.1c0,0,0.1,0,0.2,0s0.1,0,0.2-0.1l0.1,0.7
			c-0.1,0.1-0.3,0.1-0.4,0.1c-0.2,0-0.3,0.1-0.4,0.1c-0.3,0-0.5-0.1-0.7-0.2c-0.1-0.2-0.2-0.3-0.2-0.6L139.4,90.5L139.4,90.5z"/>
		<path class="st5" d="M142.8,95.2c-0.2,0-0.3,0-0.5-0.1c-0.1-0.1-0.3-0.1-0.4-0.2c-0.1-0.1-0.2-0.2-0.2-0.3s-0.1-0.3-0.1-0.4
			c0-0.2,0-0.3,0.1-0.4c0.1-0.1,0.2-0.2,0.3-0.3c0.1-0.1,0.3-0.2,0.5-0.2c0.2-0.1,0.4-0.1,0.6-0.1c0.2,0,0.3,0,0.5,0
			c0.1,0,0.3,0.1,0.4,0.1V93c0-0.2-0.1-0.4-0.2-0.5s-0.3-0.2-0.6-0.2c-0.2,0-0.4,0-0.5,0.1c-0.2,0.1-0.4,0.2-0.5,0.3l-0.3-0.6
			c0.5-0.3,0.9-0.4,1.5-0.4c0.5,0,0.9,0.1,1.2,0.3c0.3,0.2,0.4,0.6,0.4,1v1.1c0,0.1,0,0.2,0,0.2c0,0,0.1,0.1,0.2,0.1v0.7
			c-0.1,0-0.3,0.1-0.4,0.1c-0.2,0-0.3,0-0.4-0.1c-0.1-0.1-0.1-0.2-0.2-0.3l0-0.2c-0.2,0.2-0.4,0.3-0.6,0.4
			C143.3,95.2,143.1,95.2,142.8,95.2z M143.1,94.6c0.1,0,0.3,0,0.4-0.1c0.1-0.1,0.2-0.1,0.3-0.2c0.1-0.1,0.1-0.2,0.1-0.2v-0.4
			c-0.1,0-0.2-0.1-0.4-0.1c-0.1,0-0.2,0-0.4,0c-0.2,0-0.4,0.1-0.6,0.2s-0.2,0.2-0.2,0.4c0,0.2,0,0.3,0.2,0.4
			C142.7,94.6,142.9,94.6,143.1,94.6z"/>
		<path class="st5" d="M147.4,95.2c-0.2,0-0.5-0.1-0.7-0.1c-0.2-0.1-0.4-0.2-0.5-0.4s-0.3-0.3-0.4-0.6c-0.1-0.2-0.1-0.4-0.1-0.7
			s0-0.5,0.1-0.7s0.2-0.4,0.3-0.6s0.3-0.3,0.5-0.4c0.2-0.1,0.4-0.1,0.6-0.1c0.3,0,0.5,0.1,0.7,0.2c0.2,0.1,0.4,0.3,0.5,0.5v-1.9h0.9
			v3.7c0,0.1,0,0.2,0,0.2c0,0,0.1,0.1,0.2,0.1v0.7c-0.2,0-0.3,0.1-0.4,0.1c-0.2,0-0.3,0-0.4-0.1c-0.1-0.1-0.2-0.2-0.2-0.3l0-0.2
			c-0.1,0.2-0.3,0.4-0.5,0.5C147.9,95.2,147.7,95.2,147.4,95.2z M147.7,94.5c0.1,0,0.2,0,0.3,0c0.1,0,0.2-0.1,0.2-0.1
			c0.1-0.1,0.1-0.1,0.2-0.2c0.1-0.1,0.1-0.1,0.1-0.2v-0.8c0-0.1-0.1-0.2-0.1-0.3s-0.1-0.2-0.2-0.2s-0.2-0.1-0.3-0.1
			c-0.1,0-0.2-0.1-0.3-0.1c-0.1,0-0.3,0-0.4,0.1c-0.1,0.1-0.2,0.1-0.3,0.2c-0.1,0.1-0.1,0.2-0.2,0.3c0,0.1-0.1,0.2-0.1,0.4
			s0,0.3,0.1,0.4c0,0.1,0.1,0.2,0.2,0.3c0.1,0.1,0.2,0.2,0.3,0.2C147.4,94.5,147.5,94.5,147.7,94.5z"/>
		<path class="st5" d="M152.2,95.2c-0.3,0-0.5-0.1-0.8-0.1c-0.2-0.1-0.4-0.2-0.6-0.4c-0.2-0.2-0.3-0.3-0.4-0.6
			c-0.1-0.2-0.1-0.4-0.1-0.7c0-0.2,0-0.5,0.1-0.7s0.2-0.4,0.4-0.6c0.2-0.2,0.4-0.3,0.6-0.4s0.5-0.1,0.8-0.1c0.3,0,0.5,0.1,0.8,0.1
			c0.2,0.1,0.4,0.2,0.6,0.4c0.2,0.2,0.3,0.3,0.4,0.6c0.1,0.2,0.1,0.4,0.1,0.7c0,0.1,0,0.1,0,0.2s0,0.1,0,0.1h-2.7
			c0,0.1,0,0.2,0.1,0.3c0,0.1,0.1,0.2,0.2,0.3c0.1,0.1,0.2,0.1,0.3,0.2c0.1,0,0.2,0.1,0.3,0.1c0.2,0,0.4,0,0.5-0.1
			c0.2-0.1,0.3-0.2,0.3-0.3l0.8,0.2c-0.1,0.2-0.3,0.5-0.6,0.6C152.9,95.2,152.6,95.2,152.2,95.2z M153.1,93.2c0-0.2-0.1-0.4-0.3-0.6
			c-0.2-0.2-0.4-0.2-0.6-0.2c-0.1,0-0.2,0-0.3,0.1s-0.2,0.1-0.3,0.2s-0.1,0.2-0.2,0.3c0,0.1-0.1,0.2-0.1,0.3L153.1,93.2L153.1,93.2z
			"/>
		<path class="st5" d="M156.2,95.2c-0.3,0-0.6-0.1-0.9-0.1s-0.5-0.2-0.7-0.4l0.3-0.5c0.2,0.2,0.4,0.2,0.6,0.3
			c0.2,0.1,0.4,0.1,0.6,0.1c0.2,0,0.3,0,0.4-0.1c0.1-0.1,0.1-0.2,0.1-0.3c0-0.1-0.1-0.2-0.2-0.3c-0.1-0.1-0.3-0.1-0.6-0.2
			c-0.2-0.1-0.4-0.1-0.6-0.2c-0.2-0.1-0.3-0.1-0.4-0.2s-0.2-0.2-0.2-0.2c0-0.1-0.1-0.2-0.1-0.3c0-0.2,0-0.3,0.1-0.5
			c0.1-0.1,0.2-0.2,0.3-0.3s0.3-0.2,0.4-0.2s0.4-0.1,0.5-0.1c0.3,0,0.5,0,0.7,0.1c0.2,0.1,0.4,0.2,0.6,0.3l-0.4,0.5
			c-0.2-0.1-0.4-0.2-0.5-0.3c-0.2-0.1-0.3-0.1-0.5-0.1c-0.1,0-0.3,0-0.4,0.1s-0.2,0.2-0.2,0.3c0,0.1,0,0.1,0,0.2
			c0,0,0.1,0.1,0.1,0.1c0.1,0,0.1,0.1,0.2,0.1s0.2,0.1,0.3,0.1c0.2,0.1,0.5,0.1,0.6,0.2c0.2,0.1,0.3,0.1,0.4,0.2
			c0.1,0.1,0.2,0.2,0.2,0.3s0.1,0.2,0.1,0.4c0,0.3-0.1,0.6-0.4,0.8C157,95.2,156.6,95.2,156.2,95.2z"/>
		<path class="st5" d="M161.7,95.2h-0.9v-1.9c0-0.3,0-0.5-0.2-0.6c-0.1-0.1-0.2-0.2-0.4-0.2c-0.1,0-0.2,0-0.2,0.1
			c-0.1,0-0.2,0.1-0.2,0.2c-0.1,0.1-0.1,0.1-0.2,0.2s-0.1,0.2-0.1,0.3v2h-0.9v-4.7h0.9v1.9c0.1-0.2,0.3-0.4,0.5-0.5s0.5-0.2,0.7-0.2
			c0.2,0,0.4,0,0.6,0.1c0.1,0.1,0.3,0.2,0.3,0.3s0.1,0.3,0.2,0.4c0,0.2,0,0.3,0,0.5L161.7,95.2L161.7,95.2z"/>
	</g>
	<g>
		<rect x="379.5" y="0" class="st6" width="49.6" height="49.7"/>
		<rect x="379.5" y="51.1" class="st6" width="24.1" height="24.1"/>
		<rect x="405.1" y="51.1" class="st6" width="24" height="24.1"/>
		<rect x="379.5" y="76.7" class="st6" width="24.1" height="24.1"/>
		<rect x="405.1" y="76.7" class="st6" width="24" height="24.1"/>
		<g>
			<g>
				<path class="st7" d="M399.3,40.5c0.3,0.3,0.8,0.8,0.8,0.8c1.2-1.3,2.6-3.8,6.2-3.7c1.8,1.1,5.6,4.7,9.4,0.6
					c-1.8,0.6-4,1.2-7-0.7c-1.8-0.5-4.2-1-6.4,0.7C400.8,39.1,400.8,39.4,399.3,40.5 M408.8,37c0.9,0.2,7.6,3,10.2-2.1
					c-2.3,1.7-3.6,1.4-7,1.8c2-1.5,1.9-1.7,3-4C413.3,34,412.1,35.9,408.8,37 M413.7,36c1.3,0,6.7-0.3,8-5.6
					c-1.7,1.9-2.3,2.3-3.5,2.8c-1.1,0.6-2.4,1.2-3,2c1.2-2,1.5-1.9,1.7-3.5c0.3-2.1,0.2-2.4,0.6-2.9c-1.1,1.5-1.9,2.5-2.3,4.4
					C414.8,34.5,414.6,34.3,413.7,36 M417.3,33.1c0.6-0.3,6.6-3.4,5.5-7.6c-0.6,1.6-0.5,1.9-1.8,2.9c-1.3,1-2.2,2.4-2.3,2.7
					c0.7-2.6,0.5-4.3-0.1-5.8c-0.6,2.2-0.7,5-0.7,5.5C417.8,31.8,417.7,31.4,417.3,33.1 M422.6,19.9c0.2,0.4,2,4.2-2.6,8.8
					c-0.2-2.2-0.6-3.4-0.9-4c-0.4-1.8-0.5-3.5-0.4-3.9c1,2.2,1.9,3.2,2.1,5.3C421.8,23,422.1,23.3,422.6,19.9 M420.7,24
					c0.2-0.6,2.8-5.5-0.1-9c0.3,3.5,0.2,5.4,0.2,6.6c-0.8-2-2.4-3.3-3.2-4.3c0.5,2.2,1.3,3.3,1.6,3.7
					C419.8,21.8,420.4,22.5,420.7,24 M417.8,12.6c-0.3-0.2,2.5,0.8,2.3,3.6c0,1.8-0.2,2.6,0,3.2c-1.1-1.3-1.4-1.7-2.2-2.3
					c-1-0.8-1.9-1.6-2.1-3.2c0.6,0.8,1.5,1.3,1.9,1.6c0.5,0.4,1.7,1.5,1.7,1.9C419,15.1,418.5,13.3,417.8,12.6 M414.1,10.7
					c-0.5-0.2,1,0.7,1.7,2c0.9,1.6,2.6,2.7,2.7,2.9C418.2,14,417.8,12,414.1,10.7 M409.4,40.5c-0.3,0.3-0.8,0.8-0.8,0.8
					c-1.2-1.3-2.6-3.8-6.2-3.7c-1.8,1.1-5.6,4.7-9.4,0.7c1.8,0.6,4,1.2,7-0.8c1.8-0.5,4.2-1,6.4,0.6
					C407.9,39.1,407.9,39.4,409.4,40.5 M399.9,37.1c-0.9,0.3-7.6,3-10.2-2c2.3,1.7,3.6,1.4,7,1.7c-2-1.5-1.9-1.7-3-4
					C395.4,34.1,396.5,36,399.9,37.1 M394.9,36c-1.3,0-6.7-0.3-8.1-5.6c1.7,1.9,2.3,2.2,3.5,2.8c1.2,0.6,2.4,1.1,3,1.9
					c-1.2-2-1.5-1.9-1.7-3.5c-0.3-2.1-0.3-2.4-0.6-2.9c1.1,1.5,1.9,2.5,2.3,4.4C393.8,34.5,394,34.4,394.9,36 M391.4,33.2
					c-0.6-0.3-6.6-3.4-5.6-7.6c0.6,1.6,0.5,1.9,1.8,2.9c1.3,1,2.2,2.4,2.3,2.7c-0.7-2.6-0.6-4.3,0.1-5.8c0.6,2.2,0.7,5,0.7,5.5
					C390.9,31.9,391,31.5,391.4,33.2 M386,20c-0.2,0.4-1.9,4.2,2.6,8.8c0.2-2.2,0.6-3.4,0.9-4c0.4-1.8,0.5-3.5,0.4-3.9
					c-1,2.2-1.9,3.2-2.1,5.3C386.8,23.1,386.5,23.4,386,20 M387.9,24.1c-0.3-0.6-2.9-5.5,0-9c-0.3,3.5-0.2,5.4-0.1,6.6
					c0.8-2,2.3-3.3,3.2-4.3c-0.5,2.2-1.2,3.3-1.6,3.8C388.8,21.9,388.2,22.7,387.9,24.1 M390.7,12.8c0.3-0.3-2.5,0.8-2.3,3.6
					c0,1.8,0.2,2.6,0,3.2c1.1-1.3,1.4-1.7,2.2-2.4c1-0.8,1.9-1.7,2.1-3.2c-0.6,0.8-1.5,1.3-1.9,1.7c-0.5,0.4-1.7,1.6-1.7,1.9
					C389.5,15.2,390.1,13.4,390.7,12.8 M394.5,10.8c0.5-0.2-0.9,0.7-1.7,2c-0.9,1.6-2.6,2.8-2.7,2.9
					C390.3,14.1,390.8,12.1,394.5,10.8"/>
			</g>
			<g>
				<path class="st5" d="M404.4,36.1c-7.3,0-13.2-5.9-13.2-13.2s5.9-13.3,13.2-13.3s13.2,5.9,13.2,13.3
					C417.5,30.1,411.6,36.1,404.4,36.1z M404.4,10.2c-7,0-12.6,5.7-12.6,12.7s5.7,12.7,12.6,12.7c6.9,0,12.6-5.7,12.6-12.7
					C416.9,15.9,411.3,10.2,404.4,10.2z"/>
			</g>
			<g>
				<path class="st5" d="M404.4,33.5c-5.8,0-10.6-4.8-10.6-10.6s4.7-10.6,10.6-10.6s10.6,4.8,10.6,10.6S410.2,33.5,404.4,33.5z
					 M404.4,12.8c-5.5,0-10,4.5-10,10s4.5,10,10,10s10-4.5,10-10C414.3,17.3,409.8,12.8,404.4,12.8z"/>
			</g>
			<g>
				<path class="st5" d="M404.4,30.9c-4.4,0-8-3.6-8-8.1s3.6-8.1,8-8.1c4.4,0,8,3.6,8,8.1S408.8,30.9,404.4,30.9z M404.4,15.4
					c-4.1,0-7.4,3.3-7.4,7.4s3.3,7.5,7.4,7.5c4.1,0,7.4-3.4,7.4-7.5C411.8,18.7,408.4,15.4,404.4,15.4z"/>
			</g>
			<g>
				<path class="st5" d="M404.4,28.3c-3,0-5.4-2.4-5.4-5.4s2.4-5.4,5.4-5.4c3,0,5.4,2.4,5.4,5.4C409.7,25.8,407.3,28.3,404.4,28.3z
					 M404.4,18c-2.6,0-4.8,2.2-4.8,4.8c0,2.7,2.2,4.8,4.8,4.8c2.6,0,4.8-2.2,4.8-4.8C409.1,20.2,407,18,404.4,18z"/>
			</g>
			<g>
				<rect x="404" y="9.9" class="st5" width="0.6" height="25.9"/>
			</g>
			<g>
				<rect x="391.4" y="22.5" class="st5" width="25.8" height="0.6"/>
			</g>
			<g>
				
					<rect x="404.2" y="9.8" transform="matrix(0.7022 -0.712 0.712 0.7022 104.1919 294.7768)" class="st5" width="0.6" height="26"/>
			</g>
			<g>
				
					<rect x="391.5" y="22.5" transform="matrix(0.7025 -0.7117 0.7117 0.7025 104.0822 294.6442)" class="st5" width="26" height="0.6"/>
			</g>
			<g>
				<path class="st7" d="M398.4,28.1c0.1-1.7-0.2-3.4-1-3.7c-0.6-0.5-1.9-1.3-2.3,1.2c-0.7-0.2-2.8-0.2-2.4,1.2
					c0.7,0.7,4.2,3.6,5.3,3.5c1.2-0.3,2.1-0.3,2.1-0.6C399.2,28.3,399.2,28.1,398.4,28.1"/>
			</g>
			<g>
				<path class="st7" d="M409,13.5c-0.1,0.7,0.5,1.4,0.2,2.4c-0.3-0.5-0.6-0.6-0.6,0.1c1.5,2.8,1.7,2.8,1.7,2.8s-0.1,1.3,0.6,1.4
					c0.6,0.5,0.5,1.7-0.2,1.4c0-0.9,0.1-1-0.7-0.8c-0.3-0.9-1.2-1.3-1.9-1.2c-0.9,0.2-2,0.9-2.1,1.3c-0.6-0.4-0.5-0.5-0.5-0.5
					c0.8-0.7,0.5-1.2,0.3-1.1c-0.3,0.3-0.6,0.2-0.8,0.5c-0.5-0.1-1.7,0.1-1.7,0.1c0-0.4-0.3,0.3-0.3,0.3c-0.1,0.3-0.9,0.6-1.1,0.2
					c-0.5-0.6-0.8-1.1-2.1-0.5c-1.2,0.7-2.8,1.4-2.3,4.1c0.7-0.4,0.9-1,0.9-1.4c0.6-0.1,0.9,0.7,0.6,1.1c-0.5,0.3-1.4,1-0.5,1
					c0.3-0.5,1-0.4,1.5-0.1c0.7,0.4,2.5,1.1,2.8,1.3c0.6,0.1,1.7,0.5,0.6,1.6c-0.6,0.5-0.6,0.9-0.6,1.2s-0.9,0.6-0.1,1.6
					c0.6,0.6,2,1.4,2.6,1.3c0.1,0.8,0.3,1.3,1.4,2c0.7,0.4,1.2,0.8,1.5,0.2c1.1-0.8,1.6-1.9,1.5-2.8c0.3-0.5,0.4-0.5,0.5-0.7
					c-0.3-0.5-0.8-0.8-0.9-0.8c0.4-0.7,0.5-0.5,1.1,0.2c0.5,0.7,0.9,0.4,1-0.1c0.1-0.4,0-0.7-0.2-0.5c0-0.4-0.2-0.3-0.3,0
					c-0.3-0.2-0.6-0.4-0.5-0.6c0.1-0.3,0-0.6-0.6-0.7c-0.2,0-0.6,0.2-0.7,0.6c-0.9,0-1.8-0.2-1.8-0.5c0.6,0,1.3,0.1,1.6,0.1
					c0.4-0.2,0.5-1.2,0.5-1.8c0.2-0.6,0.9-0.6,1.7-0.6c0.8,0.1,1.2-0.2,1.3-0.3c0.3-0.1,0-0.5-0.9-0.5c-0.8-0.1-1-0.8-0.7-1.3
					c0.1-1.6,0.2-1.2,0.5-1.4c0.4-0.3,0.9-0.4,0.7-1.2c-0.1-1.5-0.7-2-1.1-2.2c-1-1.7-1.6-2.2-1.3-2.4c0.7,0.3,0.9,0.6,0.9,1.1
					c0.7,0.8,1.9,1.3,2.2,2c0.9-0.2,1.3-0.5,0.8-1.3c-0.6-0.9-1.3-1.8-1.6-1.9c-0.6-1.2-1-1.9-1.4-2.1c0.2-0.1,0.8-0.5-0.3-0.8
					C410.1,13.2,409.5,13.5,409,13.5"/>
			</g>
			<g>
				<path class="st7" d="M401.3,23.4c-0.3-0.1,0.4-0.8,0.8-0.6C402.6,23,401.9,23.7,401.3,23.4"/>
			</g>
			<g>
				<path class="st7" d="M406.7,26c0.1,0.3-0.3,0.5-0.3,0.5C406.3,26,406.7,25.7,406.7,26"/>
			</g>
			<g>
				<path class="st8" d="M403.6,25c-0.6-0.2-0.6-0.2,0.2-0.6c0.9-1.1-0.2-1.5-0.6-1c-0.3,0.5-0.8,0.3-0.3-0.2
					c-0.9-0.5,0.5-1.7,1-2.1c0.3-0.2,0.6,0.1,1.5,0.9c-0.1,0.6,0.3,2,0.4,1.8c0-0.2,0-0.3,0-0.1c0,0,0,0.1,0,0.1
					c0,0.2-0.1,0.6-0.2,0.7c-0.5-0.1-1.1-0.9-0.8,0.5C404.8,25,404.2,25.1,403.6,25"/>
			</g>
			<g>
				<path class="st7" d="M406.2,27.7c-0.4,0.5-0.7,0.4-1,0.1c-1,0.1-1.2,0.2-1.2,0.2c0.1-0.5,1-1,1.2-0.8c0.2,0.2,1,0.3,1.7-0.4
					C407,27.3,406.9,27.3,406.2,27.7"/>
			</g>
			<g>
				<path class="st7" d="M408.1,20.1c0,0-0.5,0-0.2-0.2C408.1,19.6,408.2,19.9,408.1,20.1"/>
			</g>
			<g>
				<polygon class="st7" points="408.2,26.5 408.2,26.1 408.7,26.2 408.7,26.5 				"/>
			</g>
			<g>
				<path class="st7" d="M404.9,11.9c0,0,2.8,0.3,2.2-0.4C406.5,11.1,405.6,11.2,404.9,11.9"/>
			</g>
		</g>
		<path class="st7" d="M387.2,56.3v8.8c0,3.3,1.5,4.7,3.5,4.7c2.2,0,3.7-1.4,3.7-4.7v-8.8h2V65c0,4.6-2.5,6.4-5.8,6.4
			c-3.1,0-5.5-1.7-5.5-6.3v-8.7L387.2,56.3L387.2,56.3z"/>
		<path class="st7" d="M385.2,96.6c1,0.1,2.1,0.2,3.5,0.2c2.9,0,5.6-0.8,7-2.1c1.4-1.4,2.1-3.3,2.1-5.8c0-2.4-1.2-4.1-2.5-5.3
			c-1.3-1.2-3.3-1.8-6-1.8c-1.5,0-2.9,0.1-4.1,0.3L385.2,96.6L385.2,96.6z M387.2,83.4c0.5-0.1,1.3-0.2,2.2-0.2c4.1,0,6.1,2.2,6,5.7
			c0,4-2.2,6.3-6.3,6.3c-0.8,0-1.5,0-1.9-0.1V83.4"/>
		<path class="st7" d="M412.5,96.8h1.9v-5.9c0.4,0.1,1,0.1,1.5,0.1c1.9,0,3.5-0.6,4.5-1.6c0.8-0.8,1.2-1.8,1.2-3.2
			c0-1.3-0.5-2.4-1.3-3.1c-0.9-0.8-2.3-1.2-4.2-1.2c-1.5,0-2.8,0.1-3.7,0.3L412.5,96.8L412.5,96.8z M414.4,83.5
			c0.3-0.1,1-0.2,1.8-0.2c2.1,0,3.5,0.9,3.5,2.9c0,2-1.4,3.1-3.7,3.1c-0.6,0-1.2,0-1.6-0.2V83.5"/>
		<path class="st7" d="M410.9,71.3V56.5h2.1l4.6,7.5c1.1,1.7,1.9,3.3,2.6,4.8l0.1,0c-0.2-2-0.2-3.8-0.2-6.1v-6.2h1.8v14.8h-1.9
			l-4.6-7.5c-1-1.7-2-3.3-2.7-5l-0.1,0c0.1,1.9,0.1,3.7,0.1,6.1v6.3L410.9,71.3L410.9,71.3z"/>
	</g>
</g>
</svg>
