<svg xmlns="http://www.w3.org/2000/svg" width="115.48" height="115.48" viewBox="0 0 115.48 115.48">
  <g id="Citizen" transform="translate(-5914.321 -4726.776)">
    <g id="Ellipse_23" data-name="Ellipse 23" transform="translate(5914.321 4726.776)" fill="none" stroke="#fff" stroke-width="6">
      <circle cx="57.74" cy="57.74" r="57.74" stroke="none"/>
      <circle cx="57.74" cy="57.74" r="54.74" fill="none"/>
    </g>
    <path id="Path_630" data-name="Path 630" d="M88.9,88.139v8.073h-6.92a1.153,1.153,0,0,0-1.153,1.153,28.834,28.834,0,0,0,57.668,0,1.153,1.153,0,0,0-1.153-1.153h-6.92V88.139a3.459,3.459,0,0,0-3.46-3.46h-.441a4.614,4.614,0,1,0-6.039,0h-.441a3.408,3.408,0,0,0-1.578.4,4.615,4.615,0,0,0-4.189-2.706h-1.391a5.158,5.158,0,0,0-2.069-9.087v-6.5a20.131,20.131,0,0,0,8.353-.3,1.153,1.153,0,0,0,.874-1.119V59.6a1.153,1.153,0,0,0-1.432-1.119,17.963,17.963,0,0,1-7.794.189V57h-2.307V73.285a5.158,5.158,0,0,0-2.069,9.087h-1.391a4.615,4.615,0,0,0-4.189,2.706,3.408,3.408,0,0,0-1.578-.4h-.441a4.614,4.614,0,1,0-6.039,0h-.441a3.46,3.46,0,0,0-3.46,3.46ZM110.818,61a20.274,20.274,0,0,0,6.92.023v3.422a17.946,17.946,0,0,1-6.92-.028ZM83.162,98.519H94.1a50.743,50.743,0,0,0,1.131,9.792,44.662,44.662,0,0,0-8.485,2.4,26.358,26.358,0,0,1-3.586-12.193Zm4.862,14.167a43.516,43.516,0,0,1,7.745-2.129,33.933,33.933,0,0,0,3.345,8.143c-1.407.24-2.733.527-3.977.854h0a26.736,26.736,0,0,1-7.114-6.867Zm10.034-2.5a81,81,0,0,1,23.215,0,30.085,30.085,0,0,1-3.552,8.157,70.062,70.062,0,0,0-16.11-.007,30.079,30.079,0,0,1-3.552-8.151Zm11.607,13.706A26.347,26.347,0,0,1,98.1,121.23c.984-.2,2.014-.371,3.081-.519h0a68.232,68.232,0,0,1,16.954,0q1.608.222,3.089.519h0a26.35,26.35,0,0,1-11.563,2.661Zm14.523-4.339q-1.863-.49-3.977-.854h0a33.972,33.972,0,0,0,3.345-8.143,43.534,43.534,0,0,1,7.746,2.129,26.736,26.736,0,0,1-7.114,6.867Zm11.98-21.034a26.358,26.358,0,0,1-3.586,12.193,44.746,44.746,0,0,0-8.484-2.4,50.74,50.74,0,0,0,1.131-9.792ZM123.5,78.911a2.306,2.306,0,1,1-1.631.676A2.306,2.306,0,0,1,123.5,78.911Zm-4.613,9.227a1.153,1.153,0,0,1,1.153-1.153h6.92a1.153,1.153,0,0,1,1.153,1.153v8.073h-9.227Zm-9.227-12.687a2.883,2.883,0,1,1-2.039.844A2.884,2.884,0,0,1,109.665,75.451Zm-6.92,11.533a2.306,2.306,0,0,1,2.307-2.307h9.227a2.306,2.306,0,0,1,2.307,2.307v9.227h-13.84Zm20.177,11.534a48.3,48.3,0,0,1-1.1,9.417,83.188,83.188,0,0,0-24.31,0,48.3,48.3,0,0,1-1.1-9.417Zm-27.1-19.607a2.306,2.306,0,1,1-1.631.676A2.306,2.306,0,0,1,95.824,78.911Zm3.46,8.073a1.153,1.153,0,0,1,1.153,1.153v8.073H91.211V88.138a1.153,1.153,0,0,1,1.153-1.153Z" transform="translate(5862.396 4691.897)" fill="#fff"/>
  </g>
</svg>
