<svg xmlns="http://www.w3.org/2000/svg" width="115.48" height="115.48" viewBox="0 0 115.48 115.48">
  <g id="Service" transform="translate(-5460 -4726.776)">
    <g id="Ellipse_1" data-name="Ellipse 1" transform="translate(5460 4726.776)" fill="none" stroke="#fff" stroke-width="6">
      <circle cx="57.74" cy="57.74" r="57.74" stroke="none"/>
      <circle cx="57.74" cy="57.74" r="54.74" fill="none"/>
    </g>
    <g id="Group_334" data-name="Group 334" transform="translate(5444.796 4728.353)">
      <path id="Path_621" data-name="Path 621" d="M101.236,207.487a1.066,1.066,0,0,0-.474-.683,5.993,5.993,0,0,0-7.236.683l-3.563,3.377-1.98.941h0l-3.89,1.842a2.557,2.557,0,0,0-1.978-.93H69.4l-2.966-1.126a9.345,9.345,0,0,0-5.058-.447l-6.2,1.174a7.092,7.092,0,0,0-3.821,2.049,5.433,5.433,0,0,0-.37.41.929.929,0,0,0-.074.1l-6.112,9.67a1.068,1.068,0,1,0,1.806,1.142l6.075-9.613c.061-.072.124-.141.2-.218a4.98,4.98,0,0,1,2.688-1.444l6.2-1.174a7.182,7.182,0,0,1,3.9.343l3.152,1.2a1.076,1.076,0,0,0,.379.07H82.111a.378.378,0,0,1,.385.273,1.532,1.532,0,0,1,.046.169c.315,1.441-.408,2.631-2.146,3.533a13.145,13.145,0,0,1-2.891,1.012l-1.774.419q-1.331.315-2.5.595h0q-8.533,2.033-8.54,2.028a1.069,1.069,0,0,0,.244,2.109,1.116,1.116,0,0,0,.246-.028s2.854-.674,8.55-2.032h0q1.169-.282,2.493-.592L78,221.921a15.245,15.245,0,0,0,3.374-1.191c2.922-1.517,3.446-3.572,3.371-5.027l4.148-1.964h0l2.137-1.015a1.073,1.073,0,0,0,.277-.19l3.685-3.493a3.827,3.827,0,0,1,3.6-.877l-6.226,9.271a4.4,4.4,0,0,1-1.113,1.154L79.837,226.92a5.3,5.3,0,0,1-3.1,1H62.143a3.708,3.708,0,0,0-3.12,1.646l-4.536,5.566a1.069,1.069,0,0,0,1.657,1.35l4.572-5.61a.889.889,0,0,0,.074-.1,1.581,1.581,0,0,1,1.352-.711H76.738a7.444,7.444,0,0,0,4.359-1.413l11.42-8.332a6.5,6.5,0,0,0,1.638-1.7l6.923-10.31a1.067,1.067,0,0,0,.159-.815Z" transform="translate(0 -148.659)" fill="#fff"/>
      <path id="Path_622" data-name="Path 622" d="M124.849,116.9h25.643a1.068,1.068,0,0,0,1.068-1.068v-20.3a1.068,1.068,0,0,0-1.068-1.068H124.849a1.068,1.068,0,0,0-1.068,1.068v20.3A1.068,1.068,0,0,0,124.849,116.9Zm10.684-20.3h4.274v7.479h-4.274Zm-9.616,0H133.4v8.548a1.068,1.068,0,0,0,1.068,1.068h6.411a1.068,1.068,0,0,0,1.068-1.068V96.6h7.479v18.164H125.918Z" transform="translate(-64.727 -57.534)" fill="#fff"/>
      <path id="Path_623" data-name="Path 623" d="M195.2,29.452a1.068,1.068,0,0,0,1.068-1.068V25.178a1.068,1.068,0,1,0-2.137,0v3.205A1.068,1.068,0,0,0,195.2,29.452Z" transform="translate(-122.26 0)" fill="#fff"/>
      <path id="Path_624" data-name="Path 624" d="M101.363,67.695a1.069,1.069,0,1,0,1.511-1.511l-2.267-2.266A1.069,1.069,0,1,0,99.1,65.429Z" transform="translate(-44.285 -32.297)" fill="#fff"/>
      <path id="Path_625" data-name="Path 625" d="M60.356,161.095h3.205a1.068,1.068,0,0,0,0-2.137H60.356a1.068,1.068,0,0,0,0,2.137Z" transform="translate(-11.987 -110.273)" fill="#fff"/>
      <path id="Path_626" data-name="Path 626" d="M312.464,161.095h3.205a1.068,1.068,0,1,0,0-2.137h-3.205a1.068,1.068,0,0,0,0,2.137Z" transform="translate(-218.151 -110.273)" fill="#fff"/>
      <path id="Path_627" data-name="Path 627" d="M278.117,68.006a1.066,1.066,0,0,0,.756-.313l2.267-2.266a1.068,1.068,0,1,0-1.511-1.511l-2.267,2.266a1.068,1.068,0,0,0,.756,1.824Z" transform="translate(-190.063 -32.295)" fill="#fff"/>
    </g>
  </g>
</svg>
