<svg xmlns="http://www.w3.org/2000/svg" width="115.48" height="115.48" viewBox="0 0 115.48 115.48">
  <g id="Visite" transform="translate(-5612 -4726.776)">
    <g id="Ellipse_21" data-name="Ellipse 21" transform="translate(5612 4726.776)" fill="none" stroke="#fff" stroke-width="6">
      <circle cx="57.74" cy="57.74" r="57.74" stroke="none"/>
      <circle cx="57.74" cy="57.74" r="54.74" fill="none"/>
    </g>
    <path id="Path_628" data-name="Path 628" d="M126.325,99.125c5.935-6.619,13.261-17.3,13.261-29.758a21.363,21.363,0,1,0-42.726,0c0,12.453,7.325,23.139,13.261,29.758-4.5.616-12.137,2.246-12.137,6.222,0,4.646,11.005,5.622,20.239,5.622s20.238-.976,20.238-5.622c0-3.976-7.632-5.606-12.137-6.222Zm-8.1-48.872a19.136,19.136,0,0,1,19.114,19.114c0,17.287-15.608,31.537-19.114,34.52-3.507-2.982-19.114-17.233-19.114-34.52A19.136,19.136,0,0,1,118.223,50.253Zm0,58.467c-13.105,0-17.99-2.069-17.99-3.373,0-1.22,3.759-3.356,11.788-4.184a58.956,58.956,0,0,0,5.509,5.07,1.124,1.124,0,0,0,1.384,0,59.08,59.08,0,0,0,5.509-5.07c8.03.828,11.789,2.964,11.789,4.184,0,1.3-4.885,3.373-17.99,3.373Zm15.741-39.353a15.741,15.741,0,1,0-15.741,15.741A15.758,15.758,0,0,0,133.964,69.367Zm-29.234,0a13.492,13.492,0,1,1,13.492,13.492A13.508,13.508,0,0,1,104.73,69.367Zm13.492,4.5a1.128,1.128,0,0,1-.7-.246l-5.622-4.5a1.124,1.124,0,0,1,1.406-1.755l4.731,3.786,7.171-9.22a1.124,1.124,0,1,1,1.774,1.38L119.11,73.431a1.119,1.119,0,0,1-.755.426,1.092,1.092,0,0,1-.132.007Z" transform="translate(5551.517 4701.912)" fill="#fff"/>
  </g>
</svg>
