<svg xmlns="http://www.w3.org/2000/svg" width="115.48" height="115.48" viewBox="0 0 115.48 115.48">
  <g id="Work_Days_Saved" data-name="Work Days Saved" transform="translate(-5764 -4726.776)">
    <g id="Ellipse_22" data-name="Ellipse 22" transform="translate(5764 4726.776)" fill="none" stroke="#fff" stroke-width="6">
      <circle cx="57.74" cy="57.74" r="57.74" stroke="none"/>
      <circle cx="57.74" cy="57.74" r="54.74" fill="none"/>
    </g>
    <path id="Path_629" data-name="Path 629" d="M117.47,72.153H109.7v-2.74a1.1,1.1,0,0,0-2.192,0v2.74H96.048v-2.74a1.1,1.1,0,0,0-2.192,0v2.74H82.4v-2.74a1.1,1.1,0,0,0-2.192,0v2.74H72.435a4.122,4.122,0,0,0-4.118,4.119v41.2a4.122,4.122,0,0,0,4.118,4.118H117.47a4.123,4.123,0,0,0,4.119-4.118v-41.2a4.123,4.123,0,0,0-4.119-4.118ZM72.435,74.345H80.21v2.741a1.1,1.1,0,1,0,2.192,0V74.345H93.856v2.741a1.1,1.1,0,1,0,2.192,0V74.345H107.5v2.741a1.1,1.1,0,0,0,2.192,0V74.345h7.775a1.929,1.929,0,0,1,1.927,1.927v8.665H70.509V76.271a1.928,1.928,0,0,1,1.925-1.926ZM117.47,119.4H72.435a1.928,1.928,0,0,1-1.926-1.926V87.127H119.4v30.342a1.928,1.928,0,0,1-1.926,1.926Zm-7.708-25.879h-9.23V91.982a1.977,1.977,0,0,0-1.975-1.974H91.348a1.977,1.977,0,0,0-1.975,1.975v1.534H80.144a1.317,1.317,0,0,0-1.316,1.315V100.1a4.283,4.283,0,0,0,.866,2.581v11.358a2.478,2.478,0,0,0,2.475,2.475h25.569a2.478,2.478,0,0,0,2.475-2.475V102.683a4.284,4.284,0,0,0,.865-2.581V94.832a1.318,1.318,0,0,0-1.316-1.315ZM91.566,92.2h6.773v1.316H91.566ZM81.019,95.709h27.866V100.1a2.122,2.122,0,0,1-2.119,2.12H99.359a1.97,1.97,0,0,0-1.952-1.754H92.5a1.97,1.97,0,0,0-1.952,1.754H83.139a2.122,2.122,0,0,1-2.12-2.12ZM97.19,102.66v1.316H92.716V102.66Zm10.547,11.664H82.169a.287.287,0,0,1-.283-.283v-9.814a4.3,4.3,0,0,0,1.254.187h7.406a1.97,1.97,0,0,0,1.952,1.754h4.91a1.97,1.97,0,0,0,1.952-1.754h7.406a4.3,4.3,0,0,0,1.254-.187v9.814a.286.286,0,0,1-.282.283Z" transform="translate(5726.787 4688.543)" fill="#fff"/>
  </g>
</svg>
